<?xml version="1.0" encoding="utf-8" standalone="no"?>
<!DOCTYPE svg PUBLIC "-//W3C//DTD SVG 1.1//EN"
  "http://www.w3.org/Graphics/SVG/1.1/DTD/svg11.dtd">
<svg xmlns:xlink="http://www.w3.org/1999/xlink" width="460.8pt" height="345.6pt" viewBox="0 0 460.8 345.6" xmlns="http://www.w3.org/2000/svg" version="1.1">
 <metadata>
  <rdf:RDF xmlns:dc="http://purl.org/dc/elements/1.1/" xmlns:cc="http://creativecommons.org/ns#" xmlns:rdf="http://www.w3.org/1999/02/22-rdf-syntax-ns#">
   <cc:Work>
    <dc:type rdf:resource="http://purl.org/dc/dcmitype/StillImage"/>
    <dc:date>2023-09-05T22:26:24.703159</dc:date>
    <dc:format>image/svg+xml</dc:format>
    <dc:creator>
     <cc:Agent>
      <dc:title>Matplotlib v3.7.2, https://matplotlib.org/</dc:title>
     </cc:Agent>
    </dc:creator>
   </cc:Work>
  </rdf:RDF>
 </metadata>
 <defs>
  <style type="text/css">*{stroke-linejoin: round; stroke-linecap: butt}</style>
 </defs>
 <g id="figure_1">
  <g id="patch_1">
   <path d="M 0 345.6 
L 460.8 345.6 
L 460.8 0 
L 0 0 
z
" style="fill: #ffffff"/>
  </g>
  <g id="axes_1">
   <g id="patch_2">
    <path d="M 47.81 134.647742 
L 438.84 134.647742 
L 438.84 10.8 
L 47.81 10.8 
z
" style="fill: #ffffff"/>
   </g>
   <g id="matplotlib.axis_1">
    <g id="xtick_1">
     <g id="line2d_1">
      <path d="M 47.81 134.647742 
L 47.81 10.8 
" clip-path="url(#pca8da38fe4)" style="fill: none; stroke: #b0b0b0; stroke-width: 0.8; stroke-linecap: square"/>
     </g>
     <g id="line2d_2">
      <defs>
       <path id="m6473e573c0" d="M 0 0 
L 0 3.5 
" style="stroke: #000000; stroke-width: 0.8"/>
      </defs>
      <g>
       <use xlink:href="#m6473e573c0" x="47.81" y="134.647742" style="stroke: #000000; stroke-width: 0.8"/>
      </g>
     </g>
     <g id="text_1">
      <!-- 0.00 -->
      <g transform="translate(36.677188 149.24618) scale(0.1 -0.1)">
       <defs>
        <path id="DejaVuSans-30" d="M 2034 4250 
Q 1547 4250 1301 3770 
Q 1056 3291 1056 2328 
Q 1056 1369 1301 889 
Q 1547 409 2034 409 
Q 2525 409 2770 889 
Q 3016 1369 3016 2328 
Q 3016 3291 2770 3770 
Q 2525 4250 2034 4250 
z
M 2034 4750 
Q 2819 4750 3233 4129 
Q 3647 3509 3647 2328 
Q 3647 1150 3233 529 
Q 2819 -91 2034 -91 
Q 1250 -91 836 529 
Q 422 1150 422 2328 
Q 422 3509 836 4129 
Q 1250 4750 2034 4750 
z
" transform="scale(0.015625)"/>
        <path id="DejaVuSans-2e" d="M 684 794 
L 1344 794 
L 1344 0 
L 684 0 
L 684 794 
z
" transform="scale(0.015625)"/>
       </defs>
       <use xlink:href="#DejaVuSans-30"/>
       <use xlink:href="#DejaVuSans-2e" x="63.623047"/>
       <use xlink:href="#DejaVuSans-30" x="95.410156"/>
       <use xlink:href="#DejaVuSans-30" x="159.033203"/>
      </g>
     </g>
    </g>
    <g id="xtick_2">
     <g id="line2d_3">
      <path d="M 96.68875 134.647742 
L 96.68875 10.8 
" clip-path="url(#pca8da38fe4)" style="fill: none; stroke: #b0b0b0; stroke-width: 0.8; stroke-linecap: square"/>
     </g>
     <g id="line2d_4">
      <g>
       <use xlink:href="#m6473e573c0" x="96.68875" y="134.647742" style="stroke: #000000; stroke-width: 0.8"/>
      </g>
     </g>
     <g id="text_2">
      <!-- 0.25 -->
      <g transform="translate(85.555937 149.24618) scale(0.1 -0.1)">
       <defs>
        <path id="DejaVuSans-32" d="M 1228 531 
L 3431 531 
L 3431 0 
L 469 0 
L 469 531 
Q 828 903 1448 1529 
Q 2069 2156 2228 2338 
Q 2531 2678 2651 2914 
Q 2772 3150 2772 3378 
Q 2772 3750 2511 3984 
Q 2250 4219 1831 4219 
Q 1534 4219 1204 4116 
Q 875 4013 500 3803 
L 500 4441 
Q 881 4594 1212 4672 
Q 1544 4750 1819 4750 
Q 2544 4750 2975 4387 
Q 3406 4025 3406 3419 
Q 3406 3131 3298 2873 
Q 3191 2616 2906 2266 
Q 2828 2175 2409 1742 
Q 1991 1309 1228 531 
z
" transform="scale(0.015625)"/>
        <path id="DejaVuSans-35" d="M 691 4666 
L 3169 4666 
L 3169 4134 
L 1269 4134 
L 1269 2991 
Q 1406 3038 1543 3061 
Q 1681 3084 1819 3084 
Q 2600 3084 3056 2656 
Q 3513 2228 3513 1497 
Q 3513 744 3044 326 
Q 2575 -91 1722 -91 
Q 1428 -91 1123 -41 
Q 819 9 494 109 
L 494 744 
Q 775 591 1075 516 
Q 1375 441 1709 441 
Q 2250 441 2565 725 
Q 2881 1009 2881 1497 
Q 2881 1984 2565 2268 
Q 2250 2553 1709 2553 
Q 1456 2553 1204 2497 
Q 953 2441 691 2322 
L 691 4666 
z
" transform="scale(0.015625)"/>
       </defs>
       <use xlink:href="#DejaVuSans-30"/>
       <use xlink:href="#DejaVuSans-2e" x="63.623047"/>
       <use xlink:href="#DejaVuSans-32" x="95.410156"/>
       <use xlink:href="#DejaVuSans-35" x="159.033203"/>
      </g>
     </g>
    </g>
    <g id="xtick_3">
     <g id="line2d_5">
      <path d="M 145.5675 134.647742 
L 145.5675 10.8 
" clip-path="url(#pca8da38fe4)" style="fill: none; stroke: #b0b0b0; stroke-width: 0.8; stroke-linecap: square"/>
     </g>
     <g id="line2d_6">
      <g>
       <use xlink:href="#m6473e573c0" x="145.5675" y="134.647742" style="stroke: #000000; stroke-width: 0.8"/>
      </g>
     </g>
     <g id="text_3">
      <!-- 0.50 -->
      <g transform="translate(134.434687 149.24618) scale(0.1 -0.1)">
       <use xlink:href="#DejaVuSans-30"/>
       <use xlink:href="#DejaVuSans-2e" x="63.623047"/>
       <use xlink:href="#DejaVuSans-35" x="95.410156"/>
       <use xlink:href="#DejaVuSans-30" x="159.033203"/>
      </g>
     </g>
    </g>
    <g id="xtick_4">
     <g id="line2d_7">
      <path d="M 194.44625 134.647742 
L 194.44625 10.8 
" clip-path="url(#pca8da38fe4)" style="fill: none; stroke: #b0b0b0; stroke-width: 0.8; stroke-linecap: square"/>
     </g>
     <g id="line2d_8">
      <g>
       <use xlink:href="#m6473e573c0" x="194.44625" y="134.647742" style="stroke: #000000; stroke-width: 0.8"/>
      </g>
     </g>
     <g id="text_4">
      <!-- 0.75 -->
      <g transform="translate(183.313437 149.24618) scale(0.1 -0.1)">
       <defs>
        <path id="DejaVuSans-37" d="M 525 4666 
L 3525 4666 
L 3525 4397 
L 1831 0 
L 1172 0 
L 2766 4134 
L 525 4134 
L 525 4666 
z
" transform="scale(0.015625)"/>
       </defs>
       <use xlink:href="#DejaVuSans-30"/>
       <use xlink:href="#DejaVuSans-2e" x="63.623047"/>
       <use xlink:href="#DejaVuSans-37" x="95.410156"/>
       <use xlink:href="#DejaVuSans-35" x="159.033203"/>
      </g>
     </g>
    </g>
    <g id="xtick_5">
     <g id="line2d_9">
      <path d="M 243.325 134.647742 
L 243.325 10.8 
" clip-path="url(#pca8da38fe4)" style="fill: none; stroke: #b0b0b0; stroke-width: 0.8; stroke-linecap: square"/>
     </g>
     <g id="line2d_10">
      <g>
       <use xlink:href="#m6473e573c0" x="243.325" y="134.647742" style="stroke: #000000; stroke-width: 0.8"/>
      </g>
     </g>
     <g id="text_5">
      <!-- 1.00 -->
      <g transform="translate(232.192187 149.24618) scale(0.1 -0.1)">
       <defs>
        <path id="DejaVuSans-31" d="M 794 531 
L 1825 531 
L 1825 4091 
L 703 3866 
L 703 4441 
L 1819 4666 
L 2450 4666 
L 2450 531 
L 3481 531 
L 3481 0 
L 794 0 
L 794 531 
z
" transform="scale(0.015625)"/>
       </defs>
       <use xlink:href="#DejaVuSans-31"/>
       <use xlink:href="#DejaVuSans-2e" x="63.623047"/>
       <use xlink:href="#DejaVuSans-30" x="95.410156"/>
       <use xlink:href="#DejaVuSans-30" x="159.033203"/>
      </g>
     </g>
    </g>
    <g id="xtick_6">
     <g id="line2d_11">
      <path d="M 292.20375 134.647742 
L 292.20375 10.8 
" clip-path="url(#pca8da38fe4)" style="fill: none; stroke: #b0b0b0; stroke-width: 0.8; stroke-linecap: square"/>
     </g>
     <g id="line2d_12">
      <g>
       <use xlink:href="#m6473e573c0" x="292.20375" y="134.647742" style="stroke: #000000; stroke-width: 0.8"/>
      </g>
     </g>
     <g id="text_6">
      <!-- 1.25 -->
      <g transform="translate(281.070938 149.24618) scale(0.1 -0.1)">
       <use xlink:href="#DejaVuSans-31"/>
       <use xlink:href="#DejaVuSans-2e" x="63.623047"/>
       <use xlink:href="#DejaVuSans-32" x="95.410156"/>
       <use xlink:href="#DejaVuSans-35" x="159.033203"/>
      </g>
     </g>
    </g>
    <g id="xtick_7">
     <g id="line2d_13">
      <path d="M 341.0825 134.647742 
L 341.0825 10.8 
" clip-path="url(#pca8da38fe4)" style="fill: none; stroke: #b0b0b0; stroke-width: 0.8; stroke-linecap: square"/>
     </g>
     <g id="line2d_14">
      <g>
       <use xlink:href="#m6473e573c0" x="341.0825" y="134.647742" style="stroke: #000000; stroke-width: 0.8"/>
      </g>
     </g>
     <g id="text_7">
      <!-- 1.50 -->
      <g transform="translate(329.949687 149.24618) scale(0.1 -0.1)">
       <use xlink:href="#DejaVuSans-31"/>
       <use xlink:href="#DejaVuSans-2e" x="63.623047"/>
       <use xlink:href="#DejaVuSans-35" x="95.410156"/>
       <use xlink:href="#DejaVuSans-30" x="159.033203"/>
      </g>
     </g>
    </g>
    <g id="xtick_8">
     <g id="line2d_15">
      <path d="M 389.96125 134.647742 
L 389.96125 10.8 
" clip-path="url(#pca8da38fe4)" style="fill: none; stroke: #b0b0b0; stroke-width: 0.8; stroke-linecap: square"/>
     </g>
     <g id="line2d_16">
      <g>
       <use xlink:href="#m6473e573c0" x="389.96125" y="134.647742" style="stroke: #000000; stroke-width: 0.8"/>
      </g>
     </g>
     <g id="text_8">
      <!-- 1.75 -->
      <g transform="translate(378.828438 149.24618) scale(0.1 -0.1)">
       <use xlink:href="#DejaVuSans-31"/>
       <use xlink:href="#DejaVuSans-2e" x="63.623047"/>
       <use xlink:href="#DejaVuSans-37" x="95.410156"/>
       <use xlink:href="#DejaVuSans-35" x="159.033203"/>
      </g>
     </g>
    </g>
    <g id="xtick_9">
     <g id="line2d_17">
      <path d="M 438.84 134.647742 
L 438.84 10.8 
" clip-path="url(#pca8da38fe4)" style="fill: none; stroke: #b0b0b0; stroke-width: 0.8; stroke-linecap: square"/>
     </g>
     <g id="line2d_18">
      <g>
       <use xlink:href="#m6473e573c0" x="438.84" y="134.647742" style="stroke: #000000; stroke-width: 0.8"/>
      </g>
     </g>
     <g id="text_9">
      <!-- 2.00 -->
      <g transform="translate(427.707187 149.24618) scale(0.1 -0.1)">
       <use xlink:href="#DejaVuSans-32"/>
       <use xlink:href="#DejaVuSans-2e" x="63.623047"/>
       <use xlink:href="#DejaVuSans-30" x="95.410156"/>
       <use xlink:href="#DejaVuSans-30" x="159.033203"/>
      </g>
     </g>
    </g>
    <g id="text_10">
     <!-- time -->
     <g transform="translate(232.028906 162.924305) scale(0.1 -0.1)">
      <defs>
       <path id="DejaVuSans-74" d="M 1172 4494 
L 1172 3500 
L 2356 3500 
L 2356 3053 
L 1172 3053 
L 1172 1153 
Q 1172 725 1289 603 
Q 1406 481 1766 481 
L 2356 481 
L 2356 0 
L 1766 0 
Q 1100 0 847 248 
Q 594 497 594 1153 
L 594 3053 
L 172 3053 
L 172 3500 
L 594 3500 
L 594 4494 
L 1172 4494 
z
" transform="scale(0.015625)"/>
       <path id="DejaVuSans-69" d="M 603 3500 
L 1178 3500 
L 1178 0 
L 603 0 
L 603 3500 
z
M 603 4863 
L 1178 4863 
L 1178 4134 
L 603 4134 
L 603 4863 
z
" transform="scale(0.015625)"/>
       <path id="DejaVuSans-6d" d="M 3328 2828 
Q 3544 3216 3844 3400 
Q 4144 3584 4550 3584 
Q 5097 3584 5394 3201 
Q 5691 2819 5691 2113 
L 5691 0 
L 5113 0 
L 5113 2094 
Q 5113 2597 4934 2840 
Q 4756 3084 4391 3084 
Q 3944 3084 3684 2787 
Q 3425 2491 3425 1978 
L 3425 0 
L 2847 0 
L 2847 2094 
Q 2847 2600 2669 2842 
Q 2491 3084 2119 3084 
Q 1678 3084 1418 2786 
Q 1159 2488 1159 1978 
L 1159 0 
L 581 0 
L 581 3500 
L 1159 3500 
L 1159 2956 
Q 1356 3278 1631 3431 
Q 1906 3584 2284 3584 
Q 2666 3584 2933 3390 
Q 3200 3197 3328 2828 
z
" transform="scale(0.015625)"/>
       <path id="DejaVuSans-65" d="M 3597 1894 
L 3597 1613 
L 953 1613 
Q 991 1019 1311 708 
Q 1631 397 2203 397 
Q 2534 397 2845 478 
Q 3156 559 3463 722 
L 3463 178 
Q 3153 47 2828 -22 
Q 2503 -91 2169 -91 
Q 1331 -91 842 396 
Q 353 884 353 1716 
Q 353 2575 817 3079 
Q 1281 3584 2069 3584 
Q 2775 3584 3186 3129 
Q 3597 2675 3597 1894 
z
M 3022 2063 
Q 3016 2534 2758 2815 
Q 2500 3097 2075 3097 
Q 1594 3097 1305 2825 
Q 1016 2553 972 2059 
L 3022 2063 
z
" transform="scale(0.015625)"/>
      </defs>
      <use xlink:href="#DejaVuSans-74"/>
      <use xlink:href="#DejaVuSans-69" x="39.208984"/>
      <use xlink:href="#DejaVuSans-6d" x="66.992188"/>
      <use xlink:href="#DejaVuSans-65" x="164.404297"/>
     </g>
    </g>
   </g>
   <g id="matplotlib.axis_2">
    <g id="ytick_1">
     <g id="line2d_19">
      <path d="M 47.81 126.530039 
L 438.84 126.530039 
" clip-path="url(#pca8da38fe4)" style="fill: none; stroke: #b0b0b0; stroke-width: 0.8; stroke-linecap: square"/>
     </g>
     <g id="line2d_20">
      <defs>
       <path id="mad19bf6d4b" d="M 0 0 
L -3.5 0 
" style="stroke: #000000; stroke-width: 0.8"/>
      </defs>
      <g>
       <use xlink:href="#mad19bf6d4b" x="47.81" y="126.530039" style="stroke: #000000; stroke-width: 0.8"/>
      </g>
     </g>
     <g id="text_11">
      <!-- −4 -->
      <g transform="translate(26.067813 130.329258) scale(0.1 -0.1)">
       <defs>
        <path id="DejaVuSans-2212" d="M 678 2272 
L 4684 2272 
L 4684 1741 
L 678 1741 
L 678 2272 
z
" transform="scale(0.015625)"/>
        <path id="DejaVuSans-34" d="M 2419 4116 
L 825 1625 
L 2419 1625 
L 2419 4116 
z
M 2253 4666 
L 3047 4666 
L 3047 1625 
L 3713 1625 
L 3713 1100 
L 3047 1100 
L 3047 0 
L 2419 0 
L 2419 1100 
L 313 1100 
L 313 1709 
L 2253 4666 
z
" transform="scale(0.015625)"/>
       </defs>
       <use xlink:href="#DejaVuSans-2212"/>
       <use xlink:href="#DejaVuSans-34" x="83.789062"/>
      </g>
     </g>
    </g>
    <g id="ytick_2">
     <g id="line2d_21">
      <path d="M 47.81 100.981535 
L 438.84 100.981535 
" clip-path="url(#pca8da38fe4)" style="fill: none; stroke: #b0b0b0; stroke-width: 0.8; stroke-linecap: square"/>
     </g>
     <g id="line2d_22">
      <g>
       <use xlink:href="#mad19bf6d4b" x="47.81" y="100.981535" style="stroke: #000000; stroke-width: 0.8"/>
      </g>
     </g>
     <g id="text_12">
      <!-- −2 -->
      <g transform="translate(26.067813 104.780754) scale(0.1 -0.1)">
       <use xlink:href="#DejaVuSans-2212"/>
       <use xlink:href="#DejaVuSans-32" x="83.789062"/>
      </g>
     </g>
    </g>
    <g id="ytick_3">
     <g id="line2d_23">
      <path d="M 47.81 75.433031 
L 438.84 75.433031 
" clip-path="url(#pca8da38fe4)" style="fill: none; stroke: #b0b0b0; stroke-width: 0.8; stroke-linecap: square"/>
     </g>
     <g id="line2d_24">
      <g>
       <use xlink:href="#mad19bf6d4b" x="47.81" y="75.433031" style="stroke: #000000; stroke-width: 0.8"/>
      </g>
     </g>
     <g id="text_13">
      <!-- 0 -->
      <g transform="translate(34.4475 79.23225) scale(0.1 -0.1)">
       <use xlink:href="#DejaVuSans-30"/>
      </g>
     </g>
    </g>
    <g id="ytick_4">
     <g id="line2d_25">
      <path d="M 47.81 49.884527 
L 438.84 49.884527 
" clip-path="url(#pca8da38fe4)" style="fill: none; stroke: #b0b0b0; stroke-width: 0.8; stroke-linecap: square"/>
     </g>
     <g id="line2d_26">
      <g>
       <use xlink:href="#mad19bf6d4b" x="47.81" y="49.884527" style="stroke: #000000; stroke-width: 0.8"/>
      </g>
     </g>
     <g id="text_14">
      <!-- 2 -->
      <g transform="translate(34.4475 53.683746) scale(0.1 -0.1)">
       <use xlink:href="#DejaVuSans-32"/>
      </g>
     </g>
    </g>
    <g id="ytick_5">
     <g id="line2d_27">
      <path d="M 47.81 24.336023 
L 438.84 24.336023 
" clip-path="url(#pca8da38fe4)" style="fill: none; stroke: #b0b0b0; stroke-width: 0.8; stroke-linecap: square"/>
     </g>
     <g id="line2d_28">
      <g>
       <use xlink:href="#mad19bf6d4b" x="47.81" y="24.336023" style="stroke: #000000; stroke-width: 0.8"/>
      </g>
     </g>
     <g id="text_15">
      <!-- 4 -->
      <g transform="translate(34.4475 28.135241) scale(0.1 -0.1)">
       <use xlink:href="#DejaVuSans-34"/>
      </g>
     </g>
    </g>
    <g id="text_16">
     <!-- s1 and s2 -->
     <g transform="translate(19.988125 96.880902) rotate(-90) scale(0.1 -0.1)">
      <defs>
       <path id="DejaVuSans-73" d="M 2834 3397 
L 2834 2853 
Q 2591 2978 2328 3040 
Q 2066 3103 1784 3103 
Q 1356 3103 1142 2972 
Q 928 2841 928 2578 
Q 928 2378 1081 2264 
Q 1234 2150 1697 2047 
L 1894 2003 
Q 2506 1872 2764 1633 
Q 3022 1394 3022 966 
Q 3022 478 2636 193 
Q 2250 -91 1575 -91 
Q 1294 -91 989 -36 
Q 684 19 347 128 
L 347 722 
Q 666 556 975 473 
Q 1284 391 1588 391 
Q 1994 391 2212 530 
Q 2431 669 2431 922 
Q 2431 1156 2273 1281 
Q 2116 1406 1581 1522 
L 1381 1569 
Q 847 1681 609 1914 
Q 372 2147 372 2553 
Q 372 3047 722 3315 
Q 1072 3584 1716 3584 
Q 2034 3584 2315 3537 
Q 2597 3491 2834 3397 
z
" transform="scale(0.015625)"/>
       <path id="DejaVuSans-20" transform="scale(0.015625)"/>
       <path id="DejaVuSans-61" d="M 2194 1759 
Q 1497 1759 1228 1600 
Q 959 1441 959 1056 
Q 959 750 1161 570 
Q 1363 391 1709 391 
Q 2188 391 2477 730 
Q 2766 1069 2766 1631 
L 2766 1759 
L 2194 1759 
z
M 3341 1997 
L 3341 0 
L 2766 0 
L 2766 531 
Q 2569 213 2275 61 
Q 1981 -91 1556 -91 
Q 1019 -91 701 211 
Q 384 513 384 1019 
Q 384 1609 779 1909 
Q 1175 2209 1959 2209 
L 2766 2209 
L 2766 2266 
Q 2766 2663 2505 2880 
Q 2244 3097 1772 3097 
Q 1472 3097 1187 3025 
Q 903 2953 641 2809 
L 641 3341 
Q 956 3463 1253 3523 
Q 1550 3584 1831 3584 
Q 2591 3584 2966 3190 
Q 3341 2797 3341 1997 
z
" transform="scale(0.015625)"/>
       <path id="DejaVuSans-6e" d="M 3513 2113 
L 3513 0 
L 2938 0 
L 2938 2094 
Q 2938 2591 2744 2837 
Q 2550 3084 2163 3084 
Q 1697 3084 1428 2787 
Q 1159 2491 1159 1978 
L 1159 0 
L 581 0 
L 581 3500 
L 1159 3500 
L 1159 2956 
Q 1366 3272 1645 3428 
Q 1925 3584 2291 3584 
Q 2894 3584 3203 3211 
Q 3513 2838 3513 2113 
z
" transform="scale(0.015625)"/>
       <path id="DejaVuSans-64" d="M 2906 2969 
L 2906 4863 
L 3481 4863 
L 3481 0 
L 2906 0 
L 2906 525 
Q 2725 213 2448 61 
Q 2172 -91 1784 -91 
Q 1150 -91 751 415 
Q 353 922 353 1747 
Q 353 2572 751 3078 
Q 1150 3584 1784 3584 
Q 2172 3584 2448 3432 
Q 2725 3281 2906 2969 
z
M 947 1747 
Q 947 1113 1208 752 
Q 1469 391 1925 391 
Q 2381 391 2643 752 
Q 2906 1113 2906 1747 
Q 2906 2381 2643 2742 
Q 2381 3103 1925 3103 
Q 1469 3103 1208 2742 
Q 947 2381 947 1747 
z
" transform="scale(0.015625)"/>
      </defs>
      <use xlink:href="#DejaVuSans-73"/>
      <use xlink:href="#DejaVuSans-31" x="52.099609"/>
      <use xlink:href="#DejaVuSans-20" x="115.722656"/>
      <use xlink:href="#DejaVuSans-61" x="147.509766"/>
      <use xlink:href="#DejaVuSans-6e" x="208.789062"/>
      <use xlink:href="#DejaVuSans-64" x="272.167969"/>
      <use xlink:href="#DejaVuSans-20" x="335.644531"/>
      <use xlink:href="#DejaVuSans-73" x="367.431641"/>
      <use xlink:href="#DejaVuSans-32" x="419.53125"/>
     </g>
    </g>
   </g>
   <g id="line2d_29">
    <path d="M 47.81 62.028953 
L 49.76515 56.860745 
L 51.7203 56.243663 
L 53.67545 41.209094 
L 55.6306 76.218684 
L 57.58575 81.544483 
L 59.5409 69.172372 
L 61.49605 75.206239 
L 63.4512 97.920841 
L 65.40635 98.748268 
L 67.3615 51.671433 
L 69.31665 71.863062 
L 71.2718 53.282132 
L 73.22695 63.009049 
L 75.1821 58.782444 
L 77.13725 57.530345 
L 79.0924 97.344544 
L 81.04755 66.430227 
L 83.0027 69.685832 
L 84.95785 80.361276 
L 86.913 87.758441 
L 88.86815 54.580677 
L 90.8233 68.790345 
L 92.77845 69.63688 
L 94.7336 68.679695 
L 96.68875 89.671272 
L 98.6439 98.615527 
L 100.59905 105.594889 
L 102.5542 70.836804 
L 104.50935 89.551484 
L 108.41965 61.931189 
L 110.3748 53.361236 
L 112.32995 87.359599 
L 114.2851 69.554347 
L 116.24025 82.066923 
L 118.1954 73.550643 
L 120.15055 70.377048 
L 122.1057 80.55297 
L 124.06085 85.867505 
L 126.016 66.986292 
L 127.97115 74.77622 
L 129.9263 69.440474 
L 131.88145 59.289186 
L 133.8366 107.803666 
L 135.79175 92.786559 
L 137.7469 84.763644 
L 139.70205 90.35404 
L 141.6572 88.001931 
L 143.61235 59.53727 
L 145.5675 70.931898 
L 147.52265 64.901549 
L 149.4778 44.39665 
L 151.43295 43.428891 
L 153.3881 82.111713 
L 155.34325 64.909748 
L 157.2984 74.443161 
L 159.25355 78.451461 
L 161.2087 103.304451 
L 163.16385 56.174353 
L 165.119 83.138709 
L 167.07415 47.31258 
L 169.0293 66.528452 
L 170.98445 82.648213 
L 172.9396 69.421995 
L 174.89475 69.104304 
L 176.8499 91.916621 
L 178.80505 82.535349 
L 180.7602 101.931116 
L 182.71535 104.856477 
L 184.6705 78.896197 
L 186.62565 66.822853 
L 188.5808 77.213949 
L 190.53595 61.846343 
L 192.4911 80.106609 
L 194.44625 74.791467 
L 196.4014 89.113563 
L 198.35655 70.54245 
L 202.26685 92.518745 
L 204.222 92.304964 
L 206.17715 63.680504 
L 208.1323 66.689718 
L 210.08745 55.15699 
L 212.0426 82.210154 
L 213.99775 72.053665 
L 215.9529 81.752784 
L 217.90805 102.862603 
L 219.8632 99.065197 
L 221.81835 83.521457 
L 223.7735 83.0614 
L 225.72865 67.724991 
L 227.6838 71.040316 
L 229.63895 54.068639 
L 231.5941 61.993714 
L 233.54925 64.874353 
L 235.5044 81.753389 
L 237.45955 116.481041 
L 239.4147 74.926313 
L 241.36985 99.213592 
L 243.325 93.160333 
L 245.28015 65.941685 
L 247.2353 62.342884 
L 249.19045 50.137399 
L 251.1456 76.360395 
L 253.10075 83.33864 
L 255.0559 85.362742 
L 257.01105 94.557256 
L 258.9662 66.813624 
L 260.92135 84.251494 
L 262.8765 93.700262 
L 264.83165 56.742151 
L 266.7868 65.222351 
L 268.74195 68.010074 
L 270.6971 67.745884 
L 272.65225 76.476278 
L 274.6074 68.985967 
L 276.56255 80.84004 
L 278.5177 65.333439 
L 280.47285 89.920435 
L 282.428 54.261395 
L 286.3383 64.367865 
L 288.29345 84.392225 
L 290.2486 59.703469 
L 292.20375 87.112901 
L 294.1589 78.472114 
L 296.11405 86.329071 
L 298.0692 75.828055 
L 300.02435 77.62429 
L 301.9795 66.640531 
L 303.93465 68.34235 
L 305.8898 56.353395 
L 307.84495 63.359208 
L 309.8001 85.319789 
L 311.75525 79.488234 
L 313.7104 112.664224 
L 315.66555 76.346418 
L 317.6207 96.344677 
L 319.57585 98.196974 
L 321.531 91.020081 
L 323.48615 78.796467 
L 325.4413 54.67747 
L 327.39645 55.16167 
L 329.3516 57.254502 
L 331.30675 73.108208 
L 333.2619 67.199955 
L 335.21705 100.315975 
L 337.1722 97.855604 
L 339.12735 59.523408 
L 341.0825 74.359404 
L 343.03765 73.880206 
L 344.9928 69.144713 
L 346.94795 71.251228 
L 348.9031 59.683424 
L 350.85825 99.085589 
L 352.8134 72.16848 
L 354.76855 73.608737 
L 356.7237 81.749653 
L 358.67885 79.452506 
L 360.634 99.918979 
L 362.58915 65.842323 
L 364.5443 51.5261 
L 366.49945 71.80794 
L 368.4546 68.520585 
L 370.40975 83.273497 
L 372.3649 87.731049 
L 374.32005 80.978534 
L 376.2752 80.697837 
L 378.23035 82.922068 
L 380.1855 76.80992 
L 382.14065 59.105849 
L 384.0958 44.368139 
L 386.05095 51.717471 
L 388.0061 47.100701 
L 389.96125 74.755746 
L 391.9164 104.375041 
L 393.87155 91.491581 
L 395.8267 89.645504 
L 397.78185 68.538788 
L 399.737 75.788266 
L 401.69215 67.553924 
L 403.6473 74.000103 
L 405.60245 76.027707 
L 407.5576 65.40986 
L 409.51275 95.450577 
L 411.4679 81.960321 
L 413.42305 84.650455 
L 415.3782 72.7068 
L 417.33335 82.768322 
L 419.2885 89.889654 
L 421.24365 76.847583 
L 423.1988 79.677544 
L 425.15395 76.49707 
L 427.1091 56.954987 
L 429.06425 89.850121 
L 431.0194 77.511255 
L 432.97455 74.601621 
L 434.9297 127.675656 
L 436.88485 89.226871 
L 438.84 54.864538 
L 440.79515 61.869804 
L 440.79515 61.869804 
" clip-path="url(#pca8da38fe4)" style="fill: none; stroke: #1f77b4; stroke-width: 1.5; stroke-linecap: square"/>
   </g>
   <g id="line2d_30">
    <path d="M 47.81 54.796727 
L 49.76515 66.970743 
L 51.7203 75.082682 
L 53.67545 71.222204 
L 55.6306 80.279729 
L 57.58575 98.082831 
L 59.5409 65.789245 
L 61.49605 82.461773 
L 63.4512 84.564336 
L 65.40635 85.527647 
L 67.3615 69.076195 
L 69.31665 69.269374 
L 71.2718 75.881834 
L 73.22695 55.397135 
L 75.1821 60.859418 
L 77.13725 100.493986 
L 79.0924 66.555433 
L 81.04755 84.726455 
L 83.0027 77.935241 
L 84.95785 106.094188 
L 86.913 83.160071 
L 88.86815 61.635144 
L 90.8233 76.961253 
L 92.77845 58.054602 
L 94.7336 83.645233 
L 96.68875 59.801337 
L 98.6439 86.592589 
L 100.59905 86.382007 
L 102.5542 92.897026 
L 104.50935 86.199017 
L 106.4645 52.00872 
L 108.41965 72.905695 
L 110.3748 66.711815 
L 112.32995 66.594726 
L 114.2851 48.888109 
L 116.24025 72.062237 
L 118.1954 77.359021 
L 120.15055 70.121111 
L 122.1057 91.026381 
L 124.06085 95.117425 
L 126.016 86.36784 
L 127.97115 80.892691 
L 129.9263 76.579645 
L 131.88145 38.95354 
L 133.8366 64.625632 
L 135.79175 80.983127 
L 137.7469 86.044309 
L 139.70205 87.753109 
L 141.6572 92.265481 
L 143.61235 85.88581 
L 145.5675 60.794764 
L 147.52265 62.213555 
L 149.4778 49.117621 
L 153.3881 44.046638 
L 155.34325 65.045514 
L 157.2984 101.088296 
L 159.25355 96.609397 
L 161.2087 83.914618 
L 163.16385 73.851231 
L 165.119 66.205513 
L 167.07415 79.402082 
L 169.0293 65.439701 
L 170.98445 70.703175 
L 172.9396 65.403468 
L 174.89475 78.636391 
L 176.8499 93.459696 
L 178.80505 102.308079 
L 184.6705 81.334174 
L 186.62565 96.122002 
L 188.5808 92.555998 
L 190.53595 70.962819 
L 192.4911 87.465947 
L 194.44625 74.086537 
L 196.4014 92.75799 
L 200.3117 75.79724 
L 202.26685 85.420699 
L 204.222 79.055492 
L 206.17715 73.40248 
L 208.1323 66.182174 
L 210.08745 65.698597 
L 212.0426 70.135629 
L 213.99775 78.936918 
L 215.9529 65.981401 
L 217.90805 99.931109 
L 219.8632 76.287865 
L 221.81835 90.610441 
L 223.7735 83.890134 
L 225.72865 54.873805 
L 227.6838 64.825483 
L 229.63895 75.807108 
L 231.5941 66.092653 
L 233.54925 86.095398 
L 235.5044 75.315383 
L 237.45955 66.84323 
L 239.4147 74.308345 
L 241.36985 90.91551 
L 243.325 94.199918 
L 245.28015 69.703854 
L 247.2353 63.987667 
L 249.19045 50.885625 
L 251.1456 68.605057 
L 253.10075 99.777331 
L 255.0559 78.139404 
L 257.01105 91.202744 
L 258.9662 82.041546 
L 260.92135 71.150773 
L 262.8765 70.181188 
L 264.83165 69.986275 
L 266.7868 51.460474 
L 268.74195 65.120724 
L 270.6971 70.510348 
L 272.65225 91.375114 
L 274.6074 74.557835 
L 276.56255 91.806848 
L 278.5177 105.96934 
L 280.47285 103.268635 
L 282.428 89.932286 
L 284.38315 92.845445 
L 286.3383 65.897428 
L 288.29345 76.095356 
L 290.2486 52.92261 
L 292.20375 79.025566 
L 294.1589 92.146031 
L 296.11405 88.036714 
L 298.0692 68.379647 
L 300.02435 74.373234 
L 301.9795 90.121678 
L 303.93465 70.940969 
L 305.8898 45.91635 
L 307.84495 76.219256 
L 309.8001 91.123239 
L 311.75525 72.463981 
L 313.7104 55.151543 
L 315.66555 103.650464 
L 317.6207 113.399793 
L 319.57585 59.045596 
L 321.531 61.943024 
L 323.48615 56.962089 
L 325.4413 64.196141 
L 327.39645 55.211251 
L 329.3516 72.475676 
L 331.30675 87.405006 
L 333.2619 77.133603 
L 335.21705 95.055445 
L 337.1722 108.787616 
L 339.12735 84.431247 
L 341.0825 98.140183 
L 343.03765 63.0633 
L 346.94795 47.509275 
L 348.9031 56.415533 
L 350.85825 105.725271 
L 352.8134 75.844168 
L 354.76855 82.869264 
L 356.7237 91.255024 
L 358.67885 52.467729 
L 360.634 77.262019 
L 362.58915 50.05548 
L 364.5443 54.1491 
L 366.49945 48.765306 
L 368.4546 76.460497 
L 370.40975 90.796615 
L 372.3649 66.958827 
L 374.32005 81.603981 
L 376.2752 76.999967 
L 378.23035 75.063565 
L 380.1855 78.738951 
L 382.14065 58.637608 
L 384.0958 61.748648 
L 386.05095 55.771161 
L 388.0061 65.741803 
L 389.96125 96.387519 
L 391.9164 90.674017 
L 393.87155 88.456093 
L 395.8267 93.075942 
L 397.78185 74.544843 
L 399.737 94.444976 
L 401.69215 66.214174 
L 405.60245 57.946185 
L 407.5576 67.515153 
L 409.51275 76.476979 
L 411.4679 80.847194 
L 413.42305 99.565319 
L 415.3782 91.012498 
L 417.33335 102.987348 
L 419.2885 73.100229 
L 421.24365 85.212083 
L 423.1988 79.119764 
L 425.15395 63.828617 
L 427.1091 54.717976 
L 429.06425 78.57754 
L 431.0194 76.818692 
L 432.97455 85.341598 
L 434.9297 101.608884 
L 436.88485 98.534144 
L 438.84 54.630775 
L 440.79515 80.702482 
L 440.79515 80.702482 
" clip-path="url(#pca8da38fe4)" style="fill: none; stroke: #ff7f0e; stroke-width: 1.5; stroke-linecap: square"/>
   </g>
   <g id="patch_3">
    <path d="M 47.81 134.647742 
L 47.81 10.8 
" style="fill: none; stroke: #000000; stroke-width: 0.8; stroke-linejoin: miter; stroke-linecap: square"/>
   </g>
   <g id="patch_4">
    <path d="M 438.84 134.647742 
L 438.84 10.8 
" style="fill: none; stroke: #000000; stroke-width: 0.8; stroke-linejoin: miter; stroke-linecap: square"/>
   </g>
   <g id="patch_5">
    <path d="M 47.81 134.647742 
L 438.84 134.647742 
" style="fill: none; stroke: #000000; stroke-width: 0.8; stroke-linejoin: miter; stroke-linecap: square"/>
   </g>
   <g id="patch_6">
    <path d="M 47.81 10.8 
L 438.84 10.8 
" style="fill: none; stroke: #000000; stroke-width: 0.8; stroke-linejoin: miter; stroke-linecap: square"/>
   </g>
  </g>
  <g id="axes_2">
   <g id="patch_7">
    <path d="M 47.81 303.64 
L 438.84 303.64 
L 438.84 179.792258 
L 47.81 179.792258 
z
" style="fill: #ffffff"/>
   </g>
   <g id="matplotlib.axis_3">
    <g id="xtick_10">
     <g id="line2d_31">
      <path d="M 65.584091 303.64 
L 65.584091 179.792258 
" clip-path="url(#paa74ef1ed0)" style="fill: none; stroke: #b0b0b0; stroke-width: 0.8; stroke-linecap: square"/>
     </g>
     <g id="line2d_32">
      <g>
       <use xlink:href="#m6473e573c0" x="65.584091" y="303.64" style="stroke: #000000; stroke-width: 0.8"/>
      </g>
     </g>
     <g id="text_17">
      <!-- 0 -->
      <g transform="translate(62.402841 318.238437) scale(0.1 -0.1)">
       <use xlink:href="#DejaVuSans-30"/>
      </g>
     </g>
    </g>
    <g id="xtick_11">
     <g id="line2d_33">
      <path d="M 136.680455 303.64 
L 136.680455 179.792258 
" clip-path="url(#paa74ef1ed0)" style="fill: none; stroke: #b0b0b0; stroke-width: 0.8; stroke-linecap: square"/>
     </g>
     <g id="line2d_34">
      <g>
       <use xlink:href="#m6473e573c0" x="136.680455" y="303.64" style="stroke: #000000; stroke-width: 0.8"/>
      </g>
     </g>
     <g id="text_18">
      <!-- 10 -->
      <g transform="translate(130.317955 318.238437) scale(0.1 -0.1)">
       <use xlink:href="#DejaVuSans-31"/>
       <use xlink:href="#DejaVuSans-30" x="63.623047"/>
      </g>
     </g>
    </g>
    <g id="xtick_12">
     <g id="line2d_35">
      <path d="M 207.776818 303.64 
L 207.776818 179.792258 
" clip-path="url(#paa74ef1ed0)" style="fill: none; stroke: #b0b0b0; stroke-width: 0.8; stroke-linecap: square"/>
     </g>
     <g id="line2d_36">
      <g>
       <use xlink:href="#m6473e573c0" x="207.776818" y="303.64" style="stroke: #000000; stroke-width: 0.8"/>
      </g>
     </g>
     <g id="text_19">
      <!-- 20 -->
      <g transform="translate(201.414318 318.238437) scale(0.1 -0.1)">
       <use xlink:href="#DejaVuSans-32"/>
       <use xlink:href="#DejaVuSans-30" x="63.623047"/>
      </g>
     </g>
    </g>
    <g id="xtick_13">
     <g id="line2d_37">
      <path d="M 278.873182 303.64 
L 278.873182 179.792258 
" clip-path="url(#paa74ef1ed0)" style="fill: none; stroke: #b0b0b0; stroke-width: 0.8; stroke-linecap: square"/>
     </g>
     <g id="line2d_38">
      <g>
       <use xlink:href="#m6473e573c0" x="278.873182" y="303.64" style="stroke: #000000; stroke-width: 0.8"/>
      </g>
     </g>
     <g id="text_20">
      <!-- 30 -->
      <g transform="translate(272.510682 318.238437) scale(0.1 -0.1)">
       <defs>
        <path id="DejaVuSans-33" d="M 2597 2516 
Q 3050 2419 3304 2112 
Q 3559 1806 3559 1356 
Q 3559 666 3084 287 
Q 2609 -91 1734 -91 
Q 1441 -91 1130 -33 
Q 819 25 488 141 
L 488 750 
Q 750 597 1062 519 
Q 1375 441 1716 441 
Q 2309 441 2620 675 
Q 2931 909 2931 1356 
Q 2931 1769 2642 2001 
Q 2353 2234 1838 2234 
L 1294 2234 
L 1294 2753 
L 1863 2753 
Q 2328 2753 2575 2939 
Q 2822 3125 2822 3475 
Q 2822 3834 2567 4026 
Q 2313 4219 1838 4219 
Q 1578 4219 1281 4162 
Q 984 4106 628 3988 
L 628 4550 
Q 988 4650 1302 4700 
Q 1616 4750 1894 4750 
Q 2613 4750 3031 4423 
Q 3450 4097 3450 3541 
Q 3450 3153 3228 2886 
Q 3006 2619 2597 2516 
z
" transform="scale(0.015625)"/>
       </defs>
       <use xlink:href="#DejaVuSans-33"/>
       <use xlink:href="#DejaVuSans-30" x="63.623047"/>
      </g>
     </g>
    </g>
    <g id="xtick_14">
     <g id="line2d_39">
      <path d="M 349.969545 303.64 
L 349.969545 179.792258 
" clip-path="url(#paa74ef1ed0)" style="fill: none; stroke: #b0b0b0; stroke-width: 0.8; stroke-linecap: square"/>
     </g>
     <g id="line2d_40">
      <g>
       <use xlink:href="#m6473e573c0" x="349.969545" y="303.64" style="stroke: #000000; stroke-width: 0.8"/>
      </g>
     </g>
     <g id="text_21">
      <!-- 40 -->
      <g transform="translate(343.607045 318.238437) scale(0.1 -0.1)">
       <use xlink:href="#DejaVuSans-34"/>
       <use xlink:href="#DejaVuSans-30" x="63.623047"/>
      </g>
     </g>
    </g>
    <g id="xtick_15">
     <g id="line2d_41">
      <path d="M 421.065909 303.64 
L 421.065909 179.792258 
" clip-path="url(#paa74ef1ed0)" style="fill: none; stroke: #b0b0b0; stroke-width: 0.8; stroke-linecap: square"/>
     </g>
     <g id="line2d_42">
      <g>
       <use xlink:href="#m6473e573c0" x="421.065909" y="303.64" style="stroke: #000000; stroke-width: 0.8"/>
      </g>
     </g>
     <g id="text_22">
      <!-- 50 -->
      <g transform="translate(414.703409 318.238437) scale(0.1 -0.1)">
       <use xlink:href="#DejaVuSans-35"/>
       <use xlink:href="#DejaVuSans-30" x="63.623047"/>
      </g>
     </g>
    </g>
    <g id="text_23">
     <!-- Frequency -->
     <g transform="translate(217.495312 331.916562) scale(0.1 -0.1)">
      <defs>
       <path id="DejaVuSans-46" d="M 628 4666 
L 3309 4666 
L 3309 4134 
L 1259 4134 
L 1259 2759 
L 3109 2759 
L 3109 2228 
L 1259 2228 
L 1259 0 
L 628 0 
L 628 4666 
z
" transform="scale(0.015625)"/>
       <path id="DejaVuSans-72" d="M 2631 2963 
Q 2534 3019 2420 3045 
Q 2306 3072 2169 3072 
Q 1681 3072 1420 2755 
Q 1159 2438 1159 1844 
L 1159 0 
L 581 0 
L 581 3500 
L 1159 3500 
L 1159 2956 
Q 1341 3275 1631 3429 
Q 1922 3584 2338 3584 
Q 2397 3584 2469 3576 
Q 2541 3569 2628 3553 
L 2631 2963 
z
" transform="scale(0.015625)"/>
       <path id="DejaVuSans-71" d="M 947 1747 
Q 947 1113 1208 752 
Q 1469 391 1925 391 
Q 2381 391 2643 752 
Q 2906 1113 2906 1747 
Q 2906 2381 2643 2742 
Q 2381 3103 1925 3103 
Q 1469 3103 1208 2742 
Q 947 2381 947 1747 
z
M 2906 525 
Q 2725 213 2448 61 
Q 2172 -91 1784 -91 
Q 1150 -91 751 415 
Q 353 922 353 1747 
Q 353 2572 751 3078 
Q 1150 3584 1784 3584 
Q 2172 3584 2448 3432 
Q 2725 3281 2906 2969 
L 2906 3500 
L 3481 3500 
L 3481 -1331 
L 2906 -1331 
L 2906 525 
z
" transform="scale(0.015625)"/>
       <path id="DejaVuSans-75" d="M 544 1381 
L 544 3500 
L 1119 3500 
L 1119 1403 
Q 1119 906 1312 657 
Q 1506 409 1894 409 
Q 2359 409 2629 706 
Q 2900 1003 2900 1516 
L 2900 3500 
L 3475 3500 
L 3475 0 
L 2900 0 
L 2900 538 
Q 2691 219 2414 64 
Q 2138 -91 1772 -91 
Q 1169 -91 856 284 
Q 544 659 544 1381 
z
M 1991 3584 
L 1991 3584 
z
" transform="scale(0.015625)"/>
       <path id="DejaVuSans-63" d="M 3122 3366 
L 3122 2828 
Q 2878 2963 2633 3030 
Q 2388 3097 2138 3097 
Q 1578 3097 1268 2742 
Q 959 2388 959 1747 
Q 959 1106 1268 751 
Q 1578 397 2138 397 
Q 2388 397 2633 464 
Q 2878 531 3122 666 
L 3122 134 
Q 2881 22 2623 -34 
Q 2366 -91 2075 -91 
Q 1284 -91 818 406 
Q 353 903 353 1747 
Q 353 2603 823 3093 
Q 1294 3584 2113 3584 
Q 2378 3584 2631 3529 
Q 2884 3475 3122 3366 
z
" transform="scale(0.015625)"/>
       <path id="DejaVuSans-79" d="M 2059 -325 
Q 1816 -950 1584 -1140 
Q 1353 -1331 966 -1331 
L 506 -1331 
L 506 -850 
L 844 -850 
Q 1081 -850 1212 -737 
Q 1344 -625 1503 -206 
L 1606 56 
L 191 3500 
L 800 3500 
L 1894 763 
L 2988 3500 
L 3597 3500 
L 2059 -325 
z
" transform="scale(0.015625)"/>
      </defs>
      <use xlink:href="#DejaVuSans-46"/>
      <use xlink:href="#DejaVuSans-72" x="50.269531"/>
      <use xlink:href="#DejaVuSans-65" x="89.132812"/>
      <use xlink:href="#DejaVuSans-71" x="150.65625"/>
      <use xlink:href="#DejaVuSans-75" x="214.132812"/>
      <use xlink:href="#DejaVuSans-65" x="277.511719"/>
      <use xlink:href="#DejaVuSans-6e" x="339.035156"/>
      <use xlink:href="#DejaVuSans-63" x="402.414062"/>
      <use xlink:href="#DejaVuSans-79" x="457.394531"/>
     </g>
    </g>
   </g>
   <g id="matplotlib.axis_4">
    <g id="ytick_6">
     <g id="line2d_43">
      <path d="M 47.81 298.045662 
L 438.84 298.045662 
" clip-path="url(#paa74ef1ed0)" style="fill: none; stroke: #b0b0b0; stroke-width: 0.8; stroke-linecap: square"/>
     </g>
     <g id="line2d_44">
      <g>
       <use xlink:href="#mad19bf6d4b" x="47.81" y="298.045662" style="stroke: #000000; stroke-width: 0.8"/>
      </g>
     </g>
     <g id="text_24">
      <!-- 0.0 -->
      <g transform="translate(24.906875 301.844881) scale(0.1 -0.1)">
       <use xlink:href="#DejaVuSans-30"/>
       <use xlink:href="#DejaVuSans-2e" x="63.623047"/>
       <use xlink:href="#DejaVuSans-30" x="95.410156"/>
      </g>
     </g>
    </g>
    <g id="ytick_7">
     <g id="line2d_45">
      <path d="M 47.81 274.553781 
L 438.84 274.553781 
" clip-path="url(#paa74ef1ed0)" style="fill: none; stroke: #b0b0b0; stroke-width: 0.8; stroke-linecap: square"/>
     </g>
     <g id="line2d_46">
      <g>
       <use xlink:href="#mad19bf6d4b" x="47.81" y="274.553781" style="stroke: #000000; stroke-width: 0.8"/>
      </g>
     </g>
     <g id="text_25">
      <!-- 0.2 -->
      <g transform="translate(24.906875 278.353) scale(0.1 -0.1)">
       <use xlink:href="#DejaVuSans-30"/>
       <use xlink:href="#DejaVuSans-2e" x="63.623047"/>
       <use xlink:href="#DejaVuSans-32" x="95.410156"/>
      </g>
     </g>
    </g>
    <g id="ytick_8">
     <g id="line2d_47">
      <path d="M 47.81 251.0619 
L 438.84 251.0619 
" clip-path="url(#paa74ef1ed0)" style="fill: none; stroke: #b0b0b0; stroke-width: 0.8; stroke-linecap: square"/>
     </g>
     <g id="line2d_48">
      <g>
       <use xlink:href="#mad19bf6d4b" x="47.81" y="251.0619" style="stroke: #000000; stroke-width: 0.8"/>
      </g>
     </g>
     <g id="text_26">
      <!-- 0.4 -->
      <g transform="translate(24.906875 254.861119) scale(0.1 -0.1)">
       <use xlink:href="#DejaVuSans-30"/>
       <use xlink:href="#DejaVuSans-2e" x="63.623047"/>
       <use xlink:href="#DejaVuSans-34" x="95.410156"/>
      </g>
     </g>
    </g>
    <g id="ytick_9">
     <g id="line2d_49">
      <path d="M 47.81 227.570018 
L 438.84 227.570018 
" clip-path="url(#paa74ef1ed0)" style="fill: none; stroke: #b0b0b0; stroke-width: 0.8; stroke-linecap: square"/>
     </g>
     <g id="line2d_50">
      <g>
       <use xlink:href="#mad19bf6d4b" x="47.81" y="227.570018" style="stroke: #000000; stroke-width: 0.8"/>
      </g>
     </g>
     <g id="text_27">
      <!-- 0.6 -->
      <g transform="translate(24.906875 231.369237) scale(0.1 -0.1)">
       <defs>
        <path id="DejaVuSans-36" d="M 2113 2584 
Q 1688 2584 1439 2293 
Q 1191 2003 1191 1497 
Q 1191 994 1439 701 
Q 1688 409 2113 409 
Q 2538 409 2786 701 
Q 3034 994 3034 1497 
Q 3034 2003 2786 2293 
Q 2538 2584 2113 2584 
z
M 3366 4563 
L 3366 3988 
Q 3128 4100 2886 4159 
Q 2644 4219 2406 4219 
Q 1781 4219 1451 3797 
Q 1122 3375 1075 2522 
Q 1259 2794 1537 2939 
Q 1816 3084 2150 3084 
Q 2853 3084 3261 2657 
Q 3669 2231 3669 1497 
Q 3669 778 3244 343 
Q 2819 -91 2113 -91 
Q 1303 -91 875 529 
Q 447 1150 447 2328 
Q 447 3434 972 4092 
Q 1497 4750 2381 4750 
Q 2619 4750 2861 4703 
Q 3103 4656 3366 4563 
z
" transform="scale(0.015625)"/>
       </defs>
       <use xlink:href="#DejaVuSans-30"/>
       <use xlink:href="#DejaVuSans-2e" x="63.623047"/>
       <use xlink:href="#DejaVuSans-36" x="95.410156"/>
      </g>
     </g>
    </g>
    <g id="ytick_10">
     <g id="line2d_51">
      <path d="M 47.81 204.078137 
L 438.84 204.078137 
" clip-path="url(#paa74ef1ed0)" style="fill: none; stroke: #b0b0b0; stroke-width: 0.8; stroke-linecap: square"/>
     </g>
     <g id="line2d_52">
      <g>
       <use xlink:href="#mad19bf6d4b" x="47.81" y="204.078137" style="stroke: #000000; stroke-width: 0.8"/>
      </g>
     </g>
     <g id="text_28">
      <!-- 0.8 -->
      <g transform="translate(24.906875 207.877356) scale(0.1 -0.1)">
       <defs>
        <path id="DejaVuSans-38" d="M 2034 2216 
Q 1584 2216 1326 1975 
Q 1069 1734 1069 1313 
Q 1069 891 1326 650 
Q 1584 409 2034 409 
Q 2484 409 2743 651 
Q 3003 894 3003 1313 
Q 3003 1734 2745 1975 
Q 2488 2216 2034 2216 
z
M 1403 2484 
Q 997 2584 770 2862 
Q 544 3141 544 3541 
Q 544 4100 942 4425 
Q 1341 4750 2034 4750 
Q 2731 4750 3128 4425 
Q 3525 4100 3525 3541 
Q 3525 3141 3298 2862 
Q 3072 2584 2669 2484 
Q 3125 2378 3379 2068 
Q 3634 1759 3634 1313 
Q 3634 634 3220 271 
Q 2806 -91 2034 -91 
Q 1263 -91 848 271 
Q 434 634 434 1313 
Q 434 1759 690 2068 
Q 947 2378 1403 2484 
z
M 1172 3481 
Q 1172 3119 1398 2916 
Q 1625 2713 2034 2713 
Q 2441 2713 2670 2916 
Q 2900 3119 2900 3481 
Q 2900 3844 2670 4047 
Q 2441 4250 2034 4250 
Q 1625 4250 1398 4047 
Q 1172 3844 1172 3481 
z
" transform="scale(0.015625)"/>
       </defs>
       <use xlink:href="#DejaVuSans-30"/>
       <use xlink:href="#DejaVuSans-2e" x="63.623047"/>
       <use xlink:href="#DejaVuSans-38" x="95.410156"/>
      </g>
     </g>
    </g>
    <g id="ytick_11">
     <g id="line2d_53">
      <path d="M 47.81 180.586256 
L 438.84 180.586256 
" clip-path="url(#paa74ef1ed0)" style="fill: none; stroke: #b0b0b0; stroke-width: 0.8; stroke-linecap: square"/>
     </g>
     <g id="line2d_54">
      <g>
       <use xlink:href="#mad19bf6d4b" x="47.81" y="180.586256" style="stroke: #000000; stroke-width: 0.8"/>
      </g>
     </g>
     <g id="text_29">
      <!-- 1.0 -->
      <g transform="translate(24.906875 184.385474) scale(0.1 -0.1)">
       <use xlink:href="#DejaVuSans-31"/>
       <use xlink:href="#DejaVuSans-2e" x="63.623047"/>
       <use xlink:href="#DejaVuSans-30" x="95.410156"/>
      </g>
     </g>
    </g>
    <g id="text_30">
     <!-- coherence -->
     <g transform="translate(18.827187 267.784098) rotate(-90) scale(0.1 -0.1)">
      <defs>
       <path id="DejaVuSans-6f" d="M 1959 3097 
Q 1497 3097 1228 2736 
Q 959 2375 959 1747 
Q 959 1119 1226 758 
Q 1494 397 1959 397 
Q 2419 397 2687 759 
Q 2956 1122 2956 1747 
Q 2956 2369 2687 2733 
Q 2419 3097 1959 3097 
z
M 1959 3584 
Q 2709 3584 3137 3096 
Q 3566 2609 3566 1747 
Q 3566 888 3137 398 
Q 2709 -91 1959 -91 
Q 1206 -91 779 398 
Q 353 888 353 1747 
Q 353 2609 779 3096 
Q 1206 3584 1959 3584 
z
" transform="scale(0.015625)"/>
       <path id="DejaVuSans-68" d="M 3513 2113 
L 3513 0 
L 2938 0 
L 2938 2094 
Q 2938 2591 2744 2837 
Q 2550 3084 2163 3084 
Q 1697 3084 1428 2787 
Q 1159 2491 1159 1978 
L 1159 0 
L 581 0 
L 581 4863 
L 1159 4863 
L 1159 2956 
Q 1366 3272 1645 3428 
Q 1925 3584 2291 3584 
Q 2894 3584 3203 3211 
Q 3513 2838 3513 2113 
z
" transform="scale(0.015625)"/>
      </defs>
      <use xlink:href="#DejaVuSans-63"/>
      <use xlink:href="#DejaVuSans-6f" x="54.980469"/>
      <use xlink:href="#DejaVuSans-68" x="116.162109"/>
      <use xlink:href="#DejaVuSans-65" x="179.541016"/>
      <use xlink:href="#DejaVuSans-72" x="241.064453"/>
      <use xlink:href="#DejaVuSans-65" x="279.927734"/>
      <use xlink:href="#DejaVuSans-6e" x="341.451172"/>
      <use xlink:href="#DejaVuSans-63" x="404.830078"/>
      <use xlink:href="#DejaVuSans-65" x="459.810547"/>
     </g>
    </g>
   </g>
   <g id="line2d_55">
    <path d="M 65.584091 291.117308 
L 68.361293 287.248666 
L 71.138494 296.038834 
L 73.915696 281.19051 
L 76.692898 293.303701 
L 79.470099 271.152114 
L 85.024503 298.010557 
L 87.801705 297.692526 
L 90.578906 295.875832 
L 93.356108 289.188703 
L 96.13331 285.114011 
L 98.910511 295.897972 
L 101.687713 294.600783 
L 104.464915 268.001869 
L 107.242116 282.621312 
L 110.019318 290.370097 
L 112.79652 263.765681 
L 115.573722 283.459512 
L 118.350923 286.640897 
L 121.128125 270.626173 
L 123.905327 290.750193 
L 126.682528 291.762734 
L 129.45973 295.929426 
L 132.236932 245.977904 
L 135.014134 187.129001 
L 137.791335 185.421701 
L 140.568537 221.625161 
L 143.345739 297.863686 
L 146.12294 285.149072 
L 148.900142 281.638944 
L 151.677344 272.981428 
L 154.454545 261.740801 
L 157.231747 283.101294 
L 160.008949 296.120911 
L 162.786151 277.360021 
L 165.563352 297.041741 
L 168.340554 296.830787 
L 171.117756 286.699807 
L 173.894957 289.738489 
L 176.672159 293.440608 
L 179.449361 294.721207 
L 182.226562 270.542502 
L 185.003764 267.327387 
L 187.780966 288.445264 
L 190.558168 289.701711 
L 193.335369 293.792588 
L 196.112571 292.611303 
L 198.889773 292.532682 
L 201.666974 296.002625 
L 204.444176 282.319247 
L 207.221378 269.629181 
L 209.99858 284.972932 
L 212.775781 279.713352 
L 215.552983 287.546848 
L 218.330185 297.90629 
L 221.107386 297.678495 
L 223.884588 296.072107 
L 226.66179 266.282611 
L 229.438991 296.076699 
L 232.216193 291.03046 
L 234.993395 289.277358 
L 237.770597 293.851433 
L 240.547798 293.83364 
L 243.325 290.699335 
L 246.102202 292.127053 
L 248.879403 295.153885 
L 251.656605 296.037155 
L 254.433807 296.594905 
L 257.211009 285.654636 
L 259.98821 296.910048 
L 262.765412 291.817127 
L 265.542614 281.759917 
L 268.319815 292.294477 
L 271.097017 280.642567 
L 273.874219 286.419647 
L 276.65142 294.639065 
L 279.428622 297.062875 
L 282.205824 286.056718 
L 284.983026 292.400181 
L 287.760227 292.00881 
L 290.537429 296.307574 
L 293.314631 284.944082 
L 296.091832 295.484669 
L 301.646236 291.263654 
L 304.423437 284.145609 
L 307.200639 290.367891 
L 309.977841 281.587903 
L 312.755043 259.062157 
L 315.532244 288.543717 
L 318.309446 295.930418 
L 321.086648 289.136428 
L 323.863849 296.734805 
L 326.641051 296.532303 
L 329.418253 294.868688 
L 332.195455 289.195318 
L 334.972656 285.452478 
L 337.749858 297.989928 
L 340.52706 268.426536 
L 343.304261 284.469402 
L 346.081463 284.566085 
L 348.858665 295.175885 
L 351.635866 289.365075 
L 354.413068 293.296541 
L 357.19027 285.973552 
L 359.967472 295.772208 
L 362.744673 291.398714 
L 365.521875 296.783874 
L 368.299077 287.183753 
L 371.076278 255.632762 
L 373.85348 293.963848 
L 376.630682 294.683763 
L 379.407884 294.43432 
L 382.185085 270.858843 
L 384.962287 275.885711 
L 387.739489 295.332249 
L 390.51669 296.517887 
L 393.293892 290.070747 
L 396.071094 290.46369 
L 398.848295 293.301531 
L 401.625497 295.731879 
L 404.402699 265.932158 
L 407.179901 256.389342 
L 409.957102 256.351968 
L 412.734304 289.983783 
L 415.511506 293.952247 
L 418.288707 280.696126 
L 421.065909 294.354496 
L 421.065909 294.354496 
" clip-path="url(#paa74ef1ed0)" style="fill: none; stroke: #1f77b4; stroke-width: 1.5; stroke-linecap: square"/>
   </g>
   <g id="patch_8">
    <path d="M 47.81 303.64 
L 47.81 179.792258 
" style="fill: none; stroke: #000000; stroke-width: 0.8; stroke-linejoin: miter; stroke-linecap: square"/>
   </g>
   <g id="patch_9">
    <path d="M 438.84 303.64 
L 438.84 179.792258 
" style="fill: none; stroke: #000000; stroke-width: 0.8; stroke-linejoin: miter; stroke-linecap: square"/>
   </g>
   <g id="patch_10">
    <path d="M 47.81 303.64 
L 438.84 303.64 
" style="fill: none; stroke: #000000; stroke-width: 0.8; stroke-linejoin: miter; stroke-linecap: square"/>
   </g>
   <g id="patch_11">
    <path d="M 47.81 179.792258 
L 438.84 179.792258 
" style="fill: none; stroke: #000000; stroke-width: 0.8; stroke-linejoin: miter; stroke-linecap: square"/>
   </g>
  </g>
 </g>
 <defs>
  <clipPath id="pca8da38fe4">
   <rect x="47.81" y="10.8" width="391.03" height="123.847742"/>
  </clipPath>
  <clipPath id="paa74ef1ed0">
   <rect x="47.81" y="179.792258" width="391.03" height="123.847742"/>
  </clipPath>
 </defs>
</svg>
