<?xml version="1.0" encoding="UTF-8" standalone="no"?>
<!-- Created with Inkscape (http://www.inkscape.org/) -->

<svg
   width="136.08273"
   height="98.390495"
   viewBox="0 0 36.00522 26.032485"
   version="1.1"
   id="svg1"
   xml:space="preserve"
   inkscape:version="1.4 (e7c3feb, 2024-10-09)"
   sodipodi:docname="logo.o.svg"
   inkscape:export-filename="logo.webp"
   inkscape:export-xdpi="40.869999"
   inkscape:export-ydpi="40.869999"
   xmlns:inkscape="http://www.inkscape.org/namespaces/inkscape"
   xmlns:sodipodi="http://sodipodi.sourceforge.net/DTD/sodipodi-0.dtd"
   xmlns="http://www.w3.org/2000/svg"
   xmlns:svg="http://www.w3.org/2000/svg"><sodipodi:namedview
     id="namedview1"
     pagecolor="#ffffff"
     bordercolor="#000000"
     borderopacity="0.25"
     inkscape:showpageshadow="2"
     inkscape:pageopacity="0.0"
     inkscape:pagecheckerboard="0"
     inkscape:deskcolor="#d1d1d1"
     inkscape:document-units="mm"
     inkscape:zoom="4"
     inkscape:cx="61.500001"
     inkscape:cy="24"
     inkscape:window-width="1920"
     inkscape:window-height="1015"
     inkscape:window-x="0"
     inkscape:window-y="0"
     inkscape:window-maximized="1"
     inkscape:current-layer="g3" /><defs
     id="defs1"><filter
       style="color-interpolation-filters:sRGB"
       inkscape:label="Drop Shadow"
       id="filter2"
       x="-0.019675702"
       y="-0.028112289"
       width="1.0459483"
       height="1.0742976"><feFlood
         result="flood"
         in="SourceGraphic"
         flood-opacity="0.470588"
         flood-color="rgb(0,0,0)"
         id="feFlood1" /><feGaussianBlur
         result="blur"
         in="SourceGraphic"
         stdDeviation="1.000000"
         id="feGaussianBlur1" /><feOffset
         result="offset"
         in="blur"
         dx="1.000000"
         dy="2.000000"
         id="feOffset1" /><feComposite
         result="comp1"
         operator="in"
         in="flood"
         in2="offset"
         id="feComposite1" /><feComposite
         result="comp2"
         operator="over"
         in="SourceGraphic"
         in2="comp1"
         id="feComposite2" /></filter></defs><rect
     style="display:none;fill:#ffffff;fill-opacity:1;fill-rule:evenodd;stroke-width:8.35197;stroke-linecap:round;stroke-linejoin:round"
     id="rect2"
     width="33.866665"
     height="21.166666"
     x="34.648006"
     y="1.1436559"
     ry="0"
     inkscape:export-filename="rect2.webp"
     inkscape:export-xdpi="40.869999"
     inkscape:export-ydpi="40.869999" /><g
     id="g3"
     transform="matrix(0.2270895,0,0,0.2270895,2.2337213,17.880625)"
     inkscape:label="Logo"
     style="filter:url(#filter2)"><g
       id="text1"
       style="font-weight:800;font-size:74.5668px;line-height:0;font-family:'Noto Sans';-inkscape-font-specification:'Noto Sans Ultra-Bold';letter-spacing:0.116511px;white-space:pre;inline-size:168.611;fill:#2c6e49;stroke:#2c6e49;stroke-width:1.16511;stroke-linecap:round;stroke-linejoin:round;stroke-miterlimit:15.6"
       inkscape:label="avn"
       transform="translate(-93.60936,54.736485)"
       aria-label="AvN"><path
         style="font-weight:normal;font-size:111.85px;font-family:'Jersey 20';-inkscape-font-specification:'Jersey 20, ';text-align:center;text-anchor:middle"
         d="m 99.914434,-94.056251 h 16.448526 v -13.158819 h -3.2897 v -3.28971 h -3.28971 v -3.28971 h -3.2897 v 3.28971 h -3.28971 v 3.28971 h -3.289706 z m 16.448526,13.158823 H 99.914434 v 16.44853 H 86.755611 v -49.345592 h 3.289706 v -3.2897 h 3.289706 v -3.28971 h 3.289706 v -3.2897 h 3.289705 v -3.28971 h 3.289706 v -3.28971 h 9.86912 v 3.28971 h 3.2897 v 3.28971 h 3.28971 v 3.2897 h 3.28971 v 3.28971 h 3.2897 v 3.2897 h 3.28971 v 49.345592 h -13.15883 z"
         id="path2" /><path
         style="font-weight:900;-inkscape-font-specification:'Noto Sans Heavy';text-align:center;text-anchor:middle"
         d="m 151.95114,-64.448898 -15.73359,-41.235442 h 14.83879 l 7.00928,24.383344 q 0.14914,0.298267 0.37284,1.64047 0.29826,1.342202 0.29826,2.535271 h 0.2237 q 0,-1.267635 0.2237,-2.386138 0.29827,-1.118502 0.44741,-1.715036 l 7.30754,-24.457911 h 14.8388 l -15.7336,41.235442 z m 86.39017,0 h -18.8654 L 200.01398,-101.956 h -0.29827 q 0.14913,1.71504 0.29827,4.175741 0.14913,2.386137 0.2237,4.846842 0.14913,2.460704 0.14913,4.474008 v 24.010511 H 187.63589 V -117.6896 h 18.79083 l 19.38737,36.985139 h 0.2237 q -0.0746,-1.715037 -0.2237,-4.026608 -0.14913,-2.311571 -0.2237,-4.697708 -0.0746,-2.386138 -0.0746,-4.175741 V -117.6896 h 12.82549 z"
         id="path3" /></g><path
       style="font-size:37.2834px;line-height:0;font-family:'Noto Sans Devanagari';-inkscape-font-specification:'Noto Sans Devanagari';text-align:center;letter-spacing:-1.05833px;text-anchor:middle;fill:#f4a259;stroke:#f4a259;stroke-linecap:round;stroke-linejoin:round"
       d="M 32.43024,30.214979 V 1.879594 H 29.149301 V 30.214979 Z M 45.427731,9.858242 c -5.294243,0 -8.836166,3.952041 -8.836166,10.513919 0,6.673729 3.914757,10.215652 9.619117,10.215652 2.721689,0 4.511292,-0.410117 6.561879,-1.304919 v -2.870822 c -2.087871,0.894802 -3.877474,1.379486 -6.412745,1.379486 -3.989324,0 -6.263612,-2.423421 -6.375462,-6.934713 h 13.683009 v -1.97602 c 0,-5.443376 -3.131806,-9.022583 -8.239632,-9.022583 z m -0.03728,2.684405 c 3.318223,0 4.809559,2.311571 4.846843,5.70436 H 40.058921 c 0.335551,-3.579206 2.199721,-5.70436 5.331526,-5.70436 z M 65.248074,9.8955254 c -2.609838,0 -5.070543,0.7829516 -6.822863,1.7150366 l 1.006652,2.460704 c 1.64047,-0.782951 3.541923,-1.528619 5.629794,-1.528619 2.609838,0 4.138457,1.118502 4.138457,4.436725 v 1.193068 l -3.392789,0.111851 c -6.524595,0.186417 -9.581834,2.386137 -9.581834,6.375461 0,4.063891 2.684405,5.928061 6.300895,5.928061 3.355506,0 4.958692,-1.006652 6.711012,-3.206372 h 0.149134 l 0.633817,2.833538 h 2.386138 V 16.606538 c 0,-4.660426 -2.311571,-6.7110126 -7.158413,-6.7110126 z m 0.969368,10.6630526 2.945389,-0.11185 v 1.789603 c 0,3.877474 -2.535271,5.704361 -5.890777,5.704361 -2.162438,0 -3.653774,-1.006652 -3.653774,-3.243656 0,-2.535272 1.603187,-3.952041 6.599162,-4.138458 z M 86.85801,9.858242 c -2.796255,0 -4.846842,1.826887 -6.114478,4.026607 H 80.594399 L 80.221565,10.231076 H 77.53716 v 19.983903 h 3.280939 V 19.551926 c 0,-4.026607 2.721689,-6.711012 5.816211,-6.711012 0.671101,0 1.528619,0.11185 2.162437,0.260984 l 0.410118,-3.019956 c -0.671102,-0.1491332 -1.603187,-0.2237 -2.348855,-0.2237 z m 14.63792,0 c -2.535275,0 -4.995979,1.006652 -6.300898,3.094522 h -0.186417 l -0.484684,-2.721688 h -2.647122 v 19.983903 h 3.280939 V 19.850194 c 0,-4.660426 1.41677,-7.23298 5.853492,-7.23298 3.05724,0 4.47401,1.603186 4.47401,4.809558 v 12.788207 h 3.24366 V 17.203072 c 0,-5.145109 -2.46071,-7.34483 -7.23298,-7.34483 z"
       id="text5"
       inkscape:label="Learn"
       aria-label="learn" /></g></svg>
