<?xml version="1.0" encoding="UTF-8" standalone="no"?>
<!-- Created with Inkscape (http://www.inkscape.org/) -->

<svg
   width="79.39621mm"
   height="80.690781mm"
   viewBox="0 0 79.39621 80.690781"
   version="1.1"
   id="svg5"
   xml:space="preserve"
   inkscape:version="1.2.2 (b0a8486541, 2022-12-01)"
   sodipodi:docname="Perpendicular.svg"
   xmlns:inkscape="http://www.inkscape.org/namespaces/inkscape"
   xmlns:sodipodi="http://sodipodi.sourceforge.net/DTD/sodipodi-0.dtd"
   xmlns="http://www.w3.org/2000/svg"
   xmlns:svg="http://www.w3.org/2000/svg"><sodipodi:namedview
     id="namedview7"
     pagecolor="#ffffff"
     bordercolor="#000000"
     borderopacity="0.25"
     inkscape:showpageshadow="2"
     inkscape:pageopacity="0.0"
     inkscape:pagecheckerboard="0"
     inkscape:deskcolor="#d1d1d1"
     inkscape:document-units="mm"
     showgrid="false"
     inkscape:zoom="2.174512"
     inkscape:cx="145.31996"
     inkscape:cy="165.32445"
     inkscape:window-width="952"
     inkscape:window-height="1014"
     inkscape:window-x="0"
     inkscape:window-y="0"
     inkscape:window-maximized="0"
     inkscape:current-layer="layer1" /><defs
     id="defs2"><marker
       style="overflow:visible"
       id="Arrow3"
       refX="0"
       refY="0"
       orient="auto-start-reverse"
       inkscape:stockid="Arrow3"
       markerWidth="4.2071066"
       markerHeight="6.9999995"
       viewBox="0 0 4.2071068 7"
       inkscape:isstock="true"
       inkscape:collect="always"
       preserveAspectRatio="xMidYMid"><path
         style="fill:none;stroke:context-stroke;stroke-width:1;stroke-linecap:round"
         d="M 3,-3 0,0 3,3"
         id="arrow3"
         transform="rotate(180,0.125,0)"
         sodipodi:nodetypes="ccc" /></marker><path
       id="MJSZ2-2211"
       stroke-width="10"
       d="m 60,948 q 3,2 605,2 h 602 l 58,-135 q 59,-138 63,-146 h -40 l -7,14 q -21,41 -56,78 -50,48 -111,77 -61,29 -141,43 -80,14 -151,17 -71,3 -183,4 H 574 543 251 l 8,-11 q 463,-633 465,-639 1,-2 0,-6 -3,-3 -264,-302 L 196,-356 q 0,-1 211,-1 52,0 141,0 89,0 128,-1 136,0 220,5 84,5 167,21 83,16 141,49 58,33 103,87 21,26 41,72 h 40 q 0,-1 -7,-21 -7,-20 -25,-65 -18,-45 -31,-84 l -58,-155 -601,-1 q -602,0 -605,2 -6,2 -6,9 0,2 2,6 l 533,610 q 0,1 -33,45 -33,44 -105,144 -72,100 -130,178 L 56,909 55,924 q 0,21 5,24 z" /><path
       id="MJMATHI-69"
       stroke-width="10"
       d="m 184,600 q 0,24 19,42 19,18 44,19 18,0 30,-12 12,-12 13,-30 0,-23 -20,-42 -20,-19 -44,-20 -15,0 -28,10 -13,10 -14,33 z M 21,287 q 0,8 9,31 9,23 24,51 15,28 44,51 29,23 60,22 39,0 65,-23 26,-23 27,-62 0,-17 -14,-56 -14,-39 -40,-105 -26,-66 -42,-113 -5,-22 -5,-32 0,-25 17,-25 9,0 19,3 10,3 23,14 13,11 27,35 14,24 25,59 3,12 5,14 2,2 17,2 20,0 20,-10 0,-8 -9,-31 -9,-23 -25,-51 -16,-28 -45,-50 -29,-22 -62,-22 -32,0 -59,21 -27,21 -28,64 0,17 5,32 5,15 43,114 38,101 44,121 6,20 7,39 0,24 -17,24 h -2 q -30,0 -55,-33 -25,-33 -38,-84 -1,-1 -2,-3 -1,-2 -1,-3 0,-1 -2,-2 -2,-1 -3,-1 -1,0 -4,0 -3,0 -8,0 H 27 q -6,6 -6,9 z" /><path
       id="MJMAIN-3D"
       stroke-width="10"
       d="m 56,347 q 0,13 14,20 h 637 q 15,-8 15,-20 0,-11 -14,-19 L 390,327 H 72 q -16,5 -16,20 z m 0,-194 q 0,15 16,20 h 636 q 14,-10 14,-20 0,-13 -15,-20 H 70 q -14,7 -14,20 z" /><path
       id="MJMAIN-30"
       stroke-width="10"
       d="m 96,585 q 56,81 153,81 48,0 96,-26 48,-26 78,-92 37,-83 37,-228 0,-155 -43,-237 -20,-42 -55,-67 -35,-25 -61,-31 -26,-6 -51,-7 -26,0 -52,6 -26,6 -61,32 -35,26 -55,67 -43,82 -43,237 0,174 57,265 z m 225,12 q -30,32 -71,32 -42,0 -72,-32 -25,-26 -33,-72 -8,-46 -8,-192 0,-158 8,-208 8,-50 36,-79 28,-30 69,-30 40,0 68,30 29,30 36,84 7,54 8,203 0,145 -8,191 -8,46 -33,73 z" /><path
       id="MJMATHI-6E"
       stroke-width="10"
       d="m 21,287 q 1,6 3,16 2,10 12,38 10,28 20,47 10,19 33,37 23,18 46,17 36,0 60,-18 24,-18 30,-34 6,-16 6,-21 0,-2 1,-2 l 11,11 q 61,64 139,64 54,0 87,-27 33,-27 34,-79 1,-52 -38,-157 -39,-105 -38,-127 0,-26 17,-26 6,0 9,1 29,5 52,38 23,33 35,80 2,8 20,8 20,0 20,-8 0,-1 -4,-15 -8,-29 -22,-57 -14,-28 -46,-56 -32,-28 -69,-27 -47,0 -68,27 -21,27 -21,56 0,19 36,120 36,101 37,152 0,59 -44,59 h -5 Q 288,404 229,303 L 222,291 189,157 Q 156,26 151,16 138,-11 108,-11 95,-11 87,-5 79,1 76,7 q -3,6 -2,10 0,13 38,163 38,150 40,163 1,5 1,23 0,39 -24,39 -38,0 -63,-100 -6,-20 -6,-21 -2,-6 -19,-6 H 27 q -6,6 -6,9 z" /><path
       id="MJMAIN-28"
       stroke-width="10"
       d="m 94,250 q 0,69 10,131 10,62 23,107 13,45 37,88 24,43 38,67 14,24 42,52 28,28 33,34 5,6 25,21 h 13 4 q 14,0 14,-9 0,-3 -17,-21 -17,-18 -41,-53 -24,-35 -49,-86 -25,-51 -42,-138 -17,-87 -17,-193 0,-106 17,-192 17,-86 41,-139 24,-53 49,-86 25,-33 42,-53 17,-20 17,-21 0,-9 -15,-9 h -3 -13 l -28,24 Q 180,-141 137,-14 94,113 94,250 Z" /><path
       id="MJMAIN-2B"
       stroke-width="10"
       d="m 56,237 q 0,0 0,13 0,13 14,20 h 299 v 150 l 1,150 q 10,13 19,13 13,0 20,-15 V 270 h 298 q 15,-8 15,-20 0,-12 -15,-20 H 409 V -68 q -8,-14 -18,-14 h -2 -2 q -12,0 -18,14 V 230 H 70 q -14,7 -14,20 z" /><path
       id="MJMAIN-31"
       stroke-width="10"
       d="m 213,578 -13,-5 q -14,-5 -40,-10 -26,-5 -58,-7 H 83 v 46 h 19 q 47,2 87,15 40,13 56,24 16,11 28,22 2,3 12,3 9,0 17,-6 V 361 l 1,-300 q 7,-7 12,-9 5,-2 24,-4 19,-2 62,-2 h 26 V 0 H 416 Q 395,3 257,3 121,3 100,0 H 88 v 46 h 26 q 22,0 38,0 16,0 25,1 9,1 16,3 7,2 8,2 1,0 6,5 5,5 6,4 z" /><path
       id="MJMAIN-29"
       stroke-width="10"
       d="m 60,749 4,1 q 5,0 10,0 h 12 l 28,-24 q 94,-85 137,-212 43,-127 43,-264 0,-68 -10,-131 -10,-63 -23,-107 -13,-44 -37,-88 -24,-44 -38,-67 -14,-23 -41,-51 -27,-28 -32,-33 -5,-5 -23,-19 -3,-3 -4,-4 H 74 q -8,0 -11,0 -3,0 -5,3 -2,3 -3,9 1,1 11,13 155,161 155,475 0,314 -155,475 -10,12 -11,13 0,8 5,11 z" /><path
       id="MJMAIN-32"
       stroke-width="10"
       d="m 109,429 q -27,0 -43,18 -16,18 -16,44 0,71 53,123 53,52 132,52 91,0 152,-56 61,-56 62,-145 0,-43 -20,-82 -20,-39 -48,-68 -28,-29 -80,-74 -36,-31 -100,-92 l -59,-56 76,-1 q 157,0 167,5 7,2 24,89 v 3 h 40 v -3 Q 448,183 436,95 424,7 421,3 V 0 H 50 v 19 12 q 0,7 6,15 6,8 30,35 29,32 50,56 9,10 34,37 25,27 34,37 9,10 29,33 20,23 28,34 8,11 23,30 15,19 21,32 6,13 15,29 9,16 13,32 4,16 7,30 3,14 3,33 0,63 -34,109 -34,46 -97,46 -33,0 -58,-17 -25,-17 -35,-33 -10,-16 -10,-19 0,-1 5,-1 18,0 37,-14 19,-14 19,-46 0,-25 -16,-42 -16,-17 -45,-18 z" /><path
       id="MJMAIN-41"
       stroke-width="10"
       d="M 255,0 Q 240,3 140,3 48,3 39,0 h -7 v 46 h 15 q 72,3 92,42 1,3 53,157 52,154 103,308 51,154 53,155 3,8 18,8 h 10 q 20,-1 24,-7 2,-2 108,-319 L 617,67 q 7,-13 19,-16 12,-3 51,-5 h 30 V 0 h -9 Q 699,3 581,3 458,3 437,0 h -10 v 46 h 13 q 70,0 70,18 0,2 -24,74 l -24,71 H 229 L 209,150 Q 189,91 189,85 189,72 209,59 229,46 259,46 h 5 V 0 Z M 447,255 345,557 244,256 q 0,-1 101,-1 z" /><path
       id="MJMAIN-42"
       stroke-width="10"
       d="m 131,622 q -7,7 -11,9 -4,2 -16,3 -12,1 -43,3 H 28 v 46 h 201 38 79 q 77,0 113,-5 36,-5 72,-27 43,-24 68,-61 25,-37 25,-78 0,-51 -41,-93 -41,-42 -107,-59 l -10,-3 q 73,-9 129,-55 56,-46 56,-115 Q 651,119 600,67 549,15 469,3 456,1 242,0 H 28 v 46 h 33 q 42,1 51,3 9,2 19,12 z M 511,513 q 0,47 -26,81 -26,34 -69,42 -1,0 -13,0 -12,0 -32,0 -20,0 -38,1 -67,0 -82,-1 -15,-1 -19,-8 -3,-4 -3,-129 V 374 h 83 l 84,1 10,2 q 4,1 11,3 7,2 25,13 18,11 32,24 14,13 25,39 11,26 12,57 z m 26,-325 q 0,51 -28,94 -28,43 -79,54 l -101,1 H 229 V 200 116 q 0,-59 5,-64 6,-5 100,-5 h 49 q 42,0 60,6 43,14 68,51 25,37 26,84 z" /><path
       id="MJMAIN-AF"
       stroke-width="10"
       d="m 69,544 v 46 h 361 v -46 z" /><path
       id="MJMAIN-2194"
       stroke-width="10"
       d="m 263,479 q 4,22 8,27 4,5 17,5 20,0 20,-11 0,-7 -5,-25 -10,-37 -25,-69 -15,-32 -32,-54 -17,-22 -31,-37 -14,-15 -30,-28 -16,-13 -20,-17 h 670 q -106,79 -139,205 -5,18 -5,25 0,11 20,11 9,0 12,-1 3,-1 6,-4 3,-3 3,-9 0,-6 3,-16 3,-10 8,-25 22,-67 73,-120 51,-53 119,-75 9,-3 9,-11 0,-6 -5,-9 -5,-3 -24,-10 -19,-7 -38,-19 -41,-26 -71,-60 -30,-34 -45,-67 -15,-33 -21,-50 -6,-17 -8,-31 -2,-10 -5,-12 -3,-2 -16,-3 -20,0 -20,11 0,7 5,25 32,126 139,205 H 165 q 2,-2 17,-14 15,-12 29,-27 14,-15 33,-37 19,-22 33,-56 14,-34 26,-71 5,-18 5,-25 0,-11 -20,-11 -7,0 -10,0 -3,0 -6,4 -3,4 -5,9 -2,5 -4,19 -18,73 -68,130 -50,57 -122,85 -15,6 -18,11 0,7 4,10 4,3 14,7 71,28 121,85 50,57 69,130 z" /><path
       id="MJMAIN-2190"
       stroke-width="10"
       d="m 944,261 q 0,0 0,-11 0,-11 -15,-20 H 165 q 2,-2 17,-14 15,-12 29,-27 14,-15 33,-37 19,-22 33,-56 14,-34 26,-71 5,-18 5,-25 0,-11 -20,-11 -7,0 -10,0 -3,0 -6,4 -3,4 -5,9 -2,5 -4,19 -18,73 -68,130 -50,57 -122,85 -15,6 -18,11 0,7 4,10 4,3 14,7 48,19 85,50 37,31 57,61 20,30 32,59 12,29 17,46 l 3,17 q 2,6 3,8 1,2 5,4 4,2 13,2 20,0 20,-11 0,-7 -5,-25 -10,-37 -25,-69 -15,-32 -32,-54 -17,-22 -31,-37 -14,-15 -30,-28 -16,-13 -20,-17 h 764 q 15,-9 15,-20 z" /><path
       id="MJMAIN-2192"
       stroke-width="10"
       d="m 56,237 q 0,0 0,13 0,13 14,20 h 765 q -116,87 -143,223 0,1 0,3 0,2 -1,3 0,12 17,12 h 3 q 9,0 12,-1 3,-1 6,-4 3,-3 3,-9 0,-6 3,-16 3,-10 8,-25 22,-67 73,-120 51,-53 119,-75 9,-3 9,-11 0,-6 -5,-9 -5,-3 -24,-10 -19,-7 -38,-19 -41,-26 -71,-60 -30,-34 -45,-67 -15,-33 -21,-50 -6,-17 -8,-31 -2,-10 -5,-12 -3,-2 -16,-3 -20,0 -20,11 0,7 5,25 32,126 139,205 H 70 q -14,7 -14,20 z" /><path
       id="MJMAIN-2212"
       stroke-width="10"
       d="m 84,237 q 0,0 0,13 0,13 14,20 h 581 q 15,-8 15,-20 0,-12 -15,-20 H 98 q -14,7 -14,20 z" /><path
       id="MJMATHI-41"
       stroke-width="10"
       d="m 208,74 q 0,-24 46,-28 18,0 18,-11 0,-1 -2,-13 Q 267,8 264,4 261,0 251,0 249,0 239,0 229,0 205,1 181,2 141,2 70,2 50,0 h -8 q -7,7 -7,11 2,27 13,35 h 14 q 70,3 102,50 6,6 181,305 175,299 178,303 7,12 24,12 h 8 17 q 6,-9 6,-10 l 28,-323 q 28,-323 30,-326 5,-11 65,-11 25,0 25,-10 0,-2 -3,-14 Q 720,7 718,4 716,1 704,0 701,0 690,0 679,0 651,1 623,2 578,2 484,2 455,0 h -12 q -6,6 -6,9 0,3 2,18 4,13 6,16 l 4,3 h 20 q 54,3 64,17 L 521,213 H 283 L 249,155 Q 208,86 208,74 Z m 308,186 q 0,11 -12,156 -12,145 -14,146 L 463,519 Q 447,492 400,412 l -90,-152 103,-1 q 103,0 103,1 z" /><path
       id="MJMATHI-42"
       stroke-width="10"
       d="m 231,637 q -27,0 -32,1 -5,1 -5,11 0,27 11,33 1,1 130,1 259,0 273,-2 63,-10 105,-45 42,-35 43,-92 0,-64 -58,-115 -58,-51 -133,-69 l -10,-3 q 64,-9 105,-46 41,-37 42,-92 Q 702,146 630,78 558,10 453,1 446,0 242,0 42,0 39,2 q -4,3 -4,8 0,7 2,14 5,19 10,21 4,1 15,1 h 6 q 27,0 60,3 14,3 19,12 3,4 72,278 69,274 69,289 0,7 -57,9 z m 418,-93 q 0,30 -15,56 -15,26 -49,34 -7,2 -92,3 -20,0 -42,0 -22,0 -35,-1 h -13 q -15,-1 -19,-10 -2,-4 -32,-120 0,-3 -1,-6 L 320,374 h 81 q 81,0 93,2 60,10 107,58 47,48 48,110 z M 595,229 q 0,44 -23,73 -23,29 -60,34 -6,1 -83,1 -118,0 -119,-1 0,-2 -17,-73 -17,-71 -35,-141 L 240,52 q 0,-4 12,-4 12,0 81,-2 89,0 96,1 62,7 114,58 52,51 52,124 z" /><path
       id="MJMAIN-2225"
       stroke-width="10"
       d="m 133,736 q 5,14 20,14 11,0 17,-11 2,-4 2,-489 0,-485 -2,-489 -6,-11 -18,-11 -8,0 -14,6 l -1,1 q -4,2 -4,64 0,62 -1,429 0,481 1,486 z m 196,3 q 5,11 17,11 7,0 15,-6 l 1,-1 q 4,-2 4,-64 0,-62 1,-429 1,-367 0,-428 -1,-61 -5,-65 l -1,-1 q -6,-6 -14,-6 -12,0 -18,11 -2,4 -2,489 0,485 2,489 z" /><path
       id="MJMATHI-43"
       stroke-width="10"
       d="m 50,252 q 0,115 67,221 67,106 169,168 102,62 204,63 90,0 143,-51 9,-10 15,-17 6,-7 8,-10 l 1,-3 q 3,0 27,26 7,6 15,14 8,8 16,16 8,8 10,11 l 15,15 h 6 q 14,0 14,-7 0,-4 -32,-137 -36,-139 -36,-140 -2,-5 -5,-6 -3,-1 -18,-2 h -16 q -6,6 -6,9 0,1 1,7 1,6 2,20 1,14 1,32 0,71 -32,124 -32,53 -109,54 -26,0 -56,-7 -30,-7 -72,-24 -42,-17 -83,-56 -41,-39 -73,-93 -32,-57 -51,-133 -19,-76 -19,-124 0,-114 76,-164 48,-34 118,-34 91,0 162,68 71,68 94,148 4,13 6,15 2,2 16,2 20,0 20,-9 0,-5 -1,-9 Q 618,132 523,55 428,-22 319,-22 206,-22 128,53 50,128 50,252 Z" /><path
       id="MJMATHI-44"
       stroke-width="10"
       d="m 287,628 q 0,7 -57,9 -23,0 -30,1 -7,1 -7,9 0,8 4,20 4,12 7,15 2,1 199,1 167,-1 187,-1 20,0 40,-6 72,-17 122,-79 50,-62 51,-166 Q 803,275 696,151 589,27 444,3 L 430,1 236,0 H 125 72 q -24,0 -31,2 -7,2 -8,9 0,2 3,14 4,16 8,18 4,2 23,3 27,0 60,3 14,3 19,12 3,4 72,278 69,274 69,289 z M 703,469 q 0,38 -11,68 -11,30 -26,47 -15,17 -37,29 -22,12 -39,16 -17,4 -35,7 -2,0 -14,0 -12,0 -29,0 -17,0 -33,1 h -43 q -44,0 -50,-10 -2,-4 -73,-288 -71,-284 -71,-287 0,-4 11,-4 11,0 77,-1 5,0 19,0 14,0 24,-1 126,0 208,82 36,36 59,84 23,48 43,127 20,79 20,130 z" /><path
       id="MJSZ2-2211-7"
       stroke-width="10"
       d="m 60,948 q 3,2 605,2 h 602 l 58,-135 q 59,-138 63,-146 h -40 l -7,14 q -21,41 -56,78 -50,48 -111,77 -61,29 -141,43 -80,14 -151,17 -71,3 -183,4 H 574 543 251 l 8,-11 q 463,-633 465,-639 1,-2 0,-6 -3,-3 -264,-302 L 196,-356 q 0,-1 211,-1 52,0 141,0 89,0 128,-1 136,0 220,5 84,5 167,21 83,16 141,49 58,33 103,87 21,26 41,72 h 40 q 0,-1 -7,-21 -7,-20 -25,-65 -18,-45 -31,-84 l -58,-155 -601,-1 q -602,0 -605,2 -6,2 -6,9 0,2 2,6 l 533,610 q 0,1 -33,45 -33,44 -105,144 -72,100 -130,178 L 56,909 55,924 q 0,21 5,24 z" /><path
       id="MJMATHI-69-1"
       stroke-width="10"
       d="m 184,600 q 0,24 19,42 19,18 44,19 18,0 30,-12 12,-12 13,-30 0,-23 -20,-42 -20,-19 -44,-20 -15,0 -28,10 -13,10 -14,33 z M 21,287 q 0,8 9,31 9,23 24,51 15,28 44,51 29,23 60,22 39,0 65,-23 26,-23 27,-62 0,-17 -14,-56 -14,-39 -40,-105 -26,-66 -42,-113 -5,-22 -5,-32 0,-25 17,-25 9,0 19,3 10,3 23,14 13,11 27,35 14,24 25,59 3,12 5,14 2,2 17,2 20,0 20,-10 0,-8 -9,-31 -9,-23 -25,-51 -16,-28 -45,-50 -29,-22 -62,-22 -32,0 -59,21 -27,21 -28,64 0,17 5,32 5,15 43,114 38,101 44,121 6,20 7,39 0,24 -17,24 h -2 q -30,0 -55,-33 -25,-33 -38,-84 -1,-1 -2,-3 -1,-2 -1,-3 0,-1 -2,-2 -2,-1 -3,-1 -1,0 -4,0 -3,0 -8,0 H 27 q -6,6 -6,9 z" /><path
       id="MJMAIN-3D-1"
       stroke-width="10"
       d="m 56,347 q 0,13 14,20 h 637 q 15,-8 15,-20 0,-11 -14,-19 L 390,327 H 72 q -16,5 -16,20 z m 0,-194 q 0,15 16,20 h 636 q 14,-10 14,-20 0,-13 -15,-20 H 70 q -14,7 -14,20 z" /><path
       id="MJMAIN-30-5"
       stroke-width="10"
       d="m 96,585 q 56,81 153,81 48,0 96,-26 48,-26 78,-92 37,-83 37,-228 0,-155 -43,-237 -20,-42 -55,-67 -35,-25 -61,-31 -26,-6 -51,-7 -26,0 -52,6 -26,6 -61,32 -35,26 -55,67 -43,82 -43,237 0,174 57,265 z m 225,12 q -30,32 -71,32 -42,0 -72,-32 -25,-26 -33,-72 -8,-46 -8,-192 0,-158 8,-208 8,-50 36,-79 28,-30 69,-30 40,0 68,30 29,30 36,84 7,54 8,203 0,145 -8,191 -8,46 -33,73 z" /><path
       id="MJMATHI-6E-9"
       stroke-width="10"
       d="m 21,287 q 1,6 3,16 2,10 12,38 10,28 20,47 10,19 33,37 23,18 46,17 36,0 60,-18 24,-18 30,-34 6,-16 6,-21 0,-2 1,-2 l 11,11 q 61,64 139,64 54,0 87,-27 33,-27 34,-79 1,-52 -38,-157 -39,-105 -38,-127 0,-26 17,-26 6,0 9,1 29,5 52,38 23,33 35,80 2,8 20,8 20,0 20,-8 0,-1 -4,-15 -8,-29 -22,-57 -14,-28 -46,-56 -32,-28 -69,-27 -47,0 -68,27 -21,27 -21,56 0,19 36,120 36,101 37,152 0,59 -44,59 h -5 Q 288,404 229,303 L 222,291 189,157 Q 156,26 151,16 138,-11 108,-11 95,-11 87,-5 79,1 76,7 q -3,6 -2,10 0,13 38,163 38,150 40,163 1,5 1,23 0,39 -24,39 -38,0 -63,-100 -6,-20 -6,-21 -2,-6 -19,-6 H 27 q -6,6 -6,9 z" /><path
       id="MJMAIN-28-7"
       stroke-width="10"
       d="m 94,250 q 0,69 10,131 10,62 23,107 13,45 37,88 24,43 38,67 14,24 42,52 28,28 33,34 5,6 25,21 h 13 4 q 14,0 14,-9 0,-3 -17,-21 -17,-18 -41,-53 -24,-35 -49,-86 -25,-51 -42,-138 -17,-87 -17,-193 0,-106 17,-192 17,-86 41,-139 24,-53 49,-86 25,-33 42,-53 17,-20 17,-21 0,-9 -15,-9 h -3 -13 l -28,24 Q 180,-141 137,-14 94,113 94,250 Z" /><path
       id="MJMAIN-2B-7"
       stroke-width="10"
       d="m 56,237 q 0,0 0,13 0,13 14,20 h 299 v 150 l 1,150 q 10,13 19,13 13,0 20,-15 V 270 h 298 q 15,-8 15,-20 0,-12 -15,-20 H 409 V -68 q -8,-14 -18,-14 h -2 -2 q -12,0 -18,14 V 230 H 70 q -14,7 -14,20 z" /><path
       id="MJMAIN-31-6"
       stroke-width="10"
       d="m 213,578 -13,-5 q -14,-5 -40,-10 -26,-5 -58,-7 H 83 v 46 h 19 q 47,2 87,15 40,13 56,24 16,11 28,22 2,3 12,3 9,0 17,-6 V 361 l 1,-300 q 7,-7 12,-9 5,-2 24,-4 19,-2 62,-2 h 26 V 0 H 416 Q 395,3 257,3 121,3 100,0 H 88 v 46 h 26 q 22,0 38,0 16,0 25,1 9,1 16,3 7,2 8,2 1,0 6,5 5,5 6,4 z" /><path
       id="MJMAIN-29-7"
       stroke-width="10"
       d="m 60,749 4,1 q 5,0 10,0 h 12 l 28,-24 q 94,-85 137,-212 43,-127 43,-264 0,-68 -10,-131 -10,-63 -23,-107 -13,-44 -37,-88 -24,-44 -38,-67 -14,-23 -41,-51 -27,-28 -32,-33 -5,-5 -23,-19 -3,-3 -4,-4 H 74 q -8,0 -11,0 -3,0 -5,3 -2,3 -3,9 1,1 11,13 155,161 155,475 0,314 -155,475 -10,12 -11,13 0,8 5,11 z" /><path
       id="MJMAIN-32-3"
       stroke-width="10"
       d="m 109,429 q -27,0 -43,18 -16,18 -16,44 0,71 53,123 53,52 132,52 91,0 152,-56 61,-56 62,-145 0,-43 -20,-82 -20,-39 -48,-68 -28,-29 -80,-74 -36,-31 -100,-92 l -59,-56 76,-1 q 157,0 167,5 7,2 24,89 v 3 h 40 v -3 Q 448,183 436,95 424,7 421,3 V 0 H 50 v 19 12 q 0,7 6,15 6,8 30,35 29,32 50,56 9,10 34,37 25,27 34,37 9,10 29,33 20,23 28,34 8,11 23,30 15,19 21,32 6,13 15,29 9,16 13,32 4,16 7,30 3,14 3,33 0,63 -34,109 -34,46 -97,46 -33,0 -58,-17 -25,-17 -35,-33 -10,-16 -10,-19 0,-1 5,-1 18,0 37,-14 19,-14 19,-46 0,-25 -16,-42 -16,-17 -45,-18 z" /><path
       id="MJMAIN-41-6"
       stroke-width="10"
       d="M 255,0 Q 240,3 140,3 48,3 39,0 h -7 v 46 h 15 q 72,3 92,42 1,3 53,157 52,154 103,308 51,154 53,155 3,8 18,8 h 10 q 20,-1 24,-7 2,-2 108,-319 L 617,67 q 7,-13 19,-16 12,-3 51,-5 h 30 V 0 h -9 Q 699,3 581,3 458,3 437,0 h -10 v 46 h 13 q 70,0 70,18 0,2 -24,74 l -24,71 H 229 L 209,150 Q 189,91 189,85 189,72 209,59 229,46 259,46 h 5 V 0 Z M 447,255 345,557 244,256 q 0,-1 101,-1 z" /><path
       id="MJMAIN-42-5"
       stroke-width="10"
       d="m 131,622 q -7,7 -11,9 -4,2 -16,3 -12,1 -43,3 H 28 v 46 h 201 38 79 q 77,0 113,-5 36,-5 72,-27 43,-24 68,-61 25,-37 25,-78 0,-51 -41,-93 -41,-42 -107,-59 l -10,-3 q 73,-9 129,-55 56,-46 56,-115 Q 651,119 600,67 549,15 469,3 456,1 242,0 H 28 v 46 h 33 q 42,1 51,3 9,2 19,12 z M 511,513 q 0,47 -26,81 -26,34 -69,42 -1,0 -13,0 -12,0 -32,0 -20,0 -38,1 -67,0 -82,-1 -15,-1 -19,-8 -3,-4 -3,-129 V 374 h 83 l 84,1 10,2 q 4,1 11,3 7,2 25,13 18,11 32,24 14,13 25,39 11,26 12,57 z m 26,-325 q 0,51 -28,94 -28,43 -79,54 l -101,1 H 229 V 200 116 q 0,-59 5,-64 6,-5 100,-5 h 49 q 42,0 60,6 43,14 68,51 25,37 26,84 z" /><path
       id="MJMAIN-AF-6"
       stroke-width="10"
       d="m 69,544 v 46 h 361 v -46 z" /><path
       id="MJMAIN-2194-3"
       stroke-width="10"
       d="m 263,479 q 4,22 8,27 4,5 17,5 20,0 20,-11 0,-7 -5,-25 -10,-37 -25,-69 -15,-32 -32,-54 -17,-22 -31,-37 -14,-15 -30,-28 -16,-13 -20,-17 h 670 q -106,79 -139,205 -5,18 -5,25 0,11 20,11 9,0 12,-1 3,-1 6,-4 3,-3 3,-9 0,-6 3,-16 3,-10 8,-25 22,-67 73,-120 51,-53 119,-75 9,-3 9,-11 0,-6 -5,-9 -5,-3 -24,-10 -19,-7 -38,-19 -41,-26 -71,-60 -30,-34 -45,-67 -15,-33 -21,-50 -6,-17 -8,-31 -2,-10 -5,-12 -3,-2 -16,-3 -20,0 -20,11 0,7 5,25 32,126 139,205 H 165 q 2,-2 17,-14 15,-12 29,-27 14,-15 33,-37 19,-22 33,-56 14,-34 26,-71 5,-18 5,-25 0,-11 -20,-11 -7,0 -10,0 -3,0 -6,4 -3,4 -5,9 -2,5 -4,19 -18,73 -68,130 -50,57 -122,85 -15,6 -18,11 0,7 4,10 4,3 14,7 71,28 121,85 50,57 69,130 z" /><path
       id="MJMAIN-2190-9"
       stroke-width="10"
       d="m 944,261 q 0,0 0,-11 0,-11 -15,-20 H 165 q 2,-2 17,-14 15,-12 29,-27 14,-15 33,-37 19,-22 33,-56 14,-34 26,-71 5,-18 5,-25 0,-11 -20,-11 -7,0 -10,0 -3,0 -6,4 -3,4 -5,9 -2,5 -4,19 -18,73 -68,130 -50,57 -122,85 -15,6 -18,11 0,7 4,10 4,3 14,7 48,19 85,50 37,31 57,61 20,30 32,59 12,29 17,46 l 3,17 q 2,6 3,8 1,2 5,4 4,2 13,2 20,0 20,-11 0,-7 -5,-25 -10,-37 -25,-69 -15,-32 -32,-54 -17,-22 -31,-37 -14,-15 -30,-28 -16,-13 -20,-17 h 764 q 15,-9 15,-20 z" /><path
       id="MJMAIN-2192-4"
       stroke-width="10"
       d="m 56,237 q 0,0 0,13 0,13 14,20 h 765 q -116,87 -143,223 0,1 0,3 0,2 -1,3 0,12 17,12 h 3 q 9,0 12,-1 3,-1 6,-4 3,-3 3,-9 0,-6 3,-16 3,-10 8,-25 22,-67 73,-120 51,-53 119,-75 9,-3 9,-11 0,-6 -5,-9 -5,-3 -24,-10 -19,-7 -38,-19 -41,-26 -71,-60 -30,-34 -45,-67 -15,-33 -21,-50 -6,-17 -8,-31 -2,-10 -5,-12 -3,-2 -16,-3 -20,0 -20,11 0,7 5,25 32,126 139,205 H 70 q -14,7 -14,20 z" /><path
       id="MJMAIN-2212-8"
       stroke-width="10"
       d="m 84,237 q 0,0 0,13 0,13 14,20 h 581 q 15,-8 15,-20 0,-12 -15,-20 H 98 q -14,7 -14,20 z" /><path
       id="MJMATHI-41-1"
       stroke-width="10"
       d="m 208,74 q 0,-24 46,-28 18,0 18,-11 0,-1 -2,-13 Q 267,8 264,4 261,0 251,0 249,0 239,0 229,0 205,1 181,2 141,2 70,2 50,0 h -8 q -7,7 -7,11 2,27 13,35 h 14 q 70,3 102,50 6,6 181,305 175,299 178,303 7,12 24,12 h 8 17 q 6,-9 6,-10 l 28,-323 q 28,-323 30,-326 5,-11 65,-11 25,0 25,-10 0,-2 -3,-14 Q 720,7 718,4 716,1 704,0 701,0 690,0 679,0 651,1 623,2 578,2 484,2 455,0 h -12 q -6,6 -6,9 0,3 2,18 4,13 6,16 l 4,3 h 20 q 54,3 64,17 L 521,213 H 283 L 249,155 Q 208,86 208,74 Z m 308,186 q 0,11 -12,156 -12,145 -14,146 L 463,519 Q 447,492 400,412 l -90,-152 103,-1 q 103,0 103,1 z" /><path
       id="MJMATHI-42-2"
       stroke-width="10"
       d="m 231,637 q -27,0 -32,1 -5,1 -5,11 0,27 11,33 1,1 130,1 259,0 273,-2 63,-10 105,-45 42,-35 43,-92 0,-64 -58,-115 -58,-51 -133,-69 l -10,-3 q 64,-9 105,-46 41,-37 42,-92 Q 702,146 630,78 558,10 453,1 446,0 242,0 42,0 39,2 q -4,3 -4,8 0,7 2,14 5,19 10,21 4,1 15,1 h 6 q 27,0 60,3 14,3 19,12 3,4 72,278 69,274 69,289 0,7 -57,9 z m 418,-93 q 0,30 -15,56 -15,26 -49,34 -7,2 -92,3 -20,0 -42,0 -22,0 -35,-1 h -13 q -15,-1 -19,-10 -2,-4 -32,-120 0,-3 -1,-6 L 320,374 h 81 q 81,0 93,2 60,10 107,58 47,48 48,110 z M 595,229 q 0,44 -23,73 -23,29 -60,34 -6,1 -83,1 -118,0 -119,-1 0,-2 -17,-73 -17,-71 -35,-141 L 240,52 q 0,-4 12,-4 12,0 81,-2 89,0 96,1 62,7 114,58 52,51 52,124 z" /><path
       id="MJMAIN-2225-9"
       stroke-width="10"
       d="m 133,736 q 5,14 20,14 11,0 17,-11 2,-4 2,-489 0,-485 -2,-489 -6,-11 -18,-11 -8,0 -14,6 l -1,1 q -4,2 -4,64 0,62 -1,429 0,481 1,486 z m 196,3 q 5,11 17,11 7,0 15,-6 l 1,-1 q 4,-2 4,-64 0,-62 1,-429 1,-367 0,-428 -1,-61 -5,-65 l -1,-1 q -6,-6 -14,-6 -12,0 -18,11 -2,4 -2,489 0,485 2,489 z" /><path
       id="MJMATHI-43-3"
       stroke-width="10"
       d="m 50,252 q 0,115 67,221 67,106 169,168 102,62 204,63 90,0 143,-51 9,-10 15,-17 6,-7 8,-10 l 1,-3 q 3,0 27,26 7,6 15,14 8,8 16,16 8,8 10,11 l 15,15 h 6 q 14,0 14,-7 0,-4 -32,-137 -36,-139 -36,-140 -2,-5 -5,-6 -3,-1 -18,-2 h -16 q -6,6 -6,9 0,1 1,7 1,6 2,20 1,14 1,32 0,71 -32,124 -32,53 -109,54 -26,0 -56,-7 -30,-7 -72,-24 -42,-17 -83,-56 -41,-39 -73,-93 -32,-57 -51,-133 -19,-76 -19,-124 0,-114 76,-164 48,-34 118,-34 91,0 162,68 71,68 94,148 4,13 6,15 2,2 16,2 20,0 20,-9 0,-5 -1,-9 Q 618,132 523,55 428,-22 319,-22 206,-22 128,53 50,128 50,252 Z" /><path
       id="MJMATHI-44-9"
       stroke-width="10"
       d="m 287,628 q 0,7 -57,9 -23,0 -30,1 -7,1 -7,9 0,8 4,20 4,12 7,15 2,1 199,1 167,-1 187,-1 20,0 40,-6 72,-17 122,-79 50,-62 51,-166 Q 803,275 696,151 589,27 444,3 L 430,1 236,0 H 125 72 q -24,0 -31,2 -7,2 -8,9 0,2 3,14 4,16 8,18 4,2 23,3 27,0 60,3 14,3 19,12 3,4 72,278 69,274 69,289 z M 703,469 q 0,38 -11,68 -11,30 -26,47 -15,17 -37,29 -22,12 -39,16 -17,4 -35,7 -2,0 -14,0 -12,0 -29,0 -17,0 -33,1 h -43 q -44,0 -50,-10 -2,-4 -73,-288 -71,-284 -71,-287 0,-4 11,-4 11,0 77,-1 5,0 19,0 14,0 24,-1 126,0 208,82 36,36 59,84 23,48 43,127 20,79 20,130 z" /><path
       id="MJSZ2-2211-0"
       stroke-width="10"
       d="m 60,948 q 3,2 605,2 h 602 l 58,-135 q 59,-138 63,-146 h -40 l -7,14 q -21,41 -56,78 -50,48 -111,77 -61,29 -141,43 -80,14 -151,17 -71,3 -183,4 H 574 543 251 l 8,-11 q 463,-633 465,-639 1,-2 0,-6 -3,-3 -264,-302 L 196,-356 q 0,-1 211,-1 52,0 141,0 89,0 128,-1 136,0 220,5 84,5 167,21 83,16 141,49 58,33 103,87 21,26 41,72 h 40 q 0,-1 -7,-21 -7,-20 -25,-65 -18,-45 -31,-84 l -58,-155 -601,-1 q -602,0 -605,2 -6,2 -6,9 0,2 2,6 l 533,610 q 0,1 -33,45 -33,44 -105,144 -72,100 -130,178 L 56,909 55,924 q 0,21 5,24 z" /><path
       id="MJMATHI-69-8"
       stroke-width="10"
       d="m 184,600 q 0,24 19,42 19,18 44,19 18,0 30,-12 12,-12 13,-30 0,-23 -20,-42 -20,-19 -44,-20 -15,0 -28,10 -13,10 -14,33 z M 21,287 q 0,8 9,31 9,23 24,51 15,28 44,51 29,23 60,22 39,0 65,-23 26,-23 27,-62 0,-17 -14,-56 -14,-39 -40,-105 -26,-66 -42,-113 -5,-22 -5,-32 0,-25 17,-25 9,0 19,3 10,3 23,14 13,11 27,35 14,24 25,59 3,12 5,14 2,2 17,2 20,0 20,-10 0,-8 -9,-31 -9,-23 -25,-51 -16,-28 -45,-50 -29,-22 -62,-22 -32,0 -59,21 -27,21 -28,64 0,17 5,32 5,15 43,114 38,101 44,121 6,20 7,39 0,24 -17,24 h -2 q -30,0 -55,-33 -25,-33 -38,-84 -1,-1 -2,-3 -1,-2 -1,-3 0,-1 -2,-2 -2,-1 -3,-1 -1,0 -4,0 -3,0 -8,0 H 27 q -6,6 -6,9 z" /><path
       id="MJMAIN-3D-8"
       stroke-width="10"
       d="m 56,347 q 0,13 14,20 h 637 q 15,-8 15,-20 0,-11 -14,-19 L 390,327 H 72 q -16,5 -16,20 z m 0,-194 q 0,15 16,20 h 636 q 14,-10 14,-20 0,-13 -15,-20 H 70 q -14,7 -14,20 z" /><path
       id="MJMAIN-30-50"
       stroke-width="10"
       d="m 96,585 q 56,81 153,81 48,0 96,-26 48,-26 78,-92 37,-83 37,-228 0,-155 -43,-237 -20,-42 -55,-67 -35,-25 -61,-31 -26,-6 -51,-7 -26,0 -52,6 -26,6 -61,32 -35,26 -55,67 -43,82 -43,237 0,174 57,265 z m 225,12 q -30,32 -71,32 -42,0 -72,-32 -25,-26 -33,-72 -8,-46 -8,-192 0,-158 8,-208 8,-50 36,-79 28,-30 69,-30 40,0 68,30 29,30 36,84 7,54 8,203 0,145 -8,191 -8,46 -33,73 z" /><path
       id="MJMATHI-6E-96"
       stroke-width="10"
       d="m 21,287 q 1,6 3,16 2,10 12,38 10,28 20,47 10,19 33,37 23,18 46,17 36,0 60,-18 24,-18 30,-34 6,-16 6,-21 0,-2 1,-2 l 11,11 q 61,64 139,64 54,0 87,-27 33,-27 34,-79 1,-52 -38,-157 -39,-105 -38,-127 0,-26 17,-26 6,0 9,1 29,5 52,38 23,33 35,80 2,8 20,8 20,0 20,-8 0,-1 -4,-15 -8,-29 -22,-57 -14,-28 -46,-56 -32,-28 -69,-27 -47,0 -68,27 -21,27 -21,56 0,19 36,120 36,101 37,152 0,59 -44,59 h -5 Q 288,404 229,303 L 222,291 189,157 Q 156,26 151,16 138,-11 108,-11 95,-11 87,-5 79,1 76,7 q -3,6 -2,10 0,13 38,163 38,150 40,163 1,5 1,23 0,39 -24,39 -38,0 -63,-100 -6,-20 -6,-21 -2,-6 -19,-6 H 27 q -6,6 -6,9 z" /><path
       id="MJMAIN-28-3"
       stroke-width="10"
       d="m 94,250 q 0,69 10,131 10,62 23,107 13,45 37,88 24,43 38,67 14,24 42,52 28,28 33,34 5,6 25,21 h 13 4 q 14,0 14,-9 0,-3 -17,-21 -17,-18 -41,-53 -24,-35 -49,-86 -25,-51 -42,-138 -17,-87 -17,-193 0,-106 17,-192 17,-86 41,-139 24,-53 49,-86 25,-33 42,-53 17,-20 17,-21 0,-9 -15,-9 h -3 -13 l -28,24 Q 180,-141 137,-14 94,113 94,250 Z" /><path
       id="MJMAIN-2B-8"
       stroke-width="10"
       d="m 56,237 q 0,0 0,13 0,13 14,20 h 299 v 150 l 1,150 q 10,13 19,13 13,0 20,-15 V 270 h 298 q 15,-8 15,-20 0,-12 -15,-20 H 409 V -68 q -8,-14 -18,-14 h -2 -2 q -12,0 -18,14 V 230 H 70 q -14,7 -14,20 z" /><path
       id="MJMAIN-31-5"
       stroke-width="10"
       d="m 213,578 -13,-5 q -14,-5 -40,-10 -26,-5 -58,-7 H 83 v 46 h 19 q 47,2 87,15 40,13 56,24 16,11 28,22 2,3 12,3 9,0 17,-6 V 361 l 1,-300 q 7,-7 12,-9 5,-2 24,-4 19,-2 62,-2 h 26 V 0 H 416 Q 395,3 257,3 121,3 100,0 H 88 v 46 h 26 q 22,0 38,0 16,0 25,1 9,1 16,3 7,2 8,2 1,0 6,5 5,5 6,4 z" /><path
       id="MJMAIN-29-6"
       stroke-width="10"
       d="m 60,749 4,1 q 5,0 10,0 h 12 l 28,-24 q 94,-85 137,-212 43,-127 43,-264 0,-68 -10,-131 -10,-63 -23,-107 -13,-44 -37,-88 -24,-44 -38,-67 -14,-23 -41,-51 -27,-28 -32,-33 -5,-5 -23,-19 -3,-3 -4,-4 H 74 q -8,0 -11,0 -3,0 -5,3 -2,3 -3,9 1,1 11,13 155,161 155,475 0,314 -155,475 -10,12 -11,13 0,8 5,11 z" /><path
       id="MJMAIN-32-1"
       stroke-width="10"
       d="m 109,429 q -27,0 -43,18 -16,18 -16,44 0,71 53,123 53,52 132,52 91,0 152,-56 61,-56 62,-145 0,-43 -20,-82 -20,-39 -48,-68 -28,-29 -80,-74 -36,-31 -100,-92 l -59,-56 76,-1 q 157,0 167,5 7,2 24,89 v 3 h 40 v -3 Q 448,183 436,95 424,7 421,3 V 0 H 50 v 19 12 q 0,7 6,15 6,8 30,35 29,32 50,56 9,10 34,37 25,27 34,37 9,10 29,33 20,23 28,34 8,11 23,30 15,19 21,32 6,13 15,29 9,16 13,32 4,16 7,30 3,14 3,33 0,63 -34,109 -34,46 -97,46 -33,0 -58,-17 -25,-17 -35,-33 -10,-16 -10,-19 0,-1 5,-1 18,0 37,-14 19,-14 19,-46 0,-25 -16,-42 -16,-17 -45,-18 z" /><path
       id="MJMAIN-41-1"
       stroke-width="10"
       d="M 255,0 Q 240,3 140,3 48,3 39,0 h -7 v 46 h 15 q 72,3 92,42 1,3 53,157 52,154 103,308 51,154 53,155 3,8 18,8 h 10 q 20,-1 24,-7 2,-2 108,-319 L 617,67 q 7,-13 19,-16 12,-3 51,-5 h 30 V 0 h -9 Q 699,3 581,3 458,3 437,0 h -10 v 46 h 13 q 70,0 70,18 0,2 -24,74 l -24,71 H 229 L 209,150 Q 189,91 189,85 189,72 209,59 229,46 259,46 h 5 V 0 Z M 447,255 345,557 244,256 q 0,-1 101,-1 z" /><path
       id="MJMAIN-42-59"
       stroke-width="10"
       d="m 131,622 q -7,7 -11,9 -4,2 -16,3 -12,1 -43,3 H 28 v 46 h 201 38 79 q 77,0 113,-5 36,-5 72,-27 43,-24 68,-61 25,-37 25,-78 0,-51 -41,-93 -41,-42 -107,-59 l -10,-3 q 73,-9 129,-55 56,-46 56,-115 Q 651,119 600,67 549,15 469,3 456,1 242,0 H 28 v 46 h 33 q 42,1 51,3 9,2 19,12 z M 511,513 q 0,47 -26,81 -26,34 -69,42 -1,0 -13,0 -12,0 -32,0 -20,0 -38,1 -67,0 -82,-1 -15,-1 -19,-8 -3,-4 -3,-129 V 374 h 83 l 84,1 10,2 q 4,1 11,3 7,2 25,13 18,11 32,24 14,13 25,39 11,26 12,57 z m 26,-325 q 0,51 -28,94 -28,43 -79,54 l -101,1 H 229 V 200 116 q 0,-59 5,-64 6,-5 100,-5 h 49 q 42,0 60,6 43,14 68,51 25,37 26,84 z" /><path
       id="MJMAIN-AF-8"
       stroke-width="10"
       d="m 69,544 v 46 h 361 v -46 z" /><path
       id="MJMAIN-2194-4"
       stroke-width="10"
       d="m 263,479 q 4,22 8,27 4,5 17,5 20,0 20,-11 0,-7 -5,-25 -10,-37 -25,-69 -15,-32 -32,-54 -17,-22 -31,-37 -14,-15 -30,-28 -16,-13 -20,-17 h 670 q -106,79 -139,205 -5,18 -5,25 0,11 20,11 9,0 12,-1 3,-1 6,-4 3,-3 3,-9 0,-6 3,-16 3,-10 8,-25 22,-67 73,-120 51,-53 119,-75 9,-3 9,-11 0,-6 -5,-9 -5,-3 -24,-10 -19,-7 -38,-19 -41,-26 -71,-60 -30,-34 -45,-67 -15,-33 -21,-50 -6,-17 -8,-31 -2,-10 -5,-12 -3,-2 -16,-3 -20,0 -20,11 0,7 5,25 32,126 139,205 H 165 q 2,-2 17,-14 15,-12 29,-27 14,-15 33,-37 19,-22 33,-56 14,-34 26,-71 5,-18 5,-25 0,-11 -20,-11 -7,0 -10,0 -3,0 -6,4 -3,4 -5,9 -2,5 -4,19 -18,73 -68,130 -50,57 -122,85 -15,6 -18,11 0,7 4,10 4,3 14,7 71,28 121,85 50,57 69,130 z" /><path
       id="MJMAIN-2190-8"
       stroke-width="10"
       d="m 944,261 q 0,0 0,-11 0,-11 -15,-20 H 165 q 2,-2 17,-14 15,-12 29,-27 14,-15 33,-37 19,-22 33,-56 14,-34 26,-71 5,-18 5,-25 0,-11 -20,-11 -7,0 -10,0 -3,0 -6,4 -3,4 -5,9 -2,5 -4,19 -18,73 -68,130 -50,57 -122,85 -15,6 -18,11 0,7 4,10 4,3 14,7 48,19 85,50 37,31 57,61 20,30 32,59 12,29 17,46 l 3,17 q 2,6 3,8 1,2 5,4 4,2 13,2 20,0 20,-11 0,-7 -5,-25 -10,-37 -25,-69 -15,-32 -32,-54 -17,-22 -31,-37 -14,-15 -30,-28 -16,-13 -20,-17 h 764 q 15,-9 15,-20 z" /><path
       id="MJMAIN-2192-1"
       stroke-width="10"
       d="m 56,237 q 0,0 0,13 0,13 14,20 h 765 q -116,87 -143,223 0,1 0,3 0,2 -1,3 0,12 17,12 h 3 q 9,0 12,-1 3,-1 6,-4 3,-3 3,-9 0,-6 3,-16 3,-10 8,-25 22,-67 73,-120 51,-53 119,-75 9,-3 9,-11 0,-6 -5,-9 -5,-3 -24,-10 -19,-7 -38,-19 -41,-26 -71,-60 -30,-34 -45,-67 -15,-33 -21,-50 -6,-17 -8,-31 -2,-10 -5,-12 -3,-2 -16,-3 -20,0 -20,11 0,7 5,25 32,126 139,205 H 70 q -14,7 -14,20 z" /><path
       id="MJMAIN-2212-0"
       stroke-width="10"
       d="m 84,237 q 0,0 0,13 0,13 14,20 h 581 q 15,-8 15,-20 0,-12 -15,-20 H 98 q -14,7 -14,20 z" /><path
       id="MJMATHI-41-3"
       stroke-width="10"
       d="m 208,74 q 0,-24 46,-28 18,0 18,-11 0,-1 -2,-13 Q 267,8 264,4 261,0 251,0 249,0 239,0 229,0 205,1 181,2 141,2 70,2 50,0 h -8 q -7,7 -7,11 2,27 13,35 h 14 q 70,3 102,50 6,6 181,305 175,299 178,303 7,12 24,12 h 8 17 q 6,-9 6,-10 l 28,-323 q 28,-323 30,-326 5,-11 65,-11 25,0 25,-10 0,-2 -3,-14 Q 720,7 718,4 716,1 704,0 701,0 690,0 679,0 651,1 623,2 578,2 484,2 455,0 h -12 q -6,6 -6,9 0,3 2,18 4,13 6,16 l 4,3 h 20 q 54,3 64,17 L 521,213 H 283 L 249,155 Q 208,86 208,74 Z m 308,186 q 0,11 -12,156 -12,145 -14,146 L 463,519 Q 447,492 400,412 l -90,-152 103,-1 q 103,0 103,1 z" /><path
       id="MJMATHI-42-0"
       stroke-width="10"
       d="m 231,637 q -27,0 -32,1 -5,1 -5,11 0,27 11,33 1,1 130,1 259,0 273,-2 63,-10 105,-45 42,-35 43,-92 0,-64 -58,-115 -58,-51 -133,-69 l -10,-3 q 64,-9 105,-46 41,-37 42,-92 Q 702,146 630,78 558,10 453,1 446,0 242,0 42,0 39,2 q -4,3 -4,8 0,7 2,14 5,19 10,21 4,1 15,1 h 6 q 27,0 60,3 14,3 19,12 3,4 72,278 69,274 69,289 0,7 -57,9 z m 418,-93 q 0,30 -15,56 -15,26 -49,34 -7,2 -92,3 -20,0 -42,0 -22,0 -35,-1 h -13 q -15,-1 -19,-10 -2,-4 -32,-120 0,-3 -1,-6 L 320,374 h 81 q 81,0 93,2 60,10 107,58 47,48 48,110 z M 595,229 q 0,44 -23,73 -23,29 -60,34 -6,1 -83,1 -118,0 -119,-1 0,-2 -17,-73 -17,-71 -35,-141 L 240,52 q 0,-4 12,-4 12,0 81,-2 89,0 96,1 62,7 114,58 52,51 52,124 z" /><path
       id="MJMAIN-2225-4"
       stroke-width="10"
       d="m 133,736 q 5,14 20,14 11,0 17,-11 2,-4 2,-489 0,-485 -2,-489 -6,-11 -18,-11 -8,0 -14,6 l -1,1 q -4,2 -4,64 0,62 -1,429 0,481 1,486 z m 196,3 q 5,11 17,11 7,0 15,-6 l 1,-1 q 4,-2 4,-64 0,-62 1,-429 1,-367 0,-428 -1,-61 -5,-65 l -1,-1 q -6,-6 -14,-6 -12,0 -18,11 -2,4 -2,489 0,485 2,489 z" /><path
       id="MJMATHI-43-4"
       stroke-width="10"
       d="m 50,252 q 0,115 67,221 67,106 169,168 102,62 204,63 90,0 143,-51 9,-10 15,-17 6,-7 8,-10 l 1,-3 q 3,0 27,26 7,6 15,14 8,8 16,16 8,8 10,11 l 15,15 h 6 q 14,0 14,-7 0,-4 -32,-137 -36,-139 -36,-140 -2,-5 -5,-6 -3,-1 -18,-2 h -16 q -6,6 -6,9 0,1 1,7 1,6 2,20 1,14 1,32 0,71 -32,124 -32,53 -109,54 -26,0 -56,-7 -30,-7 -72,-24 -42,-17 -83,-56 -41,-39 -73,-93 -32,-57 -51,-133 -19,-76 -19,-124 0,-114 76,-164 48,-34 118,-34 91,0 162,68 71,68 94,148 4,13 6,15 2,2 16,2 20,0 20,-9 0,-5 -1,-9 Q 618,132 523,55 428,-22 319,-22 206,-22 128,53 50,128 50,252 Z" /><path
       id="MJMATHI-44-4"
       stroke-width="10"
       d="m 287,628 q 0,7 -57,9 -23,0 -30,1 -7,1 -7,9 0,8 4,20 4,12 7,15 2,1 199,1 167,-1 187,-1 20,0 40,-6 72,-17 122,-79 50,-62 51,-166 Q 803,275 696,151 589,27 444,3 L 430,1 236,0 H 125 72 q -24,0 -31,2 -7,2 -8,9 0,2 3,14 4,16 8,18 4,2 23,3 27,0 60,3 14,3 19,12 3,4 72,278 69,274 69,289 z M 703,469 q 0,38 -11,68 -11,30 -26,47 -15,17 -37,29 -22,12 -39,16 -17,4 -35,7 -2,0 -14,0 -12,0 -29,0 -17,0 -33,1 h -43 q -44,0 -50,-10 -2,-4 -73,-288 -71,-284 -71,-287 0,-4 11,-4 11,0 77,-1 5,0 19,0 14,0 24,-1 126,0 208,82 36,36 59,84 23,48 43,127 20,79 20,130 z" /><path
       id="MJMATHI-6C"
       stroke-width="10"
       d="m 117,59 q 0,-33 25,-33 37,0 63,105 6,20 10,21 2,1 10,1 h 4 q 9,0 12,0 3,0 5,-2 2,-2 2,-7 -1,-6 -3,-16 Q 243,118 234,90 225,62 214,43 203,24 183,6 163,-12 137,-11 101,-11 70,11 39,33 38,85 q 0,12 1,17 l 65,258 q 63,255 63,263 0,3 -1,5 -1,2 -4,4 -3,2 -5,2 -2,0 -8,1 -6,1 -8,1 -2,0 -9,1 -7,1 -10,0 -10,0 -13,0 -3,0 -8,1 -5,1 -6,3 -1,2 -1,6 0,2 2,14 5,19 11,21 6,2 72,6 15,1 34,2 19,1 30,3 11,2 11,1 12,0 12,-8 0,-11 -73,-300 -73,-289 -75,-303 0,-2 0,-8 0,-6 -1,-10 z" /></defs><g
     inkscape:label="Layer 1"
     inkscape:groupmode="layer"
     id="layer1"
     transform="translate(-124.16332,-144.95575)"><g
       id="g1679"
       transform="translate(-1.7068192,101.65992)"><path
         style="fill:#000000;stroke:#000000;stroke-width:0.499999;stroke-dasharray:none;stroke-opacity:1;marker-start:url(#Arrow3);marker-end:url(#Arrow3)"
         d="m 126.34869,84.939967 h 74.56237"
         id="path1661" /><text
         xml:space="preserve"
         style="font-style:normal;font-variant:normal;font-weight:normal;font-stretch:normal;font-size:4.9389px;font-family:'Liberation Mono';-inkscape-font-specification:'Liberation Mono';text-align:center;text-anchor:middle;fill:#000000;stroke:#000000;stroke-width:0.499999;stroke-dasharray:none;stroke-opacity:1"
         x="130.38918"
         y="82.799576"
         id="text1665"><tspan
           sodipodi:role="line"
           id="tspan1663"
           style="font-style:normal;font-variant:normal;font-weight:normal;font-stretch:normal;font-family:'Noto Sans Devanagari';-inkscape-font-specification:'Noto Sans Devanagari';stroke:none;stroke-width:0.5"
           x="130.38918"
           y="82.799576">A</tspan></text><text
         xml:space="preserve"
         style="font-style:normal;font-variant:normal;font-weight:normal;font-stretch:normal;font-size:4.9389px;font-family:'Liberation Mono';-inkscape-font-specification:'Liberation Mono';text-align:center;text-anchor:middle;fill:#000000;stroke:#000000;stroke-width:0.499999;stroke-dasharray:none;stroke-opacity:1"
         x="161.55121"
         y="90.231155"
         id="text1665-6"><tspan
           sodipodi:role="line"
           id="tspan1663-7"
           style="font-style:normal;font-variant:normal;font-weight:normal;font-stretch:normal;font-family:'Noto Sans Devanagari';-inkscape-font-specification:'Noto Sans Devanagari';stroke:none;stroke-width:0.5"
           x="161.55121"
           y="90.231155">O</tspan></text><text
         xml:space="preserve"
         style="font-style:normal;font-variant:normal;font-weight:normal;font-stretch:normal;font-size:4.9389px;font-family:'Liberation Mono';-inkscape-font-specification:'Liberation Mono';text-align:center;text-anchor:middle;fill:#000000;stroke:#000000;stroke-width:0.499999;stroke-dasharray:none;stroke-opacity:1"
         x="196.67393"
         y="82.799576"
         id="text1669"><tspan
           sodipodi:role="line"
           id="tspan1667"
           style="font-style:normal;font-variant:normal;font-weight:normal;font-stretch:normal;font-family:'Noto Sans Devanagari';-inkscape-font-specification:'Noto Sans Devanagari';stroke:none;stroke-width:0.5"
           x="196.67393"
           y="82.799576">B</tspan></text><text
         xml:space="preserve"
         style="font-size:4.93889px;font-family:'Liberation Mono';-inkscape-font-specification:'Liberation Mono';text-align:center;text-anchor:middle;fill:#000000;stroke:#000000;stroke-width:0.499999;stroke-dasharray:none;stroke-opacity:1"
         x="204.05695"
         y="86.729347"
         id="text1673"><tspan
           sodipodi:role="line"
           id="tspan1671"
           style="font-style:normal;font-variant:normal;font-weight:normal;font-stretch:normal;font-size:4.93889px;font-family:'Liberation Mono';-inkscape-font-specification:'Liberation Mono';stroke:none;stroke-width:0.5"
           x="204.05695"
           y="86.729347">l</tspan></text><circle
         style="fill:#000000;stroke:#000000;stroke-width:0.398453;stroke-dasharray:none;stroke-opacity:1"
         id="circle1675"
         cx="130.38918"
         cy="84.939964"
         r="0.55288589" /><circle
         style="fill:#000000;stroke:#000000;stroke-width:0.398453;stroke-dasharray:none;stroke-opacity:1"
         id="circle1677"
         cx="196.67393"
         cy="84.939964"
         r="0.55288589" /><circle
         style="fill:#000000;stroke:#000000;stroke-width:0.398453;stroke-dasharray:none;stroke-opacity:1"
         id="circle1677-3"
         cx="165.31824"
         cy="84.939964"
         r="0.55288589" /></g><path
       style="fill:#000000;stroke:#000000;stroke-width:0.499999;stroke-dasharray:0.999998, 0.499999;stroke-dashoffset:0;stroke-opacity:1;marker-start:url(#Arrow3);marker-end:url(#Arrow3)"
       d="m 163.86142,145.4343 v 74.56237"
       id="path1681" /><text
       xml:space="preserve"
       style="font-style:normal;font-variant:normal;font-weight:normal;font-stretch:normal;font-size:4.9389px;font-family:'Liberation Mono';-inkscape-font-specification:'Liberation Mono';text-align:center;text-anchor:middle;fill:#000000;stroke:#000000;stroke-width:0.499999;stroke-dasharray:none;stroke-opacity:1"
       x="167.77487"
       y="151.24266"
       id="text1685"><tspan
         sodipodi:role="line"
         id="tspan1683"
         style="font-style:normal;font-variant:normal;font-weight:normal;font-stretch:normal;font-family:'Noto Sans Devanagari';-inkscape-font-specification:'Noto Sans Devanagari';stroke:none;stroke-width:0.5"
         x="167.77487"
         y="151.24266">C</tspan></text><text
       xml:space="preserve"
       style="font-style:normal;font-variant:normal;font-weight:normal;font-stretch:normal;font-size:4.9389px;font-family:'Liberation Mono';-inkscape-font-specification:'Liberation Mono';text-align:center;text-anchor:middle;fill:#000000;stroke:#000000;stroke-width:0.499999;stroke-dasharray:none;stroke-opacity:1"
       x="167.65881"
       y="217.62866"
       id="text1689"><tspan
         sodipodi:role="line"
         id="tspan1687"
         style="font-style:normal;font-variant:normal;font-weight:normal;font-stretch:normal;font-family:'Noto Sans Devanagari';-inkscape-font-specification:'Noto Sans Devanagari';stroke:none;stroke-width:0.5"
         x="167.65881"
         y="217.62866">D</tspan></text><text
       xml:space="preserve"
       style="font-size:4.93889px;font-family:'Liberation Mono';-inkscape-font-specification:'Liberation Mono';text-align:center;text-anchor:middle;fill:#000000;stroke:#000000;stroke-width:0.499999;stroke-dasharray:none;stroke-opacity:1"
       x="163.67574"
       y="225.64653"
       id="text1693"><tspan
         sodipodi:role="line"
         id="tspan1691"
         style="font-style:normal;font-variant:normal;font-weight:normal;font-stretch:normal;font-size:4.93889px;font-family:'Liberation Mono';-inkscape-font-specification:'Liberation Mono';stroke:none;stroke-width:0.5"
         x="163.67574"
         y="225.64653">m</tspan></text><circle
       style="fill:#000000;stroke:#000000;stroke-width:0.398453;stroke-dasharray:none;stroke-opacity:1"
       id="circle1695"
       cx="149.47453"
       cy="-163.86142"
       r="0.55288589"
       transform="rotate(90)" /><circle
       style="fill:#000000;stroke:#000000;stroke-width:0.398453;stroke-dasharray:none;stroke-opacity:1"
       id="circle1697"
       cx="215.75929"
       cy="-163.86142"
       r="0.55288589"
       transform="rotate(90)" /><rect
       style="fill:none;stroke:#000000;stroke-width:0.499999;stroke-dasharray:none;stroke-opacity:1"
       id="rect1826"
       width="3.8935854"
       height="3.884402"
       x="163.86142"
       y="182.71547" /><text
       xml:space="preserve"
       style="font-weight:bold;font-size:3.52778px;font-family:'Noto Sans Devanagari UI';-inkscape-font-specification:'Noto Sans Devanagari UI Bold';text-align:center;text-anchor:middle;fill:#000000;stroke-width:0.499999;stroke-linejoin:round;stroke-dasharray:0.999998, 0.499999;stroke-dashoffset:0"
       x="185.53479"
       y="162.11961"
       id="text1100"><tspan
         sodipodi:role="line"
         id="tspan1098"
         style="font-style:normal;font-variant:normal;font-weight:normal;font-stretch:normal;font-size:3.52778px;font-family:'Noto Sans Devanagari UI';-inkscape-font-specification:'Noto Sans Devanagari UI';stroke-width:0.5"
         x="185.53479"
         y="162.11961">AB ⊥ CD</tspan><tspan
         sodipodi:role="line"
         style="font-style:normal;font-variant:normal;font-weight:bold;font-stretch:normal;font-size:3.52778px;font-family:'Noto Sans Devanagari UI';-inkscape-font-specification:'Noto Sans Devanagari UI Bold';stroke-width:0.5"
         x="185.53479"
         y="166.61792"
         id="tspan1152">या</tspan><tspan
         sodipodi:role="line"
         style="font-style:normal;font-variant:normal;font-weight:normal;font-stretch:normal;font-size:3.52778px;font-family:'Noto Sans Devanagari UI';-inkscape-font-specification:'Noto Sans Devanagari UI';stroke-width:0.5"
         x="185.53479"
         y="171.02765"
         id="tspan1154">रेखा AB रेखा CD पर लंब</tspan></text><text
       xml:space="preserve"
       style="font-weight:bold;font-size:3.52778px;font-family:'Noto Sans Devanagari UI';-inkscape-font-specification:'Noto Sans Devanagari UI Bold';text-align:center;text-anchor:middle;fill:#000000;stroke-width:0.499999;stroke-linejoin:round;stroke-dasharray:0.999998, 0.499999;stroke-dashoffset:0"
       x="143.86707"
       y="205.15192"
       id="text1100-5"><tspan
         sodipodi:role="line"
         style="font-style:normal;font-variant:normal;font-weight:normal;font-stretch:normal;font-size:3.52778px;font-family:'Noto Sans Devanagari UI';-inkscape-font-specification:'Noto Sans Devanagari UI';stroke-width:0.5"
         x="143.86707"
         y="205.15192"
         id="tspan1154-6">रेखा CO ऱेखाखंड का</tspan><tspan
         sodipodi:role="line"
         style="font-style:normal;font-variant:normal;font-weight:bold;font-stretch:normal;font-size:3.52778px;font-family:'Noto Sans Devanagari UI';-inkscape-font-specification:'Noto Sans Devanagari UI';stroke-width:0.5"
         x="143.86707"
         y="209.60349"
         id="tspan1253">लंब समद्विभाजक</tspan></text></g></svg>
