<?xml version="1.0" encoding="UTF-8" standalone="no"?>
<!-- Created with Inkscape (http://www.inkscape.org/) -->

<svg
   version="1.1"
   id="svg20599"
   width="150.34309"
   height="149.23396"
   viewBox="0 0 150.34309 149.23396"
   sodipodi:docname="CH7.6_Q5_2.svg"
   inkscape:version="1.2.2 (b0a8486541, 2022-12-01)"
   xmlns:inkscape="http://www.inkscape.org/namespaces/inkscape"
   xmlns:sodipodi="http://sodipodi.sourceforge.net/DTD/sodipodi-0.dtd"
   xmlns="http://www.w3.org/2000/svg"
   xmlns:svg="http://www.w3.org/2000/svg">
  <defs
     id="defs20603">
    <clipPath
       clipPathUnits="userSpaceOnUse"
       id="clipPath20735">
      <path
         d="m 158.4,707.52 h 12 v -30.96 h -12 z"
         id="path20733" />
    </clipPath>
    <clipPath
       clipPathUnits="userSpaceOnUse"
       id="clipPath20767">
      <path
         d="m 290.88,707.52 h 11.04 v -30.96 h -11.04 z"
         id="path20765" />
    </clipPath>
    <clipPath
       clipPathUnits="userSpaceOnUse"
       id="clipPath20811">
      <path
         d="m 195.36,660.72 h 52.08 v -30.96 h -52.08 z"
         id="path20809" />
    </clipPath>
    <clipPath
       clipPathUnits="userSpaceOnUse"
       id="clipPath20871">
      <path
         d="m 273.36,660.72 h 52.08 v -30.96 h -52.08 z"
         id="path20869" />
    </clipPath>
    <clipPath
       clipPathUnits="userSpaceOnUse"
       id="clipPath20931">
      <path
         d="m 356.4,660.72 h 53.04 V 629.76 H 356.4 Z"
         id="path20929" />
    </clipPath>
    <clipPath
       clipPathUnits="userSpaceOnUse"
       id="clipPath20999">
      <path
         d="m 98.88,596.88 h 114 V 483.84 h -114 z"
         id="path20997" />
    </clipPath>
    <clipPath
       clipPathUnits="userSpaceOnUse"
       id="clipPath21141">
      <path
         d="m 265.44,596.64 h 114 v -112.8 h -114 z"
         id="path21139" />
    </clipPath>
    <clipPath
       clipPathUnits="userSpaceOnUse"
       id="clipPath21279">
      <path
         d="M 78,469.68 H 90 V 438.72 H 78 Z"
         id="path21277" />
    </clipPath>
    <clipPath
       clipPathUnits="userSpaceOnUse"
       id="clipPath21311">
      <path
         d="m 335.52,469.68 h 12 v -30.96 h -12 z"
         id="path21309" />
    </clipPath>
    <clipPath
       clipPathUnits="userSpaceOnUse"
       id="clipPath21351">
      <path
         d="m 210,416.64 h 16.079 V 385.68 H 210 Z"
         id="path21349" />
    </clipPath>
    <clipPath
       clipPathUnits="userSpaceOnUse"
       id="clipPath21379">
      <path
         d="M 78,380.16 H 90 V 349.2 H 78 Z"
         id="path21377" />
    </clipPath>
    <clipPath
       clipPathUnits="userSpaceOnUse"
       id="clipPath21419">
      <path
         d="m 273.84,326.4 h 12 v -30.96 h -12 z"
         id="path21417" />
    </clipPath>
    <clipPath
       clipPathUnits="userSpaceOnUse"
       id="clipPath21451">
      <path
         d="m 213.36,289.2 h 12 v -30.96 h -12 z"
         id="path21449" />
    </clipPath>
    <clipPath
       clipPathUnits="userSpaceOnUse"
       id="clipPath21491">
      <path
         d="m 196.08,239.04 h 18.96 v -30.96 h -18.96 z"
         id="path21489" />
    </clipPath>
    <clipPath
       clipPathUnits="userSpaceOnUse"
       id="clipPath21527">
      <path
         d="m 94.32,209.04 h 12 v -30.96 h -12 z"
         id="path21525" />
    </clipPath>
    <clipPath
       clipPathUnits="userSpaceOnUse"
       id="clipPath21579">
      <path
         d="m 360.998,297 h 99.101 v 41.05 h -99.101 z"
         id="path21577" />
    </clipPath>
  </defs>
  <sodipodi:namedview
     id="namedview20601"
     pagecolor="#ffffff"
     bordercolor="#000000"
     borderopacity="0.25"
     inkscape:showpageshadow="2"
     inkscape:pageopacity="0.0"
     inkscape:pagecheckerboard="0"
     inkscape:deskcolor="#d1d1d1"
     showgrid="false"
     inkscape:zoom="0.6789108"
     inkscape:cx="146.55828"
     inkscape:cy="-46.397848"
     inkscape:window-width="956"
     inkscape:window-height="1004"
     inkscape:window-x="0"
     inkscape:window-y="0"
     inkscape:window-maximized="0"
     inkscape:current-layer="g20605" />
  <g
     id="g20605"
     inkscape:groupmode="layer"
     inkscape:label="Mathematics VI HI4"
     transform="matrix(1.3333333,0,0,-1.3333333,-355.24035,795.10908)">
    <g
       id="g21135">
      <g
         id="g21137"
         clip-path="url(#clipPath21141)">
        <g
           id="g21143"
           transform="matrix(0.240214,0,0,0.239787,285.792,577.636)">
          <path
             d="M 0,0 H 128.95 V -128.94 H 0 Z"
             style="fill:none;stroke:#231f20;stroke-width:4.163;stroke-linecap:butt;stroke-linejoin:miter;stroke-miterlimit:2.613;stroke-dasharray:none;stroke-opacity:1"
             id="path21145" />
        </g>
        <g
           id="g21147"
           transform="matrix(0.240214,0,0,0.239787,285.792,546.732)">
          <path
             d="M 0,0 H 128.95 V -128.95 H 0 Z"
             style="fill:none;stroke:#231f20;stroke-width:4.163;stroke-linecap:butt;stroke-linejoin:miter;stroke-miterlimit:2.613;stroke-dasharray:none;stroke-opacity:1"
             id="path21149" />
        </g>
        <g
           id="g21151"
           transform="matrix(0.240214,0,0,0.239787,285.792,515.826)">
          <path
             d="M 0,0 H 128.95 V -128.95 H 0 Z"
             style="fill:none;stroke:#231f20;stroke-width:4.163;stroke-linecap:butt;stroke-linejoin:miter;stroke-miterlimit:2.613;stroke-dasharray:none;stroke-opacity:1"
             id="path21153" />
        </g>
        <g
           id="g21155"
           transform="matrix(0.240214,0,0,0.239787,316.753,577.636)">
          <path
             d="M 0,0 H 128.94 V -128.94 H 0 Z"
             style="fill:none;stroke:#231f20;stroke-width:4.163;stroke-linecap:butt;stroke-linejoin:miter;stroke-miterlimit:2.613;stroke-dasharray:none;stroke-opacity:1"
             id="path21157" />
        </g>
        <g
           id="g21159"
           transform="matrix(0.240214,0,0,0.239787,316.753,546.732)">
          <path
             d="M 0,0 H 128.94 V -128.95 H 0 Z"
             style="fill:none;stroke:#231f20;stroke-width:4.163;stroke-linecap:butt;stroke-linejoin:miter;stroke-miterlimit:2.613;stroke-dasharray:none;stroke-opacity:1"
             id="path21161" />
        </g>
        <g
           id="g21163"
           transform="matrix(0.240214,0,0,0.239787,316.753,515.826)">
          <path
             d="M 0,0 H 128.94 V -128.95 H 0 Z"
             style="fill:none;stroke:#231f20;stroke-width:4.163;stroke-linecap:butt;stroke-linejoin:miter;stroke-miterlimit:2.613;stroke-dasharray:none;stroke-opacity:1"
             id="path21165" />
        </g>
        <g
           id="g21167"
           transform="matrix(0.240214,0,0,0.239787,347.712,577.636)">
          <path
             d="M 0,0 H 128.95 V -128.94 H 0 Z"
             style="fill:none;stroke:#231f20;stroke-width:4.163;stroke-linecap:butt;stroke-linejoin:miter;stroke-miterlimit:2.613;stroke-dasharray:none;stroke-opacity:1"
             id="path21169" />
        </g>
        <g
           id="g21171"
           transform="matrix(0.240214,0,0,0.239787,347.712,546.732)">
          <path
             d="M 0,0 H 128.95 V -128.95 H 0 Z"
             style="fill:none;stroke:#231f20;stroke-width:4.163;stroke-linecap:butt;stroke-linejoin:miter;stroke-miterlimit:2.613;stroke-dasharray:none;stroke-opacity:1"
             id="path21173" />
        </g>
        <g
           id="g21175"
           transform="matrix(0.240214,0,0,0.239787,347.712,515.826)">
          <path
             d="M 0,0 H 128.95 V -128.95 H 0 Z"
             style="fill:none;stroke:#231f20;stroke-width:4.163;stroke-linecap:butt;stroke-linejoin:miter;stroke-miterlimit:2.613;stroke-dasharray:none;stroke-opacity:1"
             id="path21177" />
        </g>
        <g
           id="g21179"
           transform="matrix(0.24,0,0,0.24,299.971,571.788)">
          <path
             d="m 0,0 8.05,3.93 h 0.81 v -27.91 c 0,-1.84 0.08,-3.01 0.23,-3.46 0.16,-0.45 0.48,-0.8 0.96,-1.05 0.5,-0.24 1.49,-0.38 2.99,-0.42 V -29.8 H 0.58 v 0.89 c 1.57,0.04 2.58,0.17 3.04,0.41 0.45,0.23 0.76,0.55 0.95,0.95 0.17,0.4 0.26,1.59 0.26,3.57 v 17.84 c 0,2.4 -0.08,3.94 -0.24,4.63 -0.11,0.52 -0.33,0.9 -0.63,1.15 C 3.67,-0.12 3.31,0 2.88,0 2.28,0 1.44,-0.25 0.37,-0.75 L 0,0"
             style="fill:#231f20;fill-opacity:1;fill-rule:evenodd;stroke:none"
             id="path21181" />
        </g>
        <g
           id="g21183"
           transform="matrix(0.24,0,0,0.24,304.066,552.898)">
          <path
             d="m 0,0 -2.31,-6.36 h -19.54 v 0.89 c 5.75,5.23 9.8,9.51 12.14,12.82 2.34,3.32 3.51,6.35 3.51,9.09 0,2.1 -0.64,3.82 -1.93,5.17 -1.29,1.35 -2.81,2.02 -4.61,2.02 -1.63,0 -3.09,-0.48 -4.38,-1.42 -1.29,-0.95 -2.25,-2.35 -2.87,-4.18 h -0.9 c 0.4,3.01 1.45,5.31 3.14,6.92 1.68,1.61 3.78,2.42 6.31,2.42 2.68,0 4.92,-0.87 6.71,-2.59 1.81,-1.72 2.71,-3.75 2.71,-6.09 0,-1.67 -0.4,-3.35 -1.18,-5.02 -1.2,-2.63 -3.16,-5.42 -5.86,-8.36 -4.04,-4.42 -6.58,-7.09 -7.58,-8 h 8.63 c 1.76,0 3,0.07 3.7,0.2 0.71,0.13 1.35,0.39 1.92,0.79 0.57,0.4 1.07,0.97 1.49,1.7 L 0,0"
             style="fill:#231f20;fill-opacity:1;fill-rule:evenodd;stroke:none"
             id="path21185" />
        </g>
        <g
           id="g21187"
           transform="matrix(0.240214,0,0,0.239787,294.987,562.1)">
          <path
             d="M 0,0 H 52.39"
             style="fill:none;stroke:#231f20;stroke-width:4.163;stroke-linecap:butt;stroke-linejoin:miter;stroke-miterlimit:2.613;stroke-dasharray:none;stroke-opacity:1"
             id="path21189" />
        </g>
        <g
           id="g21191"
           transform="matrix(0.24,0,0,0.24,299.971,540.883)">
          <path
             d="m 0,0 8.05,3.93 h 0.81 v -27.91 c 0,-1.85 0.08,-3.01 0.23,-3.47 0.16,-0.44 0.48,-0.79 0.96,-1.04 0.5,-0.24 1.49,-0.39 2.99,-0.42 V -29.8 H 0.58 v 0.89 c 1.57,0.03 2.58,0.17 3.04,0.41 0.45,0.23 0.76,0.55 0.95,0.95 0.17,0.4 0.26,1.58 0.26,3.57 v 17.84 c 0,2.4 -0.08,3.94 -0.24,4.62 C 4.48,-0.99 4.26,-0.61 3.96,-0.37 3.67,-0.13 3.31,0 2.88,0 2.28,0 1.44,-0.25 0.37,-0.76 L 0,0"
             style="fill:#231f20;fill-opacity:1;fill-rule:evenodd;stroke:none"
             id="path21193" />
        </g>
        <g
           id="g21195"
           transform="matrix(0.24,0,0,0.24,299.174,526.886)">
          <path
             d="m 0,0 c 0.94,2.22 2.14,3.94 3.58,5.15 1.44,1.22 3.23,1.82 5.38,1.82 2.65,0 4.68,-0.87 6.1,-2.58 1.07,-1.29 1.61,-2.66 1.61,-4.12 0,-2.41 -1.52,-4.89 -4.54,-7.45 2.03,-0.8 3.57,-1.94 4.61,-3.43 1.04,-1.47 1.57,-3.21 1.57,-5.21 0,-2.85 -0.91,-5.33 -2.74,-7.43 -2.37,-2.73 -5.81,-4.09 -10.32,-4.09 -2.23,0 -3.75,0.27 -4.56,0.82 -0.8,0.56 -1.2,1.15 -1.2,1.78 0,0.48 0.19,0.89 0.57,1.25 0.38,0.36 0.84,0.53 1.38,0.53 0.4,0 0.82,-0.06 1.25,-0.19 0.27,-0.08 0.89,-0.38 1.88,-0.89 0.98,-0.52 1.65,-0.81 2.02,-0.91 0.6,-0.19 1.24,-0.27 1.93,-0.27 1.65,0 3.1,0.64 4.33,1.92 1.23,1.28 1.84,2.8 1.84,4.56 0,1.28 -0.29,2.54 -0.85,3.75 -0.43,0.91 -0.89,1.6 -1.39,2.07 -0.7,0.65 -1.66,1.24 -2.88,1.77 -1.22,0.53 -2.47,0.79 -3.74,0.79 H 5.05 v 0.74 c 1.28,0.15 2.58,0.62 3.87,1.39 1.29,0.75 2.23,1.67 2.82,2.75 0.58,1.07 0.88,2.25 0.88,3.53 0,1.68 -0.53,3.02 -1.58,4.05 C 9.99,3.14 8.69,3.65 7.13,3.65 4.6,3.65 2.5,2.3 0.8,-0.39 L 0,0"
             style="fill:#231f20;fill-opacity:1;fill-rule:evenodd;stroke:none"
             id="path21197" />
        </g>
        <g
           id="g21199"
           transform="matrix(0.240214,0,0,0.239787,294.987,531.194)">
          <path
             d="M 0,0 H 52.39"
             style="fill:none;stroke:#231f20;stroke-width:4.163;stroke-linecap:butt;stroke-linejoin:miter;stroke-miterlimit:2.613;stroke-dasharray:none;stroke-opacity:1"
             id="path21201" />
        </g>
        <g
           id="g21203"
           transform="matrix(0.24,0,0,0.24,330.931,571.788)">
          <path
             d="m 0,0 8.05,3.93 h 0.81 v -27.91 c 0,-1.84 0.08,-3.01 0.23,-3.46 0.16,-0.45 0.48,-0.8 0.96,-1.05 0.5,-0.24 1.49,-0.38 2.99,-0.42 V -29.8 H 0.58 v 0.89 c 1.57,0.04 2.58,0.17 3.04,0.41 0.45,0.23 0.76,0.55 0.95,0.95 0.17,0.4 0.26,1.59 0.26,3.57 v 17.84 c 0,2.4 -0.08,3.94 -0.24,4.63 -0.11,0.52 -0.33,0.9 -0.63,1.15 C 3.67,-0.12 3.31,0 2.88,0 2.28,0 1.44,-0.25 0.37,-0.75 L 0,0"
             style="fill:#231f20;fill-opacity:1;fill-rule:evenodd;stroke:none"
             id="path21205" />
        </g>
        <g
           id="g21207"
           transform="matrix(0.24,0,0,0.24,330.134,557.794)">
          <path
             d="m 0,0 c 0.94,2.22 2.14,3.94 3.58,5.15 1.44,1.21 3.23,1.82 5.38,1.82 2.65,0 4.68,-0.87 6.1,-2.59 1.07,-1.28 1.61,-2.66 1.61,-4.12 0,-2.4 -1.52,-4.89 -4.54,-7.45 2.03,-0.8 3.57,-1.94 4.61,-3.42 1.04,-1.48 1.57,-3.21 1.57,-5.22 0,-2.85 -0.91,-5.33 -2.74,-7.43 -2.37,-2.72 -5.81,-4.09 -10.32,-4.09 -2.23,0 -3.75,0.28 -4.56,0.83 -0.8,0.55 -1.2,1.14 -1.2,1.77 0,0.48 0.19,0.9 0.57,1.25 0.38,0.36 0.84,0.54 1.38,0.54 0.4,0 0.82,-0.07 1.25,-0.2 0.27,-0.08 0.89,-0.38 1.88,-0.89 0.98,-0.51 1.65,-0.81 2.02,-0.91 0.6,-0.18 1.24,-0.27 1.93,-0.27 1.65,0 3.1,0.64 4.33,1.93 1.23,1.28 1.84,2.8 1.84,4.55 0,1.29 -0.29,2.54 -0.85,3.75 -0.43,0.91 -0.89,1.6 -1.39,2.07 -0.7,0.66 -1.66,1.25 -2.88,1.77 -1.22,0.53 -2.47,0.8 -3.74,0.8 H 5.05 v 0.73 c 1.28,0.16 2.58,0.62 3.87,1.39 1.29,0.76 2.23,1.68 2.82,2.75 0.58,1.08 0.88,2.25 0.88,3.53 0,1.68 -0.53,3.03 -1.58,4.06 C 9.99,3.13 8.69,3.65 7.13,3.65 4.6,3.65 2.5,2.3 0.8,-0.4 L 0,0"
             style="fill:#231f20;fill-opacity:1;fill-rule:evenodd;stroke:none"
             id="path21209" />
        </g>
        <g
           id="g21211"
           transform="matrix(0.240214,0,0,0.239787,325.946,562.1)">
          <path
             d="M 0,0 H 52.39"
             style="fill:none;stroke:#231f20;stroke-width:4.163;stroke-linecap:butt;stroke-linejoin:miter;stroke-miterlimit:2.613;stroke-dasharray:none;stroke-opacity:1"
             id="path21213" />
        </g>
        <g
           id="g21215"
           transform="matrix(0.24,0,0,0.24,330.931,540.883)">
          <path
             d="m 0,0 8.05,3.93 h 0.81 v -27.91 c 0,-1.85 0.08,-3.01 0.23,-3.47 0.16,-0.44 0.48,-0.79 0.96,-1.04 0.5,-0.24 1.49,-0.39 2.99,-0.42 V -29.8 H 0.58 v 0.89 c 1.57,0.03 2.58,0.17 3.04,0.41 0.45,0.23 0.76,0.55 0.95,0.95 0.17,0.4 0.26,1.58 0.26,3.57 v 17.84 c 0,2.4 -0.08,3.94 -0.24,4.62 C 4.48,-0.99 4.26,-0.61 3.96,-0.37 3.67,-0.13 3.31,0 2.88,0 2.28,0 1.44,-0.25 0.37,-0.76 L 0,0"
             style="fill:#231f20;fill-opacity:1;fill-rule:evenodd;stroke:none"
             id="path21217" />
        </g>
        <g
           id="g21219"
           transform="matrix(0.24,0,0,0.24,335.107,523.39)">
          <path
             d="m 0,0 v -3.46 h -4.44 v -8.73 h -4.03 v 8.73 h -14.01 v 3.12 l 15.36,21.88 h 2.68 L -4.44,0 Z M -8.47,0 V 16.4 L -20.08,0 h 11.61"
             style="fill:#231f20;fill-opacity:1;fill-rule:evenodd;stroke:none"
             id="path21221" />
        </g>
        <g
           id="g21223"
           transform="matrix(0.240214,0,0,0.239787,325.946,531.194)">
          <path
             d="M 0,0 H 52.39"
             style="fill:none;stroke:#231f20;stroke-width:4.163;stroke-linecap:butt;stroke-linejoin:miter;stroke-miterlimit:2.613;stroke-dasharray:none;stroke-opacity:1"
             id="path21225" />
        </g>
        <g
           id="g21227"
           transform="matrix(0.240214,0,0,0.239787,274.252,569.771)">
          <path
             d="M 0,0 V -303.18"
             style="fill:none;stroke:#231f20;stroke-width:4.163;stroke-linecap:butt;stroke-linejoin:miter;stroke-miterlimit:2.613;stroke-dasharray:none;stroke-opacity:1"
             id="path21229" />
        </g>
        <g
           id="g21231"
           transform="matrix(0.24,0,0,0.24,274.25,493.533)">
          <path
             d="m 0,0 12.6,29.34 c -8.4,-4.19 -16.79,-4.19 -25.2,0 L 0,0"
             style="fill:#231f20;fill-opacity:1;fill-rule:evenodd;stroke:none"
             id="path21233" />
        </g>
        <g
           id="g21235"
           transform="matrix(0.240214,0,0,0.239787,293.056,588.525)">
          <path
             d="M 0,0 H 303.18"
             style="fill:none;stroke:#231f20;stroke-width:4.163;stroke-linecap:butt;stroke-linejoin:miter;stroke-miterlimit:2.613;stroke-dasharray:none;stroke-opacity:1"
             id="path21237" />
        </g>
        <g
           id="g21239"
           transform="matrix(0.24,0,0,0.24,369.427,588.523)">
          <path
             d="m 0,0 -29.4,12.58 c 4.2,-8.38 4.2,-16.77 0,-25.15 L 0,0"
             style="fill:#231f20;fill-opacity:1;fill-rule:evenodd;stroke:none"
             id="path21241" />
        </g>
        <g
           id="g21243"
           transform="matrix(0.24,0,0,0.24,274.25,538.961)">
          <path
             d="m 0,0 c 16.81,0 30.51,-13.68 30.51,-30.45 0,-16.77 -13.7,-30.46 -30.51,-30.46 -16.8,0 -30.5,13.69 -30.5,30.46 C -30.5,-13.68 -16.8,0 0,0"
             style="fill:#ffffff;fill-opacity:1;fill-rule:evenodd;stroke:none"
             id="path21245" />
        </g>
        <g
           id="g21247"
           transform="matrix(0.240214,0,0,0.239787,274.252,538.96)">
          <path
             d="m 0,0 c 16.79,0 30.48,-13.69 30.48,-30.48 0,-16.79 -13.69,-30.48 -30.48,-30.48 -16.79,0 -30.48,13.69 -30.48,30.48 C -30.48,-13.69 -16.79,0 0,0 Z"
             style="fill:none;stroke:#231f20;stroke-width:4.163;stroke-linecap:butt;stroke-linejoin:miter;stroke-miterlimit:2.613;stroke-dasharray:none;stroke-opacity:1"
             id="path21249" />
        </g>
        <g
           id="g21251"
           transform="matrix(0.24,0,0,0.24,323.918,588.523)">
          <path
             d="M 0,0 C 0,16.78 13.71,30.46 30.51,30.46 47.32,30.46 61.02,16.78 61.02,0 61.02,-16.77 47.32,-30.45 30.51,-30.45 13.71,-30.45 0,-16.77 0,0"
             style="fill:#ffffff;fill-opacity:1;fill-rule:evenodd;stroke:none"
             id="path21253" />
        </g>
        <g
           id="g21255"
           transform="matrix(0.240214,0,0,0.239787,323.921,588.524)">
          <path
             d="M 0,0 C 0,16.79 13.69,30.48 30.48,30.48 47.27,30.48 60.96,16.79 60.96,0 60.96,-16.79 47.27,-30.49 30.48,-30.49 13.69,-30.49 0,-16.79 0,0 Z"
             style="fill:none;stroke:#231f20;stroke-width:4.163;stroke-linecap:butt;stroke-linejoin:miter;stroke-miterlimit:2.613;stroke-dasharray:none;stroke-opacity:1"
             id="path21257" />
        </g>
        <g
           id="g21259"
           transform="matrix(0.24,0,0,0.24,-1.22e-4,-4.27e-4)">
          <path
             d="m 1128.78,2211.29 h 25.855 v 1.781 h -25.855 z"
             style="fill:#231f20;fill-opacity:1;fill-rule:evenodd;stroke:none"
             id="path21261" />
        </g>
        <g
           id="g21263"
           transform="matrix(0.24,0,0,0.24,334.776,588.545)">
          <path
             d="m 0,0 h -12.18 v -12.13 h -2 V 0 h -12.13 v 1.96 h 12.13 v 12.18 h 2 V 1.96 H 0 V 0"
             style="fill:#231f20;fill-opacity:1;fill-rule:evenodd;stroke:none"
             id="path21265" />
        </g>
      </g>
    </g>
  </g>
</svg>
