<?xml version="1.0" encoding="UTF-8" standalone="no"?>
<!-- Created with Inkscape (http://www.inkscape.org/) -->

<svg
   version="1.1"
   id="svg2"
   width="464.41699"
   height="36.008469"
   viewBox="0 0 464.41699 36.008468"
   sodipodi:docname="CH8.1_Q7.svg"
   inkscape:version="1.2.2 (b0a8486541, 2022-12-01)"
   xmlns:inkscape="http://www.inkscape.org/namespaces/inkscape"
   xmlns:sodipodi="http://sodipodi.sourceforge.net/DTD/sodipodi-0.dtd"
   xmlns="http://www.w3.org/2000/svg"
   xmlns:svg="http://www.w3.org/2000/svg">
  <defs
     id="defs6">
    <clipPath
       clipPathUnits="userSpaceOnUse"
       id="clipPath42">
      <path
         d="m 42.249,195.099 h 36.6 v 417.599 h -36.6 z"
         id="path40" />
    </clipPath>
    <clipPath
       clipPathUnits="userSpaceOnUse"
       id="clipPath132">
      <path
         d="m 444,684.48 h 18 v -31.92 h -18 z"
         id="path130" />
    </clipPath>
    <clipPath
       clipPathUnits="userSpaceOnUse"
       id="clipPath288">
      <path
         d="m 192.48,429.84 h 16.08 v -31.2 h -16.08 z"
         id="path286" />
    </clipPath>
    <clipPath
       clipPathUnits="userSpaceOnUse"
       id="clipPath316">
      <path
         d="m 299.28,429.84 h 18 v -31.2 h -18 z"
         id="path314" />
    </clipPath>
    <clipPath
       clipPathUnits="userSpaceOnUse"
       id="clipPath344">
      <path
         d="m 426,430.32 h 18 V 398.4 h -18 z"
         id="path342" />
    </clipPath>
    <clipPath
       clipPathUnits="userSpaceOnUse"
       id="clipPath372">
      <path
         d="m 218.16,391.92 h 18 V 360 h -18 z"
         id="path370" />
    </clipPath>
    <clipPath
       clipPathUnits="userSpaceOnUse"
       id="clipPath400">
      <path
         d="m 279.6,391.92 h 18.96 V 360 H 279.6 Z"
         id="path398" />
    </clipPath>
    <clipPath
       clipPathUnits="userSpaceOnUse"
       id="clipPath428">
      <path
         d="m 349.44,391.44 h 24 v -31.2 h -24 z"
         id="path426" />
    </clipPath>
    <clipPath
       clipPathUnits="userSpaceOnUse"
       id="clipPath460">
      <path
         d="m 423.84,391.92 h 12 V 360 h -12 z"
         id="path458" />
    </clipPath>
    <clipPath
       clipPathUnits="userSpaceOnUse"
       id="clipPath492">
      <path
         d="m 193.44,353.52 h 12 V 321.6 h -12 z"
         id="path490" />
    </clipPath>
    <clipPath
       clipPathUnits="userSpaceOnUse"
       id="clipPath524">
      <path
         d="m 281.76,353.04 h 16.08 v -31.2 h -16.08 z"
         id="path522" />
    </clipPath>
    <clipPath
       clipPathUnits="userSpaceOnUse"
       id="clipPath552">
      <path
         d="m 349.44,353.04 h 18 v -31.2 h -18 z"
         id="path550" />
    </clipPath>
    <clipPath
       clipPathUnits="userSpaceOnUse"
       id="clipPath584">
      <path
         d="m 424.32,353.04 h 18.96 v -31.2 h -18.96 z"
         id="path582" />
    </clipPath>
    <clipPath
       clipPathUnits="userSpaceOnUse"
       id="clipPath824">
      <path
         d="M 169.439,151.919 H 518.64 V 124.32 H 169.439 Z"
         id="path822" />
    </clipPath>
  </defs>
  <sodipodi:namedview
     id="namedview4"
     pagecolor="#ffffff"
     bordercolor="#000000"
     borderopacity="0.25"
     inkscape:showpageshadow="2"
     inkscape:pageopacity="0.0"
     inkscape:pagecheckerboard="0"
     inkscape:deskcolor="#d1d1d1"
     showgrid="false"
     inkscape:zoom="0.6789108"
     inkscape:cx="181.90902"
     inkscape:cy="-345.4062"
     inkscape:window-width="1920"
     inkscape:window-height="1004"
     inkscape:window-x="0"
     inkscape:window-y="0"
     inkscape:window-maximized="1"
     inkscape:current-layer="g8" />
  <g
     id="g8"
     inkscape:groupmode="layer"
     inkscape:label="Mathematics VI HI"
     transform="matrix(1.3333333,0,0,-1.3333333,-226.57973,202.26924)">
    <g
       id="g818">
      <g
         id="g820"
         clip-path="url(#clipPath824)">
        <g
           id="g826"
           transform="matrix(0.239547,0,0,0.240454,171.502,146.201)">
          <g
             id="g828"
             transform="matrix(4.17455,0,0,4.1588,-715.943,-608.021)">
            <g
               id="g830"
               transform="matrix(0.239547,0,0,0.240455,171.502,146.201)">
              <path
                 d="M 0,0 H 1440.96"
                 style="fill:none;stroke:#231f20;stroke-width:3.826;stroke-linecap:butt;stroke-linejoin:miter;stroke-miterlimit:2.613;stroke-dasharray:none;stroke-opacity:1"
                 id="path832" />
            </g>
            <g
               id="g834"
               transform="matrix(0.239547,0,0,0.240455,174.43,148.573)">
              <path
                 d="M 0,0 -15.221,-9.864 0,-19.736"
                 style="fill:none;stroke:#231f20;stroke-width:3.857;stroke-linecap:butt;stroke-linejoin:miter;stroke-miterlimit:2.613;stroke-dasharray:none;stroke-opacity:1"
                 id="path836" />
            </g>
            <g
               id="g838"
               transform="matrix(0.239547,0,0,0.240455,513.752,148.573)">
              <path
                 d="M 0,0 15.22,-9.864 0,-19.736"
                 style="fill:none;stroke:#231f20;stroke-width:3.857;stroke-linecap:butt;stroke-linejoin:miter;stroke-miterlimit:2.613;stroke-dasharray:none;stroke-opacity:1"
                 id="path840" />
            </g>
            <g
               id="g842"
               transform="matrix(0.239547,0,0,0.240455,197.679,151.702)">
              <path
                 d="M 0,0 V -45.738"
                 style="fill:none;stroke:#231f20;stroke-width:3.826;stroke-linecap:butt;stroke-linejoin:miter;stroke-miterlimit:2.613;stroke-dasharray:none;stroke-opacity:1"
                 id="path844" />
            </g>
            <g
               id="g846"
               transform="matrix(0.239547,0,0,0.240455,221.696,151.581)">
              <path
                 d="M 0,0 V -44.728"
                 style="fill:none;stroke:#231f20;stroke-width:3.826;stroke-linecap:butt;stroke-linejoin:miter;stroke-miterlimit:2.613;stroke-dasharray:none;stroke-opacity:1"
                 id="path848" />
            </g>
            <g
               id="g850"
               transform="matrix(0.239547,0,0,0.240455,245.711,151.581)">
              <path
                 d="M 0,0 V -44.728"
                 style="fill:none;stroke:#231f20;stroke-width:3.826;stroke-linecap:butt;stroke-linejoin:miter;stroke-miterlimit:2.613;stroke-dasharray:none;stroke-opacity:1"
                 id="path852" />
            </g>
            <g
               id="g854"
               transform="matrix(0.239547,0,0,0.240455,269.728,151.581)">
              <path
                 d="M 0,0 V -44.728"
                 style="fill:none;stroke:#231f20;stroke-width:3.826;stroke-linecap:butt;stroke-linejoin:miter;stroke-miterlimit:2.613;stroke-dasharray:none;stroke-opacity:1"
                 id="path856" />
            </g>
            <g
               id="g858"
               transform="matrix(0.239547,0,0,0.240455,293.745,151.581)">
              <path
                 d="M 0,0 V -44.728"
                 style="fill:none;stroke:#231f20;stroke-width:3.826;stroke-linecap:butt;stroke-linejoin:miter;stroke-miterlimit:2.613;stroke-dasharray:none;stroke-opacity:1"
                 id="path860" />
            </g>
            <g
               id="g862"
               transform="matrix(0.239547,0,0,0.240455,317.762,151.432)">
              <path
                 d="M 0,0 V -43.492"
                 style="fill:none;stroke:#231f20;stroke-width:3.826;stroke-linecap:butt;stroke-linejoin:miter;stroke-miterlimit:2.613;stroke-dasharray:none;stroke-opacity:1"
                 id="path864" />
            </g>
            <g
               id="g866"
               transform="matrix(0.239547,0,0,0.240455,341.779,151.581)">
              <path
                 d="M 0,0 V -44.728"
                 style="fill:none;stroke:#231f20;stroke-width:3.826;stroke-linecap:butt;stroke-linejoin:miter;stroke-miterlimit:2.613;stroke-dasharray:none;stroke-opacity:1"
                 id="path868" />
            </g>
            <g
               id="g870"
               transform="matrix(0.239547,0,0,0.240455,365.796,151.581)">
              <path
                 d="M 0,0 V -44.728"
                 style="fill:none;stroke:#231f20;stroke-width:3.826;stroke-linecap:butt;stroke-linejoin:miter;stroke-miterlimit:2.613;stroke-dasharray:none;stroke-opacity:1"
                 id="path872" />
            </g>
            <g
               id="g874"
               transform="matrix(0.239547,0,0,0.240455,389.811,151.581)">
              <path
                 d="M 0,0 V -44.728"
                 style="fill:none;stroke:#231f20;stroke-width:3.826;stroke-linecap:butt;stroke-linejoin:miter;stroke-miterlimit:2.613;stroke-dasharray:none;stroke-opacity:1"
                 id="path876" />
            </g>
            <g
               id="g878"
               transform="matrix(0.239547,0,0,0.240455,413.828,151.581)">
              <path
                 d="M 0,0 V -44.728"
                 style="fill:none;stroke:#231f20;stroke-width:3.826;stroke-linecap:butt;stroke-linejoin:miter;stroke-miterlimit:2.613;stroke-dasharray:none;stroke-opacity:1"
                 id="path880" />
            </g>
            <g
               id="g882"
               transform="matrix(0.239547,0,0,0.240455,437.842,151.592)">
              <path
                 d="M 0,0 V -44.822"
                 style="fill:none;stroke:#231f20;stroke-width:3.826;stroke-linecap:butt;stroke-linejoin:miter;stroke-miterlimit:2.613;stroke-dasharray:none;stroke-opacity:1"
                 id="path884" />
            </g>
            <g
               id="g886"
               transform="matrix(0.24,0,0,0.240001,195.46,128.144)">
              <path
                 d="m 0,0 c 0,3.183 0.477,5.925 1.434,8.222 0.961,2.297 2.226,4.012 3.816,5.137 1.234,0.895 2.5,1.344 3.812,1.344 2.129,0 4.047,-1.098 5.743,-3.278 2.121,-2.703 3.175,-6.363 3.175,-10.996 0,-3.238 -0.46,-5.988 -1.39,-8.25 -0.934,-2.273 -2.117,-3.914 -3.559,-4.933 -1.441,-1.028 -2.836,-1.532 -4.176,-1.532 -2.644,0 -4.859,1.567 -6.621,4.715 C 0.742,-6.922 0,-3.731 0,0 Z m 4.02,-0.512 c 0,-3.844 0.468,-6.988 1.414,-9.41 0.777,-2.047 1.945,-3.071 3.484,-3.071 0.738,0 1.504,0.336 2.293,0.997 0.797,0.667 1.402,1.785 1.805,3.343 0.632,2.364 0.945,5.696 0.945,9.989 0,3.183 -0.328,5.839 -0.984,7.968 -0.493,1.582 -1.129,2.7 -1.907,3.36 -0.558,0.449 -1.238,0.675 -2.027,0.675 -0.93,0 -1.754,-0.414 -2.484,-1.253 C 5.578,10.949 4.906,9.156 4.551,6.711 4.195,4.265 4.02,1.863 4.02,-0.512"
                 style="fill:#231f20;fill-opacity:1;fill-rule:evenodd;stroke:none"
                 id="path888" />
            </g>
            <g
               id="g890"
               transform="matrix(0.24,0,0,0.240001,220.293,130.877)">
              <path
                 d="m 0,0 6.765,3.317 h 0.68 v -23.578 c 0,-1.559 0.063,-2.536 0.188,-2.926 0.132,-0.379 0.406,-0.672 0.812,-0.883 0.414,-0.207 1.246,-0.324 2.508,-0.352 v -0.757 H 0.488 v 0.757 c 1.316,0.028 2.164,0.141 2.551,0.344 0.379,0.196 0.644,0.465 0.797,0.801 0.148,0.336 0.222,1.344 0.222,3.016 v 15.074 c 0,2.031 -0.07,3.332 -0.203,3.906 C 3.758,-0.836 3.582,-0.515 3.332,-0.308 3.082,-0.105 2.777,0 2.422,0 1.918,0 1.211,-0.211 0.308,-0.64 L 0,0"
                 style="fill:#231f20;fill-opacity:1;fill-rule:evenodd;stroke:none"
                 id="path892" />
            </g>
            <g
               id="g894"
               transform="matrix(0.24,0,0,0.240001,247.75,126.124)">
              <path
                 d="m 0,0 -1.95,-5.375 h -16.4 v 0.757 c 4.82,4.422 8.22,8.032 10.19,10.829 1.96,2.804 2.95,5.363 2.95,7.683 0,1.77 -0.54,3.223 -1.62,4.363 -1.08,1.137 -2.37,1.707 -3.87,1.707 -1.37,0 -2.6,-0.398 -3.68,-1.203 -1.09,-0.8 -1.89,-1.98 -2.41,-3.527 h -0.76 c 0.34,2.539 1.21,4.484 2.64,5.848 1.41,1.355 3.17,2.039 5.3,2.039 2.25,0 4.13,-0.731 5.64,-2.188 1.51,-1.453 2.27,-3.168 2.27,-5.14 0,-1.414 -0.33,-2.836 -0.99,-4.246 -1.01,-2.223 -2.65,-4.575 -4.92,-7.063 -3.4,-3.734 -5.53,-5.98 -6.38,-6.754 h 7.26 c 1.48,0 2.52,0.055 3.11,0.168 0.6,0.106 1.13,0.328 1.61,0.668 0.48,0.336 0.9,0.816 1.26,1.434 L 0,0"
                 style="fill:#231f20;fill-opacity:1;fill-rule:evenodd;stroke:none"
                 id="path896" />
            </g>
            <g
               id="g898"
               transform="matrix(0.24,0,0,0.240001,267.658,130.259)">
              <path
                 d="m 0,0 c 0.79,1.875 1.79,3.332 3,4.352 1.21,1.023 2.72,1.539 4.53,1.539 2.22,0 3.93,-0.731 5.12,-2.188 0.9,-1.082 1.36,-2.242 1.36,-3.476 0,-2.032 -1.28,-4.133 -3.82,-6.297 1.71,-0.676 3,-1.641 3.87,-2.891 0.88,-1.242 1.32,-2.711 1.32,-4.406 0,-2.41 -0.76,-4.504 -2.3,-6.274 -2,-2.304 -4.88,-3.457 -8.67,-3.457 -1.88,0 -3.15,0.235 -3.83,0.696 -0.67,0.469 -1.01,0.969 -1.01,1.504 0,0.398 0.16,0.75 0.48,1.054 0.32,0.301 0.71,0.45 1.16,0.45 0.34,0 0.69,-0.059 1.05,-0.164 0.23,-0.071 0.75,-0.325 1.58,-0.75 0.82,-0.438 1.38,-0.692 1.7,-0.774 0.5,-0.156 1.04,-0.226 1.61,-0.226 1.4,0 2.61,0.542 3.64,1.625 1.04,1.082 1.55,2.367 1.55,3.851 0,1.082 -0.24,2.141 -0.72,3.168 -0.35,0.766 -0.74,1.352 -1.16,1.75 -0.59,0.551 -1.4,1.047 -2.42,1.492 C 7.01,-8.973 5.97,-8.75 4.9,-8.75 H 4.24 v 0.621 c 1.08,0.133 2.17,0.524 3.25,1.172 1.09,0.641 1.88,1.422 2.37,2.328 0.49,0.906 0.74,1.895 0.74,2.981 0,1.418 -0.45,2.554 -1.33,3.425 C 8.39,2.652 7.3,3.086 5.99,3.086 3.87,3.086 2.1,1.949 0.67,-0.328 L 0,0"
                 style="fill:#231f20;fill-opacity:1;fill-rule:evenodd;stroke:none"
                 id="path900" />
            </g>
            <g
               id="g902"
               transform="matrix(0.24,0,0,0.240001,295.85,127.304)">
              <path
                 d="m 0,0 v -2.922 h -3.73 v -7.371 h -3.39 v 7.371 h -11.76 v 2.633 l 12.9,18.492 h 2.25 L -3.73,0 Z M -7.12,0 V 13.859 L -16.87,0 h 9.75"
                 style="fill:#231f20;fill-opacity:1;fill-rule:evenodd;stroke:none"
                 id="path904" />
            </g>
            <g
               id="g906"
               transform="matrix(0.24,0,0,0.240001,319.553,131.534)">
              <path
                 d="m 0,0 -1.6,-3.5 h -8.36 l -1.83,-3.75 c 3.62,-0.536 6.49,-1.887 8.61,-4.055 1.82,-1.863 2.73,-4.063 2.73,-6.586 0,-1.469 -0.3,-2.832 -0.89,-4.078 -0.6,-1.25 -1.34,-2.313 -2.25,-3.188 -0.9,-0.879 -1.91,-1.589 -3.02,-2.125 -1.56,-0.754 -3.18,-1.129 -4.83,-1.129 -1.67,0 -2.89,0.286 -3.64,0.848 -0.76,0.57 -1.14,1.203 -1.14,1.883 0,0.387 0.16,0.726 0.46,1.019 0.32,0.297 0.72,0.442 1.2,0.442 0.35,0 0.67,-0.047 0.93,-0.16 0.27,-0.114 0.73,-0.391 1.37,-0.844 1.02,-0.715 2.06,-1.074 3.11,-1.074 1.6,0 3,0.613 4.22,1.828 1.21,1.215 1.81,2.691 1.81,4.433 0,1.688 -0.54,3.262 -1.62,4.723 -1.08,1.461 -2.57,2.594 -4.47,3.387 -1.49,0.621 -3.52,0.976 -6.09,1.078 L -9.96,0 H 0"
                 style="fill:#231f20;fill-opacity:1;fill-rule:evenodd;stroke:none"
                 id="path908" />
            </g>
            <g
               id="g910"
               transform="matrix(0.24,0,0,0.240001,343.711,131.673)">
              <path
                 d="m 0,0 v -0.766 c -1.8,-0.176 -3.27,-0.535 -4.42,-1.082 -1.14,-0.543 -2.26,-1.363 -3.38,-2.48 -1.11,-1.114 -2.03,-2.348 -2.77,-3.711 -0.72,-1.371 -1.34,-2.996 -1.83,-4.871 1.97,1.355 3.94,2.039 5.93,2.039 1.89,0 3.54,-0.774 4.94,-2.305 1.39,-1.539 2.09,-3.516 2.09,-5.934 0,-2.332 -0.71,-4.461 -2.11,-6.382 -1.7,-2.332 -3.95,-3.497 -6.73,-3.497 -1.9,0 -3.51,0.629 -4.84,1.891 -2.6,2.457 -3.9,5.641 -3.9,9.555 0,2.496 0.5,4.871 1.5,7.121 1,2.254 2.43,4.25 4.28,5.992 1.85,1.746 3.62,2.918 5.32,3.523 C -4.23,-0.305 -2.65,0 -1.18,0 Z m -12.75,-14.414 c -0.25,-1.856 -0.37,-3.352 -0.37,-4.493 0,-1.312 0.24,-2.746 0.72,-4.292 0.5,-1.54 1.22,-2.77 2.18,-3.676 0.69,-0.641 1.54,-0.961 2.53,-0.961 1.19,0 2.26,0.558 3.19,1.683 0.94,1.125 1.41,2.735 1.41,4.825 0,2.343 -0.47,4.375 -1.4,6.089 -0.93,1.715 -2.25,2.575 -3.96,2.575 -0.52,0 -1.07,-0.114 -1.66,-0.332 -0.6,-0.219 -1.48,-0.696 -2.64,-1.418"
                 style="fill:#231f20;fill-opacity:1;fill-rule:evenodd;stroke:none"
                 id="path912" />
            </g>
            <g
               id="g914"
               transform="matrix(0.24,0,0,0.240001,364.224,131.534)">
              <path
                 d="M 0,0 H 14.9 V -0.786 L 5.64,-28.493 H 3.35 l 8.3,25.133 H 4 c -1.55,0 -2.65,-0.183 -3.3,-0.554 -1.15,-0.633 -2.08,-1.602 -2.77,-2.922 L -2.67,-6.614 0,0"
                 style="fill:#231f20;fill-opacity:1;fill-rule:evenodd;stroke:none"
                 id="path916" />
            </g>
            <g
               id="g918"
               transform="matrix(0.24,0,0,0.240001,389.16,128.209)">
              <path
                 d="m 0,0 c -2.2,1.813 -3.62,3.266 -4.26,4.363 -0.63,1.094 -0.95,2.235 -0.95,3.414 0,1.813 0.7,3.375 2.09,4.688 1.4,1.309 3.25,1.969 5.56,1.969 2.24,0 4.04,-0.614 5.41,-1.836 C 9.22,11.375 9.9,9.985 9.9,8.418 9.9,7.379 9.54,6.309 8.8,5.227 8.06,4.145 6.52,2.867 4.18,1.399 c 2.41,-1.864 4,-3.332 4.78,-4.407 1.04,-1.398 1.56,-2.875 1.56,-4.429 0,-1.961 -0.74,-3.641 -2.23,-5.032 -1.5,-1.39 -3.45,-2.086 -5.87,-2.086 -2.64,0 -4.7,0.829 -6.17,2.485 -1.18,1.336 -1.77,2.793 -1.77,4.367 0,1.234 0.41,2.457 1.25,3.676 C -3.45,-2.812 -2.02,-1.473 0,0 Z M 3.21,2.199 C 4.86,3.68 5.9,4.856 6.34,5.711 6.77,6.57 6.99,7.539 6.99,8.629 c 0,1.441 -0.4,2.566 -1.2,3.379 -0.82,0.824 -1.91,1.23 -3.31,1.23 -1.39,0 -2.52,-0.406 -3.4,-1.214 -0.87,-0.809 -1.31,-1.758 -1.31,-2.84 0,-0.719 0.18,-1.426 0.54,-2.145 0.36,-0.715 0.88,-1.39 1.55,-2.035 z m -2.25,-2.98 c -1.13,-0.965 -1.97,-2.012 -2.51,-3.141 -0.55,-1.133 -0.82,-2.363 -0.82,-3.676 0,-1.773 0.47,-3.191 1.44,-4.253 0.97,-1.059 2.19,-1.594 3.68,-1.594 1.47,0 2.66,0.414 3.55,1.258 0.89,0.836 1.33,1.847 1.33,3.043 0,0.988 -0.26,1.875 -0.78,2.656 -0.97,1.453 -2.94,3.359 -5.89,5.707"
                 style="fill:#231f20;fill-opacity:1;fill-rule:evenodd;stroke:none"
                 id="path920" />
            </g>
            <g
               id="g922"
               transform="matrix(0.24,0,0,0.240001,411.773,124.696)">
              <path
                 d="m 0,0 v 0.754 c 1.78,0.028 3.44,0.446 4.97,1.25 1.53,0.805 3.02,2.207 4.44,4.211 1.43,2.004 2.42,4.203 2.98,6.606 -2.15,-1.383 -4.09,-2.078 -5.82,-2.078 -1.95,0 -3.63,0.757 -5.02,2.277 -1.4,1.516 -2.1,3.527 -2.1,6.043 0,2.445 0.7,4.617 2.1,6.527 1.68,2.321 3.87,3.481 6.58,3.481 2.28,0 4.24,-0.949 5.86,-2.848 2,-2.348 2.99,-5.242 2.99,-8.684 0,-3.101 -0.75,-5.996 -2.27,-8.679 C 13.19,6.172 11.08,3.946 8.37,2.18 6.17,0.719 3.78,0 1.17,0 Z m 12.72,14.348 c 0.25,1.785 0.37,3.211 0.37,4.277 0,1.336 -0.23,2.77 -0.68,4.317 -0.45,1.547 -1.09,2.726 -1.92,3.551 -0.82,0.828 -1.76,1.234 -2.81,1.234 -1.22,0 -2.29,-0.547 -3.2,-1.645 C 3.56,24.989 3.1,23.348 3.1,21.184 c 0,-2.895 0.61,-5.164 1.83,-6.797 0.89,-1.18 1.98,-1.769 3.28,-1.769 0.62,0 1.37,0.148 2.24,0.449 0.86,0.305 1.62,0.73 2.27,1.281"
                 style="fill:#231f20;fill-opacity:1;fill-rule:evenodd;stroke:none"
                 id="path924" />
            </g>
            <g
               id="g926"
               transform="matrix(0.24,0,0,0.240001,433.92,130.877)">
              <path
                 d="m 0,0 6.77,3.317 h 0.68 v -23.578 c 0,-1.559 0.06,-2.536 0.19,-2.926 0.13,-0.379 0.4,-0.672 0.81,-0.883 0.41,-0.207 1.25,-0.324 2.51,-0.352 v -0.757 H 0.49 v 0.757 c 1.31,0.028 2.16,0.141 2.55,0.344 0.37,0.196 0.64,0.465 0.8,0.801 0.14,0.336 0.22,1.344 0.22,3.016 v 15.074 c 0,2.031 -0.07,3.332 -0.2,3.906 -0.1,0.445 -0.28,0.766 -0.53,0.973 C 3.08,-0.105 2.78,0 2.42,0 1.92,0 1.21,-0.211 0.3,-0.64 L 0,0"
                 style="fill:#231f20;fill-opacity:1;fill-rule:evenodd;stroke:none"
                 id="path928" />
            </g>
            <g
               id="g930"
               transform="matrix(0.24,0,0,0.240001,438.142,128.144)">
              <path
                 d="m 0,0 c 0,3.183 0.48,5.925 1.44,8.222 0.96,2.297 2.23,4.012 3.82,5.137 1.23,0.895 2.49,1.344 3.81,1.344 2.13,0 4.05,-1.098 5.74,-3.278 2.12,-2.703 3.18,-6.363 3.18,-10.996 0,-3.238 -0.46,-5.988 -1.39,-8.25 -0.93,-2.273 -2.12,-3.914 -3.56,-4.933 -1.44,-1.028 -2.83,-1.532 -4.18,-1.532 -2.65,0 -4.86,1.567 -6.62,4.715 C 0.75,-6.922 0,-3.731 0,0 Z m 4.02,-0.512 c 0,-3.844 0.47,-6.988 1.42,-9.41 0.77,-2.047 1.94,-3.071 3.49,-3.071 0.74,0 1.5,0.336 2.29,0.997 0.8,0.667 1.4,1.785 1.81,3.343 0.63,2.364 0.94,5.696 0.94,9.989 0,3.183 -0.33,5.839 -0.98,7.968 -0.49,1.582 -1.13,2.7 -1.91,3.36 -0.56,0.449 -1.24,0.675 -2.03,0.675 -0.93,0 -1.76,-0.414 -2.48,-1.253 C 5.59,10.949 4.91,9.156 4.55,6.711 4.2,4.265 4.02,1.863 4.02,-0.512"
                 style="fill:#231f20;fill-opacity:1;fill-rule:evenodd;stroke:none"
                 id="path932" />
            </g>
            <g
               id="g934"
               transform="matrix(0.239547,0,0,0.240455,461.843,151.592)">
              <path
                 d="M 0,0 V -44.822"
                 style="fill:none;stroke:#231f20;stroke-width:3.826;stroke-linecap:butt;stroke-linejoin:miter;stroke-miterlimit:2.613;stroke-dasharray:none;stroke-opacity:1"
                 id="path936" />
            </g>
            <g
               id="g938"
               transform="matrix(0.24,0,0,0.240001,458.105,130.877)">
              <path
                 d="m 0,0 6.78,3.317 h 0.67 v -23.578 c 0,-1.559 0.07,-2.536 0.19,-2.926 0.14,-0.379 0.41,-0.672 0.82,-0.883 0.41,-0.207 1.24,-0.324 2.5,-0.352 v -0.757 H 0.5 v 0.757 c 1.31,0.028 2.16,0.141 2.54,0.344 0.38,0.196 0.65,0.465 0.8,0.801 0.15,0.336 0.23,1.344 0.23,3.016 V -5.187 C 4.07,-3.156 4,-1.855 3.86,-1.281 3.77,-0.836 3.59,-0.515 3.34,-0.308 3.09,-0.105 2.78,0 2.43,0 1.92,0 1.21,-0.211 0.31,-0.64 L 0,0"
                 style="fill:#231f20;fill-opacity:1;fill-rule:evenodd;stroke:none"
                 id="path940" />
            </g>
            <g
               id="g942"
               transform="matrix(0.24,0,0,0.240001,462.77,130.877)">
              <path
                 d="m 0,0 6.77,3.317 h 0.68 v -23.578 c 0,-1.559 0.07,-2.536 0.19,-2.926 0.13,-0.379 0.41,-0.672 0.81,-0.883 0.42,-0.207 1.25,-0.324 2.51,-0.352 v -0.757 H 0.49 v 0.757 c 1.32,0.028 2.17,0.141 2.55,0.344 0.38,0.196 0.65,0.465 0.8,0.801 0.15,0.336 0.22,1.344 0.22,3.016 v 15.074 c 0,2.031 -0.07,3.332 -0.2,3.906 -0.1,0.445 -0.27,0.766 -0.52,0.973 C 3.08,-0.105 2.78,0 2.43,0 1.92,0 1.22,-0.211 0.31,-0.64 L 0,0"
                 style="fill:#231f20;fill-opacity:1;fill-rule:evenodd;stroke:none"
                 id="path944" />
            </g>
            <g
               id="g946"
               transform="matrix(0.239547,0,0,0.240455,485.84,151.592)">
              <path
                 d="M 0,0 V -44.822"
                 style="fill:none;stroke:#231f20;stroke-width:3.826;stroke-linecap:butt;stroke-linejoin:miter;stroke-miterlimit:2.613;stroke-dasharray:none;stroke-opacity:1"
                 id="path948" />
            </g>
            <g
               id="g950"
               transform="matrix(0.24,0,0,0.240001,481.92,130.877)">
              <path
                 d="m 0,0 6.77,3.317 h 0.67 v -23.578 c 0,-1.559 0.07,-2.536 0.19,-2.926 0.14,-0.379 0.41,-0.672 0.82,-0.883 0.41,-0.207 1.24,-0.324 2.5,-0.352 v -0.757 H 0.48 v 0.757 c 1.32,0.028 2.17,0.141 2.55,0.344 0.38,0.196 0.65,0.465 0.8,0.801 0.15,0.336 0.22,1.344 0.22,3.016 v 15.074 c 0,2.031 -0.07,3.332 -0.2,3.906 -0.1,0.445 -0.27,0.766 -0.52,0.973 C 3.07,-0.105 2.77,0 2.42,0 1.91,0 1.21,-0.211 0.3,-0.64 L 0,0"
                 style="fill:#231f20;fill-opacity:1;fill-rule:evenodd;stroke:none"
                 id="path952" />
            </g>
            <g
               id="g954"
               transform="matrix(0.24,0,0,0.240001,490.399,126.124)">
              <path
                 d="m 0,0 -1.94,-5.375 h -16.41 v 0.757 c 4.82,4.422 8.22,8.032 10.19,10.829 1.97,2.804 2.96,5.363 2.96,7.683 0,1.77 -0.54,3.223 -1.63,4.363 -1.08,1.137 -2.37,1.707 -3.87,1.707 -1.38,0 -2.6,-0.398 -3.68,-1.203 -1.09,-0.8 -1.9,-1.98 -2.41,-3.527 h -0.77 c 0.35,2.539 1.22,4.484 2.64,5.848 1.42,1.355 3.18,2.039 5.3,2.039 2.26,0 4.14,-0.731 5.65,-2.188 1.52,-1.453 2.27,-3.168 2.27,-5.14 0,-1.414 -0.33,-2.836 -0.99,-4.246 -1,-2.223 -2.65,-4.575 -4.92,-7.063 -3.4,-3.734 -5.53,-5.98 -6.38,-6.754 h 7.27 c 1.47,0 2.51,0.055 3.1,0.168 0.6,0.106 1.14,0.328 1.61,0.668 0.48,0.336 0.9,0.816 1.26,1.434 L 0,0"
                 style="fill:#231f20;fill-opacity:1;fill-rule:evenodd;stroke:none"
                 id="path956" />
            </g>
          </g>
        </g>
      </g>
    </g>
  </g>
</svg>
