<?xml version="1.0" encoding="UTF-8" standalone="no"?>
<!-- Created with Inkscape (http://www.inkscape.org/) -->

<svg
   width="41.047451mm"
   height="40.819458mm"
   viewBox="0 0 41.047451 40.819458"
   version="1.1"
   id="svg2240"
   sodipodi:docname="CH4_Q10C.svg"
   inkscape:version="1.2.1 (9c6d41e, 2022-07-14)"
   xmlns:inkscape="http://www.inkscape.org/namespaces/inkscape"
   xmlns:sodipodi="http://sodipodi.sourceforge.net/DTD/sodipodi-0.dtd"
   xmlns="http://www.w3.org/2000/svg"
   xmlns:svg="http://www.w3.org/2000/svg">
  <sodipodi:namedview
     id="namedview2242"
     pagecolor="#ffffff"
     bordercolor="#000000"
     borderopacity="0.25"
     inkscape:showpageshadow="2"
     inkscape:pageopacity="0.0"
     inkscape:pagecheckerboard="0"
     inkscape:deskcolor="#d1d1d1"
     inkscape:document-units="mm"
     showgrid="false"
     inkscape:zoom="0.74297138"
     inkscape:cx="117.09738"
     inkscape:cy="177.66499"
     inkscape:window-width="956"
     inkscape:window-height="1013"
     inkscape:window-x="960"
     inkscape:window-y="0"
     inkscape:window-maximized="0"
     inkscape:current-layer="layer1" />
  <defs
     id="defs2237">
    <clipPath
       clipPathUnits="userSpaceOnUse"
       id="clipPath553">
      <path
         d="M 706.996,2419 H 1314.99 V 1802 H 706.996 Z"
         id="path551" />
    </clipPath>
    <clipPath
       clipPathUnits="userSpaceOnUse"
       id="clipPath149">
      <path
         d="m 1596,2434 h 607.99 V 1822 H 1596 Z"
         id="path147" />
    </clipPath>
    <clipPath
       clipPathUnits="userSpaceOnUse"
       id="clipPath277">
      <path
         d="M 777.996,1674 H 1265 V 1190 H 777.996 Z"
         id="path275" />
    </clipPath>
  </defs>
  <g
     inkscape:label="Layer 1"
     inkscape:groupmode="layer"
     id="layer1"
     transform="translate(-76.953385,-101.58065)">
    <g
       id="g271"
       transform="matrix(0.08466666,0,0,-0.08466666,10.913748,243.21754)">
      <g
         id="g273"
         clip-path="url(#clipPath277)">
        <g
           id="g279"
           transform="matrix(1.00309,0,0,0.99691,1022.3995,1670.7913)">
          <path
             d="m 0,0 c 131.99,0 239.57,-107.57 239.57,-239.87 0,-131.98 -107.58,-239.56 -239.57,-239.56 -131.984,0 -239.565,107.58 -239.565,239.56 C -239.565,-107.57 -131.984,0 0,0 Z"
             style="fill:none;stroke:#ed1c24;stroke-width:4.184;stroke-linecap:butt;stroke-linejoin:miter;stroke-miterlimit:2.613;stroke-dasharray:none;stroke-opacity:1"
             id="path281" />
          <g
             id="g283"
             transform="matrix(0.9969195,0,0,1.0030996,-119.63184,-20.183583)">
            <path
               d="m 0,0 c 6.047,0 10.883,-4.81 10.883,-10.81 0,-6.01 -4.836,-10.82 -10.883,-10.82 -5.742,0 -10.578,4.81 -10.578,10.82 0,6 4.836,10.81 10.578,10.81"
               style="fill:#ed1c24;fill-opacity:1;fill-rule:evenodd;stroke:none"
               id="path285" />
            <g
               id="g287"
               transform="matrix(1.00309,0,0,0.99691,8.227e-4,-0.0063602)">
              <path
                 d="m 0,0 c 6.028,0 10.849,-4.82 10.849,-10.84 0,-6.03 -4.821,-10.85 -10.849,-10.85 -5.725,0 -10.546,4.82 -10.546,10.85 C -10.546,-4.82 -5.725,0 0,0 Z"
                 style="fill:none;stroke:#ed1c24;stroke-width:4.184;stroke-linecap:butt;stroke-linejoin:miter;stroke-miterlimit:2.613;stroke-dasharray:none;stroke-opacity:1"
                 id="path289" />
              <g
                 id="g291"
                 transform="matrix(0.9969195,0,0,1.0030996,-108.78569,-137.4081)">
                <path
                   d="m 0,0 c 6.047,0 10.883,-4.8 10.883,-10.81 0,-6.01 -4.836,-10.82 -10.883,-10.82 -6.043,0 -10.882,4.81 -10.882,10.82 C -10.882,-4.8 -6.043,0 0,0"
                   style="fill:#ed1c24;fill-opacity:1;fill-rule:evenodd;stroke:none"
                   id="path293" />
                <g
                   id="g295"
                   transform="matrix(1.00309,0,0,0.99691,6.771e-4,-0.0018633)">
                  <path
                     d="M 0,0 C 6.028,0 10.849,-4.82 10.849,-10.85 10.849,-16.88 6.028,-21.7 0,-21.7 c -6.024,0 -10.849,4.82 -10.849,10.85 C -10.849,-4.82 -6.024,0 0,0 Z"
                     style="fill:none;stroke:#ed1c24;stroke-width:4.184;stroke-linecap:butt;stroke-linejoin:miter;stroke-miterlimit:2.613;stroke-dasharray:none;stroke-opacity:1"
                     id="path297" />
                  <g
                     id="g299"
                     transform="matrix(0.9969195,0,0,1.0030996,332.38513,144.64876)">
                    <path
                       d="m 0,0 c 6.04,0 10.88,-4.81 10.88,-10.82 0,-6.01 -4.84,-10.81 -10.88,-10.81 -6.05,0 -10.89,4.8 -10.89,10.81 C -10.89,-4.81 -6.05,0 0,0"
                       style="fill:#ed1c24;fill-opacity:1;fill-rule:evenodd;stroke:none"
                       id="path301" />
                    <g
                       id="g303"
                       transform="matrix(1.00309,0,0,0.99691,8.498e-4,0.0012682)">
                      <path
                         d="M 0,0 C 6.03,0 10.85,-4.82 10.85,-10.85 10.85,-16.88 6.03,-21.7 0,-21.7 c -6.03,0 -10.85,4.82 -10.85,10.85 C -10.85,-4.82 -6.03,0 0,0 Z"
                         style="fill:none;stroke:#ed1c24;stroke-width:4.184;stroke-linecap:butt;stroke-linejoin:miter;stroke-miterlimit:2.613;stroke-dasharray:none;stroke-opacity:1"
                         id="path305" />
                      <g
                         id="g307"
                         transform="matrix(0.9969195,0,0,1.0030996,-324.5509,-309.78848)">
                        <path
                           d="m 0,0 c 6.047,0 10.883,-4.8 10.883,-10.81 0,-6.01 -4.836,-10.82 -10.883,-10.82 -6.047,0 -10.883,4.81 -10.883,10.82 C -10.883,-4.8 -6.047,0 0,0"
                           style="fill:#ed1c24;fill-opacity:1;fill-rule:evenodd;stroke:none"
                           id="path309" />
                        <g
                           id="g311"
                           transform="matrix(1.00309,0,0,0.99691,-1.128e-4,0.0084884)">
                          <path
                             d="M 0,0 C 6.028,0 10.849,-4.83 10.849,-10.85 10.849,-16.88 6.028,-21.7 0,-21.7 c -6.028,0 -10.849,4.82 -10.849,10.85 C -10.849,-4.83 -6.028,0 0,0 Z"
                             style="fill:none;stroke:#ed1c24;stroke-width:4.184;stroke-linecap:butt;stroke-linejoin:miter;stroke-miterlimit:2.613;stroke-dasharray:none;stroke-opacity:1"
                             id="path313" />
                          <g
                             id="g315"
                             transform="matrix(0.9969195,0,0,1.0030996,127.16914,-147.06289)">
                            <path
                               d="m 0,0 c 5.742,0 10.578,4.81 10.578,10.82 0,5.7 -4.836,10.51 -10.578,10.51 -6.047,0 -10.883,-4.81 -10.883,-10.51 C -10.883,4.81 -6.047,0 0,0"
                               style="fill:#ed1c24;fill-opacity:1;fill-rule:evenodd;stroke:none"
                               id="path317" />
                            <g
                               id="g319"
                               transform="matrix(1.00309,0,0,0.99691,8.425e-4,0.0030035)">
                              <path
                                 d="M 0,0 C 5.724,0 10.545,4.82 10.545,10.85 10.545,16.57 5.724,21.39 0,21.39 -6.029,21.39 -10.85,16.57 -10.85,10.85 -10.85,4.82 -6.029,0 0,0 Z"
                                 style="fill:none;stroke:#ed1c24;stroke-width:4.184;stroke-linecap:butt;stroke-linejoin:miter;stroke-miterlimit:2.613;stroke-dasharray:none;stroke-opacity:1"
                                 id="path321" />
                              <g
                                 id="g323"
                                 transform="matrix(0.9969195,0,0,1.0030996,200.99895,5.7247127)">
                                <path
                                   d="m 0,0 c 6.04,0 10.88,4.8 10.88,10.52 0,6 -4.84,10.81 -10.88,10.81 -5.75,0 -10.59,-4.81 -10.59,-10.81 C -10.59,4.8 -5.75,0 0,0"
                                   style="fill:#ed1c24;fill-opacity:1;fill-rule:evenodd;stroke:none"
                                   id="path325" />
                                <g
                                   id="g327"
                                   transform="matrix(1.00309,0,0,0.99691,-0.0079953,-0.004771)">
                                <path
                                   d="M 0,0 C 6.03,0 10.85,4.82 10.85,10.55 10.85,16.58 6.03,21.4 0,21.4 -5.72,21.4 -10.54,16.58 -10.54,10.55 -10.54,4.82 -5.72,0 0,0 Z"
                                   style="fill:none;stroke:#ed1c24;stroke-width:4.184;stroke-linecap:butt;stroke-linejoin:miter;stroke-miterlimit:2.613;stroke-dasharray:none;stroke-opacity:1"
                                   id="path329" />
                                <g
                                   id="g331"
                                   transform="translate(-107.58,395.37)">
                                <path
                                   d="m 0,0 c 94.33,0 171.17,-76.85 171.17,-171.17 0,-94.32 -76.84,-171.16 -171.17,-171.16 -94.319,0 -171.159,76.84 -171.159,171.16 C -171.159,-76.85 -94.319,0 0,0 Z"
                                   style="fill:none;stroke:#2e3192;stroke-width:4.184;stroke-linecap:butt;stroke-linejoin:miter;stroke-miterlimit:2.613;stroke-dasharray:none;stroke-opacity:1"
                                   id="path333" />
                                <g
                                   id="g335"
                                   transform="matrix(0.9969195,0,0,1.0030996,4.968e-4,-72.928852)">
                                <path
                                   d="m 0,0 c 54.11,0 98.24,-43.86 98.24,-97.93 0,-53.78 -44.13,-97.64 -98.24,-97.64 -54.103,0 -98.236,43.86 -98.236,97.64 C -98.236,-43.86 -54.103,0 0,0"
                                   style="fill:#ffffff;fill-opacity:1;fill-rule:evenodd;stroke:none"
                                   id="path337" />
                                <g
                                   id="g339"
                                   transform="matrix(1.00309,0,0,0.99691,-5.175e-4,-0.0011106)">
                                <path
                                   d="m 0,0 c 53.95,0 97.94,-43.99 97.94,-98.24 0,-53.94 -43.99,-97.93 -97.94,-97.93 -53.936,0 -97.933,43.99 -97.933,97.93 C -97.933,-43.99 -53.936,0 0,0 Z"
                                   style="fill:none;stroke:#00adef;stroke-width:4.184;stroke-linecap:butt;stroke-linejoin:miter;stroke-miterlimit:2.613;stroke-dasharray:none;stroke-opacity:1"
                                   id="path341" />
                                <g
                                   id="g343"
                                   transform="matrix(0.9969195,0,0,1.0030996,-39.320999,-67.497324)">
                                <path
                                   d="m 0,0 c 0,1.8 0,3.3 -1.512,4.51 -1.511,1.2 -3.023,1.8 -4.836,1.8 -3.629,0 -6.648,-1.5 -9.371,-3.91 v 3.31 h -1.511 l -6.649,-0.9 V 3.6 h 0.606 c 2.718,-0.3 3.324,-1.8 3.324,-4.2 v -9.32 c 0,-2.7 -0.606,-3.9 -3.629,-4.2 h -0.301 v -1.2 h 11.789 v 1.2 h -0.605 c -2.719,0.3 -3.024,1.8 -3.024,4.2 V 0.6 c 2.117,1.8 4.836,3.3 7.86,3.3 1.211,0 2.418,-0.6 3.023,-1.5 0.606,-0.9 0.606,-2.1 0.606,-3.3 v -9.02 c 0,-2.4 -0.305,-3.9 -3.024,-4.2 h -0.605 v -1.2 H 3.93 v 1.2 H 3.324 C 0.606,-13.82 0,-12.32 0,-9.92 V 0"
                                   style="fill:#231f20;fill-opacity:1;fill-rule:evenodd;stroke:none"
                                   id="path345" />
                                <g
                                   id="g347"
                                   transform="translate(38.843,2.0999)">
                                <path
                                   d="M 0,0 H -22.066 V -3.3 H 0 Z m 0,-8.71 h -22.066 v -3.31 H 0 v 3.31"
                                   style="fill:#231f20;fill-opacity:1;fill-rule:evenodd;stroke:none"
                                   id="path349" />
                                <g
                                   id="g351"
                                   transform="translate(18.74,12.32)">
                                <path
                                   d="m 0,0 h -1.51 l -8.16,-1.2 v -1.5 h 0.9 c 4.23,0 4.54,-0.9 4.54,-4.81 v -16.52 c 0,-0.9 0,-1.81 -0.31,-2.11 0,-0.9 -0.3,-1.2 -0.9,-1.5 -1.21,-0.6 -3.03,-0.6 -4.23,-0.9 v -1.2 H 5.44 v 1.2 C 0.6,-28.24 0,-27.94 0,-23.13 V 0"
                                   style="fill:#231f20;fill-opacity:1;fill-rule:evenodd;stroke:none"
                                   id="path353" />
                                <g
                                   id="g355"
                                   transform="translate(24.18,0.9)">
                                <path
                                   d="m 0,0 c -8.16,0 -11.79,-9.01 -11.79,-15.92 0,-3.6 0.91,-7.51 3.03,-10.51 1.81,-3.01 5.13,-5.11 9.06,-5.11 3.93,0 7.26,2.1 9.37,5.41 1.82,3 2.72,6.61 2.72,10.21 C 12.39,-8.41 8.77,0 0,0 Z m 0.3,-29.14 c -6.64,0 -7.25,8.41 -7.25,13.22 0,2.4 0.3,5.71 0.91,7.81 0.6,1.5 0.9,2.7 2.11,3.91 0.91,1.2 2.42,1.8 3.93,1.8 6.65,0 7.56,-8.41 7.56,-13.22 0,-4.81 -0.91,-13.52 -7.26,-13.52"
                                   style="fill:#231f20;fill-opacity:1;fill-rule:evenodd;stroke:none"
                                   id="path357" />
                                <g
                                   id="g359"
                                   transform="translate(-97.482,-79.61)">
                                <path
                                   d="m 0,0 c 1.813,-1.5 4.235,-2.1 6.653,-2.1 6.347,0 9.972,4.81 9.972,10.81 0,6.01 -3.324,11.12 -9.672,11.12 -2.718,0 -5.14,-1.2 -6.953,-3.31 v 2.71 h -1.511 l -6.649,-0.9 v -1.21 h 0.606 c 2.718,-0.3 3.324,-1.8 3.324,-4.2 V -6.31 c 0,-2.7 -0.606,-4.2 -3.324,-4.2 H -8.16 v -1.51 H 4.235 v 1.51 H 3.325 C 0.305,-10.51 0,-9.01 0,-6.31 Z m 0,14.42 c 1.211,1.8 3.325,3.31 5.742,3.31 5.141,0 6.348,-5.11 6.348,-9.02 C 12.09,4.21 10.278,0 5.141,0 3.024,0 1.211,0.6 0,2.11 v 12.31"
                                   style="fill:#231f20;fill-opacity:1;fill-rule:evenodd;stroke:none"
                                   id="path361" />
                                <g
                                   id="g363"
                                   transform="translate(52.742,15.62)">
                                <path
                                   d="M 0,0 H -22.062 V -3.3 H 0 Z m 0,-8.71 h -22.062 v -3.3 H 0 v 3.3"
                                   style="fill:#231f20;fill-opacity:1;fill-rule:evenodd;stroke:none"
                                   id="path365" />
                                <g
                                   id="g367"
                                   transform="translate(19.05,12.32)">
                                <path
                                   d="m 0,0 h -1.82 l -8.16,-1.5 v -1.2 h 0.91 c 4.23,0 4.54,-0.9 4.54,-4.81 v -16.52 c 0,-0.91 0,-1.8 0,-2.11 -0.31,-0.9 -0.61,-1.2 -1.21,-1.5 -0.91,-0.6 -2.72,-0.6 -4.24,-0.9 v -1.2 H 5.14 v 1.2 C 0.3,-28.24 0,-27.94 0,-23.13 V 0"
                                   style="fill:#231f20;fill-opacity:1;fill-rule:evenodd;stroke:none"
                                   id="path369" />
                                <g
                                   id="g371"
                                   transform="translate(35.67,-21.63)">
                                <path
                                   d="m 0,0 -1.52,0.3 -0.3,-0.6 c -1.81,-3.9 -3.02,-4.51 -7.25,-4.51 h -9.67 v 0.3 c 6.04,3.31 17.22,10.22 17.22,18.33 0,2.7 -1.5,5.11 -3.62,6.61 -2.12,1.2 -4.84,1.8 -7.26,1.8 -2.72,0 -5.44,-0.6 -7.55,-2.1 -1.82,-1.5 -3.33,-3.61 -3.33,-6.31 0,-1.5 0.91,-3.61 3.03,-3.61 1.2,0 2.41,1.21 2.41,2.41 0,0.6 -0.3,1.2 -0.6,1.8 -0.61,0.3 -0.91,0.9 -0.91,1.5 0,2.71 4.23,4.21 6.35,4.21 3.63,0 6.35,-2.41 6.35,-6.01 0,-4.51 -3.63,-8.71 -6.65,-11.72 -3.02,-3 -6.35,-5.41 -10.28,-7.51 v -3 H -2.12 L 0,0"
                                   style="fill:#231f20;fill-opacity:1;fill-rule:evenodd;stroke:none"
                                   id="path373" />
                                <g
                                   id="g375"
                                   transform="translate(177.13,107.25)">
                                <path
                                   d="m 0,0 c 6.05,0 10.88,-4.81 10.88,-10.82 0,-6.01 -4.83,-10.81 -10.88,-10.81 -6.04,0 -10.88,4.8 -10.88,10.81 C -10.88,-4.81 -6.04,0 0,0"
                                   style="fill:#ed1c24;fill-opacity:1;fill-rule:evenodd;stroke:none"
                                   id="path377" />
                                <g
                                   id="g379"
                                   transform="matrix(1.00309,0,0,0.99691,0.0062582,-0.0052434)">
                                <path
                                   d="m 0,0 c 6.02,0 10.84,-4.82 10.84,-10.85 0,-6.02 -4.82,-10.84 -10.84,-10.84 -6.03,0 -10.85,4.82 -10.85,10.84 C -10.85,-4.82 -6.03,0 0,0 Z"
                                   style="fill:none;stroke:#ed1c24;stroke-width:4.184;stroke-linecap:butt;stroke-linejoin:miter;stroke-miterlimit:2.613;stroke-dasharray:none;stroke-opacity:1"
                                   id="path381" />
                                <g
                                   id="g383"
                                   transform="matrix(0.9969195,0,0,1.0030996,-399.28648,-67.493279)">
                                <path
                                   d="m 0,0 c 5.743,0 10.579,-4.81 10.579,-10.52 0,-5.71 -4.836,-10.51 -10.579,-10.51 -5.746,0 -10.582,4.8 -10.582,10.51 C -10.582,-4.81 -5.746,0 0,0"
                                   style="fill:#2e3192;fill-opacity:1;fill-rule:evenodd;stroke:none"
                                   id="path385" />
                                <g
                                   id="g387"
                                   transform="matrix(1.00309,0,0,0.99691,4.645e-4,-0.0066684)">
                                <path
                                   d="m 0,0 c 5.725,0 10.546,-4.82 10.546,-10.55 0,-5.72 -4.821,-10.54 -10.546,-10.54 -5.728,0 -10.549,4.82 -10.549,10.54 C -10.549,-4.82 -5.728,0 0,0 Z"
                                   style="fill:none;stroke:#2e3192;stroke-width:4.184;stroke-linecap:butt;stroke-linejoin:miter;stroke-miterlimit:2.613;stroke-dasharray:none;stroke-opacity:1"
                                   id="path389" />
                                <g
                                   id="g391"
                                   transform="matrix(0.9969195,0,0,1.0030996,271.50457,-138.32071)">
                                <path
                                   d="m 0,0 c 5.75,0 10.59,-4.8 10.59,-10.51 0,-5.71 -4.84,-10.21 -10.59,-10.21 -5.74,0 -10.27,4.5 -10.27,10.21 C -10.27,-4.8 -5.74,0 0,0"
                                   style="fill:#2e3192;fill-opacity:1;fill-rule:evenodd;stroke:none"
                                   id="path393" />
                                <g
                                   id="g395"
                                   transform="matrix(1.00309,0,0,0.99691,0.001418,6.407e-4)">
                                <path
                                   d="m 0,0 c 5.73,0 10.55,-4.82 10.55,-10.54 0,-5.73 -4.82,-10.25 -10.55,-10.25 -5.72,0 -10.24,4.52 -10.24,10.25 C -10.24,-4.82 -5.72,0 0,0 Z"
                                   style="fill:none;stroke:#2e3192;stroke-width:4.184;stroke-linecap:butt;stroke-linejoin:miter;stroke-miterlimit:2.613;stroke-dasharray:none;stroke-opacity:1"
                                   id="path397" />
                                <g
                                   id="g399"
                                   transform="matrix(0.9969195,0,0,1.0030996,-7.229101,276.94515)">
                                <path
                                   d="m 0,0 c 5.74,0 10.58,-4.81 10.58,-10.52 0,-5.71 -4.84,-10.51 -10.58,-10.51 -5.74,0 -10.58,4.8 -10.58,10.51 C -10.58,-4.81 -5.74,0 0,0"
                                   style="fill:#2e3192;fill-opacity:1;fill-rule:evenodd;stroke:none"
                                   id="path401" />
                                <g
                                   id="g403"
                                   transform="matrix(1.00309,0,0,0.99691,-9.227e-4,-0.0050042)">
                                <path
                                   d="M 0,0 C 5.73,0 10.55,-4.82 10.55,-10.55 10.55,-16.27 5.73,-21.1 0,-21.1 c -5.72,0 -10.54,4.83 -10.54,10.55 C -10.54,-4.82 -5.72,0 0,0 Z"
                                   style="fill:none;stroke:#2e3192;stroke-width:4.184;stroke-linecap:butt;stroke-linejoin:miter;stroke-miterlimit:2.613;stroke-dasharray:none;stroke-opacity:1"
                                   id="path405" />
                                <g
                                   id="g407"
                                   transform="matrix(0.9969195,0,0,1.0030996,122.65181,-268.19369)">
                                <path
                                   d="M 0,0 C 6.04,0 10.88,4.8 10.88,10.81 10.88,16.82 6.04,21.63 0,21.63 -6.05,21.63 -10.89,16.82 -10.89,10.81 -10.89,4.8 -6.05,0 0,0"
                                   style="fill:#ed1c24;fill-opacity:1;fill-rule:evenodd;stroke:none"
                                   id="path409" />
                                <g
                                   id="g411"
                                   transform="matrix(1.00309,0,0,0.99691,-0.0018342,-0.0061665)">
                                <path
                                   d="M 0,0 C 6.03,0 10.85,4.82 10.85,10.85 10.85,16.88 6.03,21.7 0,21.7 -6.03,21.7 -10.85,16.88 -10.85,10.85 -10.85,4.82 -6.03,0 0,0 Z"
                                   style="fill:none;stroke:#ed1c24;stroke-width:4.184;stroke-linecap:butt;stroke-linejoin:miter;stroke-miterlimit:2.613;stroke-dasharray:none;stroke-opacity:1"
                                   id="path413" />
                                </g>
                                </g>
                                </g>
                                </g>
                                </g>
                                </g>
                                </g>
                                </g>
                                </g>
                                </g>
                                </g>
                                </g>
                                </g>
                                </g>
                                </g>
                                </g>
                                </g>
                                </g>
                                </g>
                                </g>
                                </g>
                                </g>
                              </g>
                            </g>
                          </g>
                        </g>
                      </g>
                    </g>
                  </g>
                </g>
              </g>
            </g>
          </g>
        </g>
      </g>
    </g>
  </g>
</svg>
