<?xml version="1.0" encoding="UTF-8" standalone="no"?>
<!-- Created with Inkscape (http://www.inkscape.org/) -->

<svg
   width="39.707474mm"
   height="23.318348mm"
   viewBox="0 0 39.707474 23.318348"
   version="1.1"
   id="svg1919"
   inkscape:version="1.2.1 (9c6d41e, 2022-07-14)"
   sodipodi:docname="CH8_MCQ5.svg"
   xmlns:inkscape="http://www.inkscape.org/namespaces/inkscape"
   xmlns:sodipodi="http://sodipodi.sourceforge.net/DTD/sodipodi-0.dtd"
   xmlns="http://www.w3.org/2000/svg"
   xmlns:svg="http://www.w3.org/2000/svg">
  <sodipodi:namedview
     id="namedview1921"
     pagecolor="#ffffff"
     bordercolor="#000000"
     borderopacity="0.25"
     inkscape:showpageshadow="2"
     inkscape:pageopacity="0.0"
     inkscape:pagecheckerboard="0"
     inkscape:deskcolor="#d1d1d1"
     inkscape:document-units="mm"
     showgrid="false"
     inkscape:zoom="0.74297138"
     inkscape:cx="74.027078"
     inkscape:cy="-4.0378406"
     inkscape:window-width="956"
     inkscape:window-height="1013"
     inkscape:window-x="960"
     inkscape:window-y="0"
     inkscape:window-maximized="0"
     inkscape:current-layer="layer1" />
  <defs
     id="defs1916">
    <clipPath
       clipPathUnits="userSpaceOnUse"
       id="clipPath587">
      <path
         d="m 1421,764 h 481 V 480 h -481 z"
         id="path585" />
    </clipPath>
    <clipPath
       clipPathUnits="userSpaceOnUse"
       id="clipPath615">
      <path
         d="m 1783,525 h 119 v -45 h -119 z"
         id="path613" />
    </clipPath>
    <clipPath
       clipPathUnits="userSpaceOnUse"
       id="clipPath629">
      <path
         d="m 1421,764 h 481 V 480 h -481 z"
         id="path627" />
    </clipPath>
  </defs>
  <g
     inkscape:label="Layer 1"
     inkscape:groupmode="layer"
     id="layer1"
     transform="translate(-85.396591,-149.48476)">
    <g
       id="g581"
       transform="matrix(0.08466666,0,0,-0.08466666,-35.593255,213.83142)">
      <g
         id="g583"
         clip-path="url(#clipPath587)">
        <path
           d="m 1471,640 h 305 v 4 h -305 z"
           style="fill:#901e78;fill-opacity:1;fill-rule:nonzero;stroke:none"
           id="path589" />
        <path
           d="m 1468,487 h 4 v 273 h -4 z"
           style="fill:#28166f;fill-opacity:1;fill-rule:nonzero;stroke:none"
           id="path591" />
        <path
           d="m 1432,526 h 462 v 5 h -462 z"
           style="fill:#da251d;fill-opacity:1;fill-rule:nonzero;stroke:none"
           id="path593" />
        <g
           id="g595"
           transform="translate(1441,753)">
          <path
             d="M 0,0 H 3 L 14,-17 10,-19 0,-3 H 3 Z M 0,0 1,2 3,0 Z m -9,-18 -2,1 L 0,0 3,-3 -8,-19 Z m 8,-87 V -5 h 4 v -100 h -4"
             style="fill:#1f1a17;fill-opacity:1;fill-rule:nonzero;stroke:none"
             id="path597" />
          <g
             id="g599"
             transform="translate(449,-255)">
            <path
               d="M 0,0 H -84 V 4 H 0 Z M 5,1 3,4 V 1 l -17,10 2,4 L 5,4 Z M 5,1 V 4 L 8,2 Z m -18,-9 -1,1 17,11 2,-3 -17,-11 -1,2"
               style="fill:#1f1a17;fill-opacity:1;fill-rule:nonzero;stroke:none"
               id="path601" />
            <g
               id="g603"
               transform="matrix(4.1666667,0,0,4.1666667,-1890,-498)">
              <text
                 xml:space="preserve"
                 transform="matrix(0.9913,0,0,-1,342.0003,148.0801)"
                 style="font-style:italic;font-variant:normal;font-weight:300;font-size:11.04px;font-family:Bookman;-inkscape-font-specification:Bookman-LightItalic;writing-mode:lr-tb;fill:#1f1a17;fill-opacity:1;fill-rule:nonzero;stroke:none"
                 id="text607"><tspan
                   x="0"
                   y="0"
                   id="tspan605">v</tspan></text>
            </g>
          </g>
        </g>
      </g>
    </g>
    <g
       id="g609"
       transform="matrix(0.08466666,0,0,-0.08466666,-35.593255,213.83142)">
      <g
         id="g611"
         clip-path="url(#clipPath615)">
        <g
           id="g617"
           transform="scale(4.1666667)">
          <text
             xml:space="preserve"
             transform="matrix(0.9913,0,0,-1,427.9203,116.4001)"
             style="font-style:italic;font-variant:normal;font-weight:300;font-size:11.04px;font-family:Bookman;-inkscape-font-specification:Bookman-LightItalic;writing-mode:lr-tb;fill:#1f1a17;fill-opacity:1;fill-rule:nonzero;stroke:none"
             id="text621"><tspan
               x="0"
               y="0"
               id="tspan619">t</tspan></text>
        </g>
      </g>
    </g>
    <g
       id="g623"
       transform="matrix(0.08466666,0,0,-0.08466666,-35.593255,213.83142)">
      <g
         id="g625"
         clip-path="url(#clipPath629)">
        <g
           id="g631"
           transform="translate(1421,764)">
          <path
             d="M 0,0 V 0"
             style="fill:none;stroke:#000000;stroke-width:3.125;stroke-linecap:butt;stroke-linejoin:miter;stroke-miterlimit:10;stroke-dasharray:none;stroke-opacity:1"
             id="path633" />
        </g>
      </g>
    </g>
  </g>
</svg>
