<?xml version="1.0" standalone="no" ?>
<svg width="84px" height="43px" viewBox="0 0 84 43" style="background-color: #ffffffff" xmlns="http://www.w3.org/2000/svg" xmlns:xlink="http://www.w3.org/1999/xlink" version="1.1" >
<text x="0" y="0" stroke="transparent" fill="#000000" transform="matrix(0.05 0 0 0.05 2.65583 25.4042)" style="font:normal normal normal 200px 'Arial'" >
H</text>
<text x="0" y="0" stroke="transparent" fill="#000000" transform="matrix(0.05 0 0 0.05 17.0558 25.4042)" style="font:normal normal normal 200px 'Arial'" >
C</text>
<text x="0" y="0" stroke="transparent" fill="#000000" transform="matrix(0.05 0 0 0.05 17.0558 39.8042)" style="font:normal normal normal 200px 'Arial'" >
H</text>
<text x="0" y="0" stroke="transparent" fill="#000000" transform="matrix(0.05 0 0 0.05 31.4558 25.4042)" style="font:normal normal normal 200px 'Arial'" >
C</text>
<text x="0" y="0" stroke="transparent" fill="#000000" transform="matrix(0.05 0 0 0.05 17.0558 11.0042)" style="font:normal normal normal 200px 'Arial'" >
H</text>
<path stroke="transparent" fill="#000000" transform="matrix(0.05 0 0 0.05 -287 -244)" d="M 6058.12,5312.64 L 6058.12,5324.64 L 5953.12,5324.64 L 5953.12,5312.64 L 6058.12,5312.64 Z " />
<path stroke="transparent" fill="#000000" transform="matrix(0.05 0 0 0.05 -287 -244)" d="M 6159.33,5506.25 L 6147.33,5506.25 L 6147.33,5422.25 L 6159.33,5422.25 L 6159.33,5506.25 Z " />
<path stroke="transparent" fill="#000000" transform="matrix(0.05 0 0 0.05 -287 -244)" d="M 6346.12,5312.64 L 6346.12,5324.64 L 6249.12,5324.64 L 6249.12,5312.64 L 6346.12,5312.64 Z " />
<path stroke="transparent" fill="#000000" transform="matrix(0.05 0 0 0.05 -287 -244)" d="M 6147.33,5131.25 L 6159.33,5131.25 L 6159.33,5216.25 L 6147.33,5216.25 L 6147.33,5131.25 Z " />
<text x="0" y="0" stroke="transparent" fill="#000000" transform="matrix(0.05 0 0 0.05 45.8558 25.4042)" style="font:normal normal normal 200px 'Arial'" >
C</text>
<path stroke="transparent" fill="#000000" transform="matrix(0.05 0 0 0.05 -287 -244)" d="M 6634.12,5312.64 L 6634.12,5324.64 L 6537.12,5324.64 L 6537.12,5312.64 L 6634.12,5312.64 Z " />
<text x="0" y="0" stroke="transparent" fill="#000000" transform="matrix(0.05 0 0 0.05 31.4558 11.0042)" style="font:normal normal normal 200px 'Arial'" >
H</text>
<path stroke="transparent" fill="#000000" transform="matrix(0.05 0 0 0.05 -287 -244)" d="M 6435.33,5131.25 L 6447.33,5131.25 L 6447.33,5216.25 L 6435.33,5216.25 L 6435.33,5131.25 Z " />
<text x="0" y="0" stroke="transparent" fill="#000000" transform="matrix(0.05 0 0 0.05 31.4558 39.8042)" style="font:normal normal normal 200px 'Arial'" >
H</text>
<path stroke="transparent" fill="#000000" transform="matrix(0.05 0 0 0.05 -287 -244)" d="M 6447.33,5506.25 L 6435.33,5506.25 L 6435.33,5422.25 L 6447.33,5422.25 L 6447.33,5506.25 Z " />
<text x="0" y="0" stroke="transparent" fill="#000000" transform="matrix(0.05 0 0 0.05 60.2558 25.4042)" style="font:normal normal normal 200px 'Arial'" >
C</text>
<path stroke="transparent" fill="#000000" transform="matrix(0.05 0 0 0.05 -287 -244)" d="M 6922.12,5312.64 L 6922.12,5324.64 L 6825.12,5324.64 L 6825.12,5312.64 L 6922.12,5312.64 Z " />
<text x="0" y="0" stroke="transparent" fill="#000000" transform="matrix(0.05 0 0 0.05 45.8558 11.0042)" style="font:normal normal normal 200px 'Arial'" >
H</text>
<path stroke="transparent" fill="#000000" transform="matrix(0.05 0 0 0.05 -287 -244)" d="M 6723.33,5131.25 L 6735.33,5131.25 L 6735.33,5216.25 L 6723.33,5216.25 L 6723.33,5131.25 Z " />
<text x="0" y="0" stroke="transparent" fill="#000000" transform="matrix(0.05 0 0 0.05 45.8558 39.8042)" style="font:normal normal normal 200px 'Arial'" >
H</text>
<path stroke="transparent" fill="#000000" transform="matrix(0.05 0 0 0.05 -287 -244)" d="M 6735.33,5506.25 L 6723.33,5506.25 L 6723.33,5422.25 L 6735.33,5422.25 L 6735.33,5506.25 Z " />
<text x="0" y="0" stroke="transparent" fill="#000000" transform="matrix(0.05 0 0 0.05 74.6558 25.4042)" style="font:normal normal normal 200px 'Arial'" >
H</text>
<path stroke="transparent" fill="#000000" transform="matrix(0.05 0 0 0.05 -287 -244)" d="M 7216.12,5312.64 L 7216.12,5324.64 L 7113.12,5324.64 L 7113.12,5312.64 L 7216.12,5312.64 Z " />
<text x="0" y="0" stroke="transparent" fill="#000000" transform="matrix(0.05 0 0 0.05 60.2558 11.0042)" style="font:normal normal normal 200px 'Arial'" >
H</text>
<path stroke="transparent" fill="#000000" transform="matrix(0.05 0 0 0.05 -287 -244)" d="M 7011.33,5131.25 L 7023.33,5131.25 L 7023.33,5216.25 L 7011.33,5216.25 L 7011.33,5131.25 Z " />
<text x="0" y="0" stroke="transparent" fill="#000000" transform="matrix(0.05 0 0 0.05 60.2558 39.8042)" style="font:normal normal normal 200px 'Arial'" >
H</text>
<path stroke="transparent" fill="#000000" transform="matrix(0.05 0 0 0.05 -287 -244)" d="M 7023.33,5506.25 L 7011.33,5506.25 L 7011.33,5422.25 L 7023.33,5422.25 L 7023.33,5506.25 Z " />
</svg>
