<?xml version="1.0" standalone="no" ?>
<svg width="137px" height="54px" viewBox="0 0 137 54" style="background-color: #ffffffff"
    xmlns="http://www.w3.org/2000/svg" xmlns:xlink="http://www.w3.org/1999/xlink" version="1.1">
    <path stroke="transparent" fill="#000000" transform="matrix(0.05 0 0 0.05 -172 -228)"
        d="M 5820,5581.59 L 5820,5567.74 L 6063.42,5427.2 L 6075.42,5434.13 L 5820,5581.59 Z " />
    <path stroke="transparent" fill="#000000" transform="matrix(0.05 0 0 0.05 -172 -228)"
        d="M 5564.58,5434.13 L 5576.58,5427.2 L 5820,5567.74 L 5820,5581.59 L 5564.58,5434.13 Z " />
    <path stroke="transparent" fill="#000000" transform="matrix(0.05 0 0 0.05 -172 -228)"
        d="M 5564.58,5139.2 L 5576.58,5146.13 L 5576.58,5427.2 L 5564.58,5434.13 L 5564.58,5139.2 Z " />
    <path stroke="transparent" fill="#000000" transform="matrix(0.05 0 0 0.05 -172 -228)"
        d="M 5814,4995.2 L 5820,4998.67 L 5820,5005.59 L 5576.58,5146.13 L 5564.58,5139.2 L 5814,4995.2 Z " />
    <path stroke="transparent" fill="#000000" transform="matrix(0.05 0 0 0.05 -172 -228)"
        d="M 6075.42,5139.2 L 6063.42,5146.13 L 5820,5005.59 L 5820,4998.67 L 5826,4995.2 L 6075.42,5139.2 Z " />
    <path stroke="transparent" fill="#000000" transform="matrix(0.05 0 0 0.05 -172 -228)"
        d="M 6063.42,5146.13 L 6075.42,5139.2 L 6075.42,5434.13 L 6063.42,5427.2 L 6063.42,5146.13 Z " />
    <path stroke="#000000" stroke-width="12" fill="transparent" transform="matrix(0.05 0 0 0.05 -172 -228)"
        d="M 5639.7,5286.67 A 180.295,180.295 0 1 0 6000.3,5286.67A 180.295,180.295 0 1 0 5639.7,5286.67Z " />
    <text x="0" y="0" stroke="transparent" fill="#000000" transform="matrix(0.05 0 0 0.05 2.66667 38)"
        style="font:normal normal normal 200px 'Arial'">
        CH</text>
    <text x="0" y="0" stroke="transparent" fill="#000000" transform="matrix(0.05 0 0 0.05 17.11 39.8333)"
        style="font:normal normal normal 150px 'Arial'">
        3</text>
    <text x="0" y="0" stroke="transparent" fill="#000000" transform="matrix(0.05 0 0 0.05 31.6217 38)"
        style="font:normal normal normal 200px 'Arial'">
        CH</text>
    <path stroke="transparent" fill="#000000" transform="matrix(0.05 0 0 0.05 -172 -228)"
        d="M 4049.43,5244.56 L 4049.43,5256.56 L 3890.33,5256.56 L 3890.33,5244.56 L 4049.43,5244.56 Z " />
    <text x="0" y="0" stroke="transparent" fill="#000000" transform="matrix(0.05 0 0 0.05 53.2433 38)"
        style="font:normal normal normal 200px 'Arial'">
        CH</text>
    <path stroke="transparent" fill="#000000" transform="matrix(0.05 0 0 0.05 -172 -228)"
        d="M 4481.87,5218.64 L 4481.87,5230.64 L 4376.43,5230.64 L 4376.43,5218.64 L 4481.87,5218.64 Z " />
    <path stroke="transparent" fill="#000000" transform="matrix(0.05 0 0 0.05 -172 -228)"
        d="M 4481.87,5270.48 L 4481.87,5282.48 L 4376.43,5282.48 L 4376.43,5270.48 L 4481.87,5270.48 Z " />
    <text x="0" y="0" stroke="transparent" fill="#000000" transform="matrix(0.05 0 0 0.05 74.865 38)"
        style="font:normal normal normal 200px 'Arial'">
        CH</text>
    <text x="0" y="0" stroke="transparent" fill="#000000" transform="matrix(0.05 0 0 0.05 89.3084 39.8333)"
        style="font:normal normal normal 150px 'Arial'">
        3</text>
    <text x="0" y="0" stroke="transparent" fill="#000000" transform="matrix(0.05 0 0 0.05 93.4795 38)"
        style="font:normal normal normal 200px 'Arial'">
    </text>
    <text x="0" y="0" stroke="transparent" fill="#000000" transform="matrix(0.05 0 0 0.05 96.2578 38)"
        style="font:normal normal normal 200px 'Arial'">
        +</text>
    <path stroke="transparent" fill="#000000" transform="matrix(0.05 0 0 0.05 -172 -228)"
        d="M 4914.3,5244.56 L 4914.3,5256.56 L 4808.87,5256.56 L 4808.87,5244.56 L 4914.3,5244.56 Z " />
    <text x="0" y="0" stroke="transparent" fill="#000000" transform="matrix(0.05 0 0 0.05 115.389 11.0056)"
        style="font:normal normal normal 200px 'Arial'">
        CH</text>
    <text x="0" y="0" stroke="transparent" fill="#000000" transform="matrix(0.05 0 0 0.05 129.833 12.8389)"
        style="font:normal normal normal 150px 'Arial'">
        3</text>
    <path stroke="transparent" fill="#000000" transform="matrix(0.05 0 0 0.05 -172 -228)"
        d="M 5814,4814.28 L 5826,4814.28 L 5826,4995.2 L 5820,4998.67 L 5814,4995.2 L 5814,4814.28 Z " />
</svg>