<?xml version="1.0" standalone="no" ?>
<svg width="172px" height="30px" viewBox="0 0 172 30" style="background-color: #ffffffff" xmlns="http://www.w3.org/2000/svg" xmlns:xlink="http://www.w3.org/1999/xlink" version="1.1" >
<text x="0" y="0" stroke="transparent" fill="#000000" transform="matrix(0.05 0 0 0.05 2.6872 10.9849)" style="font:normal normal normal 199px 'Arial'" >
CH</text>
<text x="0" y="0" stroke="transparent" fill="#000000" transform="matrix(0.05 0 0 0.05 17.0583 12.809)" style="font:normal normal normal 149.25px 'Arial'" >
3</text>
<text x="0" y="0" stroke="transparent" fill="#000000" transform="matrix(0.05 0 0 0.05 30.9592 11.0022)" style="font:normal normal normal 200px 'Arial'" >
CH</text>
<path stroke="transparent" fill="#000000" transform="matrix(0.05 0 0 0.05 -170 -257)" d="M 3996.18,5284.6 L 3996.18,5296.6 L 3848.74,5296.6 L 3848.74,5284.6 L 3996.18,5284.6 Z " />
<text x="0" y="0" stroke="transparent" fill="#000000" transform="matrix(0.05 0 0 0.05 52.5808 11.0022)" style="font:normal normal normal 200px 'Arial'" >
CH</text>
<path stroke="transparent" fill="#000000" transform="matrix(0.05 0 0 0.05 -170 -257)" d="M 4428.62,5284.6 L 4428.62,5296.6 L 4323.18,5296.6 L 4323.18,5284.6 L 4428.62,5284.6 Z " />
<text x="0" y="0" stroke="transparent" fill="#000000" transform="matrix(0.05 0 0 0.05 74.2025 11.0022)" style="font:normal normal normal 200px 'Arial'" >
CH</text>
<text x="0" y="0" stroke="transparent" fill="#000000" transform="matrix(0.05 0 0 0.05 88.6458 12.8355)" style="font:normal normal normal 149.999px 'Arial'" >
2</text>
<text x="0" y="0" stroke="transparent" fill="#000000" transform="matrix(0.05 0 0 0.05 92.817 11.0022)" style="font:normal normal normal 199.998px 'Arial'" >
 </text>
<text x="0" y="0" stroke="transparent" fill="#000000" transform="matrix(0.05 0 0 0.05 95.5953 11.0022)" style="font:normal normal normal 199.998px 'Arial'" >
+ </text>
<text x="0" y="0" stroke="transparent" fill="#000000" transform="matrix(0.05 0 0 0.05 104.213 11.0022)" style="font:normal normal normal 199.998px 'Arial'" >
CH</text>
<text x="0" y="0" stroke="transparent" fill="#000000" transform="matrix(0.05 0 0 0.05 118.657 12.8355)" style="font:normal normal normal 149.999px 'Arial'" >
2</text>
<path stroke="transparent" fill="#000000" transform="matrix(0.05 0 0 0.05 -170 -257)" d="M 4861.05,5258.68 L 4861.05,5270.68 L 4755.62,5270.68 L 4755.62,5258.68 L 4861.05,5258.68 Z " />
<path stroke="transparent" fill="#000000" transform="matrix(0.05 0 0 0.05 -170 -257)" d="M 4861.05,5310.52 L 4861.05,5322.52 L 4755.62,5322.52 L 4755.62,5310.52 L 4861.05,5310.52 Z " />
<text x="0" y="0" stroke="transparent" fill="#000000" transform="matrix(0.05 0 0 0.05 133.161 11.0022)" style="font:normal normal normal 200px 'Arial'" >
CH</text>
<path stroke="transparent" fill="#000000" transform="matrix(0.05 0 0 0.05 -170 -257)" d="M 6040.22,5245.49 L 6040.22,5257.49 L 5880.05,5257.49 L 5880.05,5245.49 L 6040.22,5245.49 Z " />
<path stroke="transparent" fill="#000000" transform="matrix(0.05 0 0 0.05 -170 -257)" d="M 6040.22,5323.71 L 6040.22,5335.71 L 5880.05,5335.71 L 5880.05,5323.71 L 6040.22,5323.71 Z " />
<text x="0" y="0" stroke="transparent" fill="#000000" transform="matrix(0.05 0 0 0.05 154.783 11.0022)" style="font:normal normal normal 200px 'Arial'" >
CN</text>
<path stroke="transparent" fill="#000000" transform="matrix(0.05 0 0 0.05 -170 -257)" d="M 6472.65,5284.6 L 6472.65,5296.6 L 6367.22,5296.6 L 6367.22,5284.6 L 6472.65,5284.6 Z " />
<text x="0" y="0" stroke="transparent" fill="#000000" transform="matrix(0.05 0 0 0.05 30.9592 25.4022)" style="font:normal normal normal 200px 'Arial'" >
CH</text>
<text x="0" y="0" stroke="transparent" fill="#000000" transform="matrix(0.05 0 0 0.05 45.4025 27.2355)" style="font:normal normal normal 150px 'Arial'" >
3</text>
<path stroke="transparent" fill="#000000" transform="matrix(0.05 0 0 0.05 -170 -257)" d="M 4097.4,5476.21 L 4085.4,5476.21 L 4085.4,5394.21 L 4097.4,5394.21 L 4097.4,5476.21 Z " />
</svg>
