<?xml version="1.0" standalone="no" ?>
<svg width="67px" height="71px" viewBox="0 0 67 71" style="background-color: #ffffffff" xmlns="http://www.w3.org/2000/svg" xmlns:xlink="http://www.w3.org/1999/xlink" version="1.1" >
<path stroke="transparent" fill="#000000" transform="matrix(0.05 0 0 0.05 -290 -228)" d="M 6106,5578.13 L 6100,5574.67 L 6100,5567.74 L 6343.42,5427.2 L 6349.42,5430.67 L 6351.02,5436.67 L 6106,5578.13 Z " />
<path stroke="transparent" fill="#000000" transform="matrix(0.05 0 0 0.05 -290 -228)" d="M 5844.58,5434.13 L 5856.58,5427.2 L 6100,5567.74 L 6100,5574.67 L 6094,5578.13 L 5844.58,5434.13 Z " />
<path stroke="transparent" fill="#000000" transform="matrix(0.05 0 0 0.05 -290 -228)" d="M 5844.58,5139.2 L 5856.58,5146.13 L 5856.58,5427.2 L 5844.58,5434.13 L 5844.58,5139.2 Z " />
<path stroke="transparent" fill="#000000" transform="matrix(0.05 0 0 0.05 -290 -228)" d="M 6094,4995.2 L 6100,4998.67 L 6100,5005.59 L 5856.58,5146.13 L 5844.58,5139.2 L 6094,4995.2 Z " />
<path stroke="transparent" fill="#000000" transform="matrix(0.05 0 0 0.05 -290 -228)" d="M 6355.42,5139.2 L 6343.42,5146.13 L 6100,5005.59 L 6100,4998.67 L 6106,4995.2 L 6355.42,5139.2 Z " />
<path stroke="transparent" fill="#000000" transform="matrix(0.05 0 0 0.05 -290 -228)" d="M 6343.42,5146.13 L 6355.42,5139.2 L 6355.42,5424.67 L 6349.42,5430.67 L 6343.42,5427.2 L 6343.42,5146.13 Z " />
<path stroke="#000000" stroke-width="12" fill="transparent" transform="matrix(0.05 0 0 0.05 -290 -228)" d="M 5919.7,5286.67 A 180.295,180.295 0 1 0 6280.3,5286.67A 180.295,180.295 0 1 0 5919.7,5286.67Z " />
<text x="0" y="0" stroke="transparent" fill="#000000" transform="matrix(0.05 0 0 0.05 37.9816 47.0056)" style="font:normal normal normal 200px 'Arial'" >
OCH</text>
<text x="0" y="0" stroke="transparent" fill="#000000" transform="matrix(0.05 0 0 0.05 60.2033 48.8389)" style="font:normal normal normal 150px 'Arial'" >
3</text>
<path stroke="transparent" fill="#000000" transform="matrix(0.05 0 0 0.05 -290 -228)" d="M 6536.63,5424.67 L 6536.63,5436.67 L 6351.02,5436.67 L 6349.42,5430.67 L 6355.42,5424.67 L 6536.63,5424.67 Z " />
<text x="0" y="0" stroke="transparent" fill="#000000" transform="matrix(0.05 0 0 0.05 11.3892 11.0056)" style="font:normal normal normal 200px 'Arial'" >
CH</text>
<text x="0" y="0" stroke="transparent" fill="#000000" transform="matrix(0.05 0 0 0.05 25.8325 12.8389)" style="font:normal normal normal 150px 'Arial'" >
0</text>
<path stroke="transparent" fill="#000000" transform="matrix(0.05 0 0 0.05 -290 -228)" d="M 6094,4814.28 L 6106,4814.28 L 6106,4995.2 L 6100,4998.67 L 6094,4995.2 L 6094,4814.28 Z " />
<text x="0" y="0" stroke="transparent" fill="#000000" transform="matrix(0.05 0 0 0.05 11.1108 68.6055)" style="font:normal normal normal 200px 'Arial'" >
OH</text>
<path stroke="transparent" fill="#000000" transform="matrix(0.05 0 0 0.05 -290 -228)" d="M 6106,5760.28 L 6094,5760.28 L 6094,5578.13 L 6100,5574.67 L 6106,5578.13 L 6106,5760.28 Z " />
</svg>
